<?xml version="1.0" encoding="UTF-8"?>
<svg width="54px" height="48px" viewBox="0 0 54 48" version="1.1" xmlns="http://www.w3.org/2000/svg" xmlns:xlink="http://www.w3.org/1999/xlink">
    <title>Fill 36</title>
    <g id="Kosmos" stroke="none" stroke-width="1" fill="none" fill-rule="evenodd">
        <g id="Tool---1" transform="translate(-714.000000, -69.000000)">
            <g id="Background-Color" transform="translate(0.000000, 60.000000)" fill="#F2F5F7">
                <rect id="Atoms-/-Colors-/-Black" x="0" y="0" width="1440" height="653"></rect>
            </g>
            <path d="M763,74 C763.011608,73.8625806 763.023485,73.7253763 763.035092,73.587957 C763.191929,73.6726882 763.37414,73.7137634 763.593602,73.6621505 C764.000945,73.5666667 764.128087,73.3 763.979889,73.0008602 C763.979619,73.0004301 763.979349,73.0002151 763.979349,73 C764.318936,73.0565591 764.659603,73.1075269 765,73.1470968 C764.317587,73.4047312 763.64975,73.7027957 763,74 Z M761.76646,75 C761.869003,74.6621807 761.945348,74.3312277 761.997465,74 C762.076063,74.2452623 762.154661,74.4902499 762.23354,74.7355122 C762.142829,74.7863224 762.050145,74.8387806 761.96056,74.8887668 C761.895484,74.9250206 761.831535,74.9634716 761.76646,75 Z M757,78 C757.088173,76.6664641 757.175992,75.3332321 757.264164,74 C757.474504,75.1360425 757.72238,76.2669199 758,77.394455 C757.736544,77.5515382 757.471317,77.7064945 757.210694,77.8669199 C757.139873,77.9103684 757.070822,77.9559438 757,78 Z M756,79 C756.178951,77.3335136 756.354914,75.6667568 756.530876,74 C756.678619,75.4379969 756.825033,76.8759937 756.976428,78.3134498 C756.979416,78.3399492 756.991036,78.3604997 757,78.3829431 C756.664011,78.5860148 756.331009,78.7917906 756,79 Z M722.097755,95 C722.143956,96.3334215 722.190157,97.6665785 722.236357,99 C722.07888,98.8239376 721.923092,98.6468178 721.763643,98.4723416 C721.874919,97.3149825 721.986478,96.1573591 722.097755,95 Z M721,93.2115909 C721.332972,93.1402622 721.666306,93.0691995 722,93 C721.834597,94.3331559 721.669556,95.6665779 721.504153,97 C721.335861,95.7371083 721.167931,94.4744827 721,93.2115909 Z M721.419085,95 L722,98 C721.670438,97.8069719 721.333497,97.6177236 721,97.4267115 C721.139695,96.6178076 721.27939,95.8089038 721.419085,95 Z M718.5905,95 C718.385284,94.750358 718.213598,94.4902148 718,94.2465394 C718.333437,94.1613365 718.666874,94.0823389 719,94 C718.797578,94.3038186 718.671841,94.648926 718.5905,95 Z M719.673359,94 L720,96 C719.668475,95.8014865 719.340206,95.6014246 719.022246,95.3967172 C719.014107,95.3914525 719.008139,95.3852586 719,95.3799938 C719.194791,94.9135955 719.452523,94.4611335 719.673359,94 Z M721,97 C720.975332,96.9850407 720.952087,96.9695472 720.927419,96.954588 C720.623814,96.7689328 720.312144,96.5864832 720,96.4045679 C720.198767,95.937091 720.390417,95.4688126 720.575427,95 L721,97 Z M719.791428,93.6808719 C719.631441,94.4120336 719.47538,95.1435219 719.323573,95.8759899 C719.215606,95.121316 719.107967,94.3663156 719,93.6113152 C719.665794,93.4010123 720.332243,93.1975671 721,93 C720.880255,94.3333333 720.76051,95.6666667 720.640766,97 C720.512187,95.9145236 720.383282,94.8290473 720.254703,93.7435709 C720.225912,93.5022451 719.853264,93.3983999 719.791428,93.6808719 Z M726.536636,97 C726.691434,99.6665691 726.844685,102.333431 727,105 C726.670795,104.727459 726.334881,104.457553 726,104.187354 L726.536636,97 Z M725,91.1130595 C725.189932,91.076148 725.377722,91.0363302 725.568011,91 C725.709747,91.1116063 725.857194,91.2194342 726,91.3301686 L725.567654,100 C725.378436,97.0374927 725.189218,94.0752761 725,91.1130595 Z M725.02181,102.679245 C725.184245,100.119497 725.346354,97.5600479 725.508789,95 C725.672526,98 725.836263,101 726,104 C725.673177,103.58251 725.335938,103.171608 725,102.759808 C725.012044,102.736748 725.019857,102.710093 725.02181,102.679245 Z M724,92.1579195 C724.331789,92.1036815 724.666358,92.0524401 725,92 C724.795644,94.3331336 724.591288,96.6665668 724.387396,99 C724.258109,96.7193065 724.128823,94.438613 724,92.1579195 Z M724.610897,95 C724.740598,97.3332326 724.870299,99.6664652 725,102 C724.673095,101.731281 724.333173,101.468607 724,101.20291 C724.203472,99.1350721 724.407425,97.0675361 724.610897,95 Z M723,92.1736863 C723.333469,92.1158793 723.665311,92.0559509 724,92 C723.815779,93.9999116 723.631964,95.9998232 723.44815,98 C723.336722,96.1027092 723.228142,94.2051531 723.111834,92.3081275 C723.107767,92.2428957 723.061407,92.1999381 723,92.1736863 Z M722.260163,97 C722.17378,95.3852649 722.08689,93.7705298 722,92.156092 C722.332317,92.1022775 722.667175,92.0526253 723,92 C722.981707,92.0222989 722.968496,92.0475709 722.964431,92.0767081 C722.729675,93.7176072 722.494919,95.3588036 722.260163,97 Z M723.624884,95 C723.753029,96.6664028 723.878844,98.3330695 724,100 C723.792637,99.8532827 723.593197,99.7033988 723.383504,99.557737 C723.258155,99.4706565 723.126281,99.3864788 723,99.2996622 C723.20876,97.8662656 723.416589,96.4331328 723.624884,95 Z M727.427698,101 C727.287025,98.0000994 727.146789,94.9999006 727,92 C727.33377,92.2131077 727.662298,92.4291959 728,92.6396211 C727.802097,95.426116 727.614242,98.213207 727.427698,101 Z M727.092965,100 C727.122264,102.333333 727.150153,104.666667 727.178888,107 C727.059723,106.804593 726.941685,106.607971 726.821112,106.41378 C726.91126,104.275853 727.002535,102.137927 727.092965,100 Z M729,106.804838 C728.706638,106.869709 728.413582,106.935404 728.119914,107 C728.080759,106.945025 728.039462,106.891424 728,106.836449 C728.391863,104.899395 728.706026,102.953546 728.935454,101 C728.941572,102.934854 728.962374,104.869709 729,106.804838 Z M728.911351,94.2933779 C728.822233,97.8837689 728.568246,101.454411 728.135319,105 C728.086538,101.000197 728.037054,97.0000983 728,93 C728.331614,93.3758106 728.664165,93.7501474 729,94.1200629 C728.951689,94.149833 728.913696,94.2058361 728.911351,94.2933779 Z M729.625966,103 C729.750129,104.288666 729.875837,105.57761 730,106.866276 C729.666667,106.911223 729.333333,106.955611 729,107 C729.272025,105.668342 729.482741,104.335008 729.625966,103 Z M729.846608,104 C729.796463,101.000274 729.780124,97.9994515 729.826043,95 C729.950842,95.1058694 730.075923,95.2114646 730.201003,95.3170598 C730.084938,95.3154142 729.971407,95.3867252 729.977323,95.5331871 C730.091417,98.3601207 730.04747,101.183489 729.846608,104 Z M732,106.757205 C731.666568,106.837394 731.334027,106.921481 731,107 C731.236256,105.669915 731.420505,104.336767 731.552155,103 C731.653195,104.255743 731.8,105.508701 732,106.757205 Z M731.313583,97.7971296 C731.315699,97.3241142 731.312789,96.8505008 731.30406,96.3762894 C731.299299,96.1245328 730.9631,96.1242338 730.958074,96.3762894 C730.948287,96.8759157 730.94432,97.3752429 730.943791,97.8745702 C730.899087,100.260278 730.737998,102.636717 730.455231,105 C730.304722,101.673643 730.154212,98.3475856 730.004761,95.0212289 C730.004497,95.0131559 730.000794,95.007774 730,95 C730.592779,95.5791598 731.18688,96.1562266 731.779659,96.7317985 C731.849755,96.7996711 731.924878,96.8343549 732,96.8484078 C731.932813,99.2442817 731.827801,101.638062 731.682582,104.028853 C731.477318,101.957991 731.34797,99.8829421 731.313583,97.7971296 Z M733,105.792836 C732.667572,105.863855 732.333204,105.930222 732,106 C732.189682,104.001551 732.338247,102.001551 732.453064,100 C732.635764,101.930842 732.817688,103.861684 733,105.792836 Z M732,97.2014423 C732.091196,97.1652644 732.174497,97.107492 732.238452,97.019992 C732.488354,96.678125 732.742598,96.3382212 733,96 C732.864587,98.3333333 732.730754,100.666667 732.596921,103 C732.395184,101.067147 732.195026,99.1342949 732,97.2014423 Z M735,92.1055002 C735.328413,91.7342795 735.662157,91.3658733 736,91 C735.896269,93.3334271 735.792948,95.6665729 735.692907,98 C735.506765,96.0332904 735.273883,94.0688324 735,92.1055002 Z M734.649329,98 C734.829899,100.569473 734.943736,103.142517 735,105.716751 C734.666012,105.808688 734.332679,105.904195 734,106 C734.345437,103.337697 734.558718,100.671229 734.649329,98 Z M734,105.799702 C733.665959,105.869004 733.332767,105.935769 733,106 C733.137946,103.666573 733.275042,101.333427 733.412564,99 C733.598048,101.236236 733.782258,103.472754 733.968166,105.709272 C733.970713,105.743923 733.983447,105.772939 734,105.799702 Z M734,94.3217623 C734.322653,93.8771696 734.65292,93.4373273 734.987174,93 C735.043729,96.0040053 734.913218,99.0066135 734.596365,102 C734.395522,99.4405874 734.195042,96.8811749 734,94.3217623 Z M737.981199,92 C738.073571,96.3031291 737.809294,100.602912 737.543622,104.90409 C737.362229,104.931134 737.180835,104.96264 737,105 C737.33488,100.667038 737.658877,96.3335192 737.981199,92 Z M736.216356,104.883614 C736.071837,104.920765 735.9276,104.958786 735.783644,105 C735.851537,102.666763 735.915204,100.333527 735.975491,98 C736.056343,100.294344 736.135504,102.588979 736.216356,104.883614 Z M736,90.9248976 C736.325058,90.2743805 736.658604,89.632748 737,89 C736.761511,93 736.524507,96.9997224 736.290898,101 C736.190325,97.6419102 736.089964,94.2835427 736,90.9248976 Z M738.996486,94 C738.988454,96.2726123 738.943022,98.5452245 738.857179,100.817556 C738.852912,100.931988 738.917922,101.010431 739,101.047263 C738.63002,102.019512 738.297942,103.005258 738,104 C738.433233,100.678382 738.766315,97.3441111 738.996486,94 Z M738,88.2162066 C738.328317,87.8065253 738.661548,87.4013091 739,87 C738.875921,90.6768064 738.602887,94.3452405 738.173219,98 C738.29269,94.7378983 738.285319,91.4744013 738,88.2162066 Z M740.854199,94 C740.856352,95.2930762 740.85912,96.5861524 740.860966,97.8792287 C740.860966,97.9894732 740.920947,98.061534 741,98.1034499 C740.651799,98.7301785 740.315595,99.3615006 740,100 C740.353122,98.0066989 740.637958,96.0065075 740.854199,94 Z M740,86.0439777 C740.328994,85.6928789 740.661894,85.3442468 741,85 C740.968109,88.6831116 740.673609,92.3533413 740.109014,96 C740.185486,92.6814173 740.150342,89.3622863 740,86.0439777 Z M756.192663,105.14017 C751.123773,112.63324 741.807293,117.180848 732.903423,115.731711 C723.848114,114.257692 717.237114,107.247668 715.492059,98.1530254 C713.779755,89.229122 716.534781,79.8419067 723.782612,74.2950328 C731.480282,68.4035349 741.925981,68.7241353 749.651925,74.3302102 C742.303881,79.937143 736.105771,87.322679 732.255956,95.7778365 C730.36282,94.0730201 728.462966,92.3567638 726.469896,90.7757832 C726.371642,90.615054 726.19193,90.5015139 725.960712,90.5412673 C723.002739,91.0514824 720.039728,91.9638066 717.294219,93.1978752 C716.91268,93.3694722 717.106669,93.9657719 717.464414,93.9998053 C717.400591,94.653304 717.920692,95.2721973 718.363254,95.7938522 C719.402058,97.018483 720.523439,98.1667531 721.548806,99.4065416 C723.770575,102.093179 725.786318,104.945122 727.617311,107.922616 C727.703528,108.062754 727.823896,108.131678 727.949022,108.14941 C728.024322,108.179154 728.110539,108.190021 728.207114,108.17086 C728.535186,108.105939 728.862139,108.036442 729.189092,107.966373 C729.283427,108.071048 729.473776,108.041304 729.538999,107.892301 C730.795585,107.616601 732.044332,107.305153 733.286082,106.964819 C734.79432,106.55127 736.474993,106.232957 737.859784,105.484222 C737.888896,105.468493 737.909611,105.445613 737.931725,105.423877 C738.146148,105.550001 738.481218,105.496234 738.603546,105.186787 C741.384606,98.1450175 744.875276,91.7241428 749.976638,86.1349416 C750.079371,86.0222596 750.186862,85.9147254 750.290435,85.8029014 C750.452791,85.879262 750.677572,85.7988974 750.694927,85.5526557 C750.699406,85.4888788 750.703605,85.4248159 750.708083,85.361039 C752.245714,83.7405911 753.874321,82.2099456 755.593343,80.7925542 C761.596905,87.6561492 761.140626,97.825847 756.192663,105.14017 Z M751,75 C750.830667,77.3332395 750.661886,79.6667605 750.49283,82 C750.329013,79.9223192 750.165472,77.8449198 750,75.767239 C750.330116,75.5080214 750.663265,75.2524627 751,75 Z M755.706169,76 C755.770292,77.1410432 755.861607,78.2815093 756,79.4219753 C755.663555,79.6118606 755.331981,79.8063632 755,80 C755.259334,78.6684943 755.496753,77.3352572 755.706169,76 Z M753.715388,76 C753.810259,77.4924426 753.905129,78.9851611 754,80.4776037 C753.66364,80.6494373 753.332274,80.8251324 753,81 C753.242851,79.3335172 753.481616,77.6670344 753.715388,76 Z M752.747587,77 C752.834818,78.7631298 752.920193,80.5265508 753,82.2899718 C752.664811,82.5249976 752.329621,82.7600233 752,83 C752.256496,81.0003883 752.497402,78.9996117 752.747587,77 Z M752,83.3684016 C751.664234,83.5771748 751.330089,83.7872677 751,84 C751.182482,82.3335093 751.364152,80.6667546 751.545823,79 C751.697486,80.4561339 751.848743,81.9122677 752,83.3684016 Z M752.958931,73.1223174 C752.767922,75.4169565 752.554313,77.7080329 752.345565,80 L752.026488,73.9758673 C752.024058,73.9283654 752.014338,73.887395 752,73.8523624 C752.329769,73.5634914 752.663183,73.2793706 753,73 C752.979587,73.0329544 752.963062,73.0715497 752.958931,73.1223174 Z M753.249394,73.8928843 C753.241853,73.7277989 753.111231,73.6660342 753,73.6973435 C753.330191,73.4613852 753.663614,73.2288425 754,73 C753.831403,75.0006641 753.653649,77.0001898 753.476434,79 C753.399946,77.2976281 753.324805,75.5952562 753.249394,73.8928843 Z M754.010285,72.540452 C754.009599,72.5266951 754.002743,72.5168687 754,72.5042347 C754.330819,72.3335361 754.665067,72.1662065 755,72 C754.812479,74.0045857 754.573877,76.0046792 754.281454,78 C754.19095,76.1801507 754.100788,74.3603013 754.010285,72.540452 Z M749.640159,80 C749.759841,81.6124801 749.87926,83.2249602 750,84.8374403 C749.706737,85.1678642 749.416645,85.5020495 749.131044,85.8405748 C749.086922,85.8926556 749.044122,85.9476298 749,86 C749.283752,84.0087766 749.495905,82.0077157 749.640159,80 Z M748.184945,83 C748.16607,84.1271167 748.148604,85.2542333 748.126348,86.38135 C748.12494,86.4493952 748.147477,86.5043309 748.179029,86.5514631 C748.057892,86.7015997 747.935065,86.8479906 747.815055,87 C747.939009,85.6665626 748.061554,84.3334374 748.184945,83 Z M747.819109,82 C747.880837,83.8065197 747.939345,85.6130395 748,87.4195592 C747.666667,87.6130395 747.328502,87.8036162 747,88 C747.188943,85.9973604 747.463768,83.9970965 747.819109,82 Z M745.661718,82 C745.702604,84.179026 745.81577,86.3550083 746,88.5276702 C745.660501,89.0113448 745.326844,89.5016602 745,90 C745.181066,87.3303818 745.397177,84.6618705 745.661718,82 Z M744.954585,85 C744.969338,86.8907139 744.985826,88.7814279 745,90.6721418 C744.659531,91.1095917 744.326294,91.5521219 744,92 C744.367949,89.6718362 744.688458,87.338592 744.954585,85 Z M742.737719,89 C742.750107,90.2727423 742.796241,91.5454846 742.882956,92.8182269 C742.887228,92.883008 742.933362,92.9367626 743,92.9764583 C742.659547,93.3149741 742.327638,93.6565222 742,94 C742.24135,92.3330577 742.489107,90.666391 742.737719,89 Z M741.019631,96 C740.935015,92.6615719 741.125629,89.3254953 741.55872,86 C741.695199,88.917524 741.805746,91.8353418 741.908105,94.7534536 C741.910379,94.8178238 741.947228,94.8651461 742,94.8983599 C741.663809,95.262536 741.341265,95.6308271 741.019631,96 Z M742.17665,92 C742.108985,89.0730919 742.049917,86.1458902 742.014143,83.2181012 C742.013866,83.1934338 742.006933,83.1717029 742,83.1502658 C742.328896,82.7623411 742.66223,82.3791149 743,82 C742.712701,85.3321587 742.447587,88.666373 742.17665,92 Z M743.251304,80.9467607 C743.254509,80.9004038 743.245962,80.8628633 743.231805,80.8298732 C743.485555,80.5508788 743.741175,80.2738752 744,80 C743.751859,83.3425289 743.425189,86.6768102 743.012512,90 C742.966837,86.9802628 743.046167,83.9625164 743.251304,80.9467607 Z M745.072548,80.0280868 C745.072241,79.9543938 745.042422,79.9001669 745,79.8609566 C745.329849,79.5709121 745.66308,79.2839266 746,79 C745.671995,81.3312013 745.378113,83.6637931 745.123271,86 C745.105749,84.0094549 745.086382,82.0186318 745.072548,80.0280868 Z M746.013579,78.6859562 C746.339956,78.45541 746.667721,78.2262167 747,78 C746.64793,80.329545 746.378496,82.6620666 746.185448,85 C746.027815,82.8988364 745.97122,80.7938846 746.013579,78.6859562 Z M748.975053,77.0695831 C748.693605,79.3796242 748.41532,81.6896653 748.136332,84 C748.087843,81.9031122 748.04111,79.8065179 748.003162,77.7096301 C748.003162,77.7049325 748.000351,77.7017029 748,77.6970053 C748.330639,77.4621257 748.66409,77.2298884 749,77 C748.990513,77.0226072 748.978215,77.0431591 748.975053,77.0695831 Z M749,76.4348564 C749.331598,76.2889618 749.664758,76.1439154 750,76 C749.89849,77.672133 749.702238,79.3383284 749.413326,81 C749.456533,79.5642389 749.502343,78.128195 749.54659,76.6921511 C749.552317,76.495363 749.269131,76.414499 749,76.4348564 Z M741.002353,83.7520812 C741.002353,83.7493496 741,83.7475286 741,83.7447971 C741.329412,83.4944069 741.664941,83.2473552 742,83 C741.521412,85.3287808 741.204235,87.6618106 741.049882,90 C741.030588,87.9173604 741.013176,85.8347208 741.002353,83.7520812 Z M756.234831,71 C756.101299,72.6666667 755.96495,74.3336293 755.827755,76 C755.766624,74.4283262 755.748876,72.8551728 755.780709,71.2790601 C755.931426,71.1852509 756.082988,71.0923295 756.234831,71 Z M760.937882,75 C760.984928,75.20541 761.034792,75.4108199 761.088035,75.6162299 C761.101558,75.6673711 761.119869,75.7121724 761.140998,75.7510566 C761.047187,75.8347422 760.95225,75.9154691 760.859002,76 C760.889709,75.6665258 760.915909,75.3334742 760.937882,75 Z M759.869426,74 C759.987464,74.5667881 760.10522,75.1332726 760.223258,75.7000607 C760.074231,75.7999393 759.924642,75.8982999 759.776742,76 C759.818436,75.3333333 759.849706,74.6669702 759.869426,74 Z M758.7591,75 C758.44499,73.6736525 758.192638,72.3412761 758,71 C758.332106,71.0783751 758.666258,71.1518697 759,71.2267997 C758.919427,72.4845331 758.839264,73.7422666 758.7591,75 Z M759.228847,74 C759.483121,74.8655746 759.737834,75.7308892 759.992547,76.5964639 C759.993862,76.601144 759.998246,76.6037441 760,76.6081643 C759.665936,76.7381695 759.330995,76.8673947 759,77 C759.076282,76 759.152565,75 759.228847,74 Z M759.179874,72.262994 C759.190861,72.8428743 759.186353,73.4215569 759.170577,74 C759.033383,73.3334132 758.896189,72.6665868 758.758994,72 C758.919007,72.0414371 759.080429,72.0790419 759.241006,72.1190419 C759.204101,72.1566467 759.178747,72.2038323 759.179874,72.262994 Z M760.921083,75 C760.614203,73.9998917 760.307322,73.0001083 760,72 C760.312187,72.0646384 760.624815,72.1276527 760.937886,72.1896925 C761.024998,73.1410784 761.02146,74.0697272 760.921083,75 Z M756.608123,75 C756.404501,73.6666667 756.203074,72.3333333 756,71 C756.331504,71.0712052 756.66685,71.136637 757,71.2052762 C756.975302,71.2418411 756.954446,71.2806511 756.950055,71.3274798 L756.608123,75 Z M762.21497,72.1198894 C762.253001,72.7673505 762.216942,73.3860032 762.104538,74 C761.926496,73.3513749 761.816064,72.6946021 761.770426,72 C761.893817,72.0328823 762.016644,72.0686745 762.140598,72.1006838 C762.165107,72.1067947 762.190179,72.1134876 762.21497,72.1198894 Z M763.962234,73.5681227 C763.865381,73.4830993 763.768528,73.3983359 763.671675,73.3133125 C763.556751,73.073843 763.288122,73.1851274 763.274112,73.451118 C763.264569,73.6341654 763.255025,73.8169527 763.245482,74 C763.163655,73.6666667 763.081827,73.3333333 763,73 C763.329543,73.1079043 763.663553,73.2163287 764,73.3156526 C763.951675,73.3733749 763.928934,73.4604784 763.962234,73.5681227 Z M767.181425,72.6585743 C767.145929,72.6331385 767.10677,72.6111322 767.060569,72.595985 C765.373952,72.046971 763.542815,71.8617752 761.819293,71.4182199 C760.081967,70.9709492 758.372812,70.4330812 756.664784,69.8834956 C756.362505,69.786325 756.161926,69.9860964 756.119387,70.2258792 C756.102484,70.2335957 756.085863,70.2390258 756.069242,70.2487429 C754.205145,71.3267652 752.387812,72.5142473 750.631329,73.8006149 C743.59244,68.2201632 733.493017,67.4042158 725.70815,71.8823525 C717.462119,76.6259937 713.313608,85.8226215 714.092828,95.2684635 C714.885569,104.880353 720.591109,113.259033 729.893284,116.064977 C739.040516,118.824051 749.198535,115.272751 755.419893,108.10013 C762.168617,100.319621 763.658317,88.327623 756.607878,80.2158766 C757.192151,79.7557451 757.783749,79.3047591 758.386898,78.8697777 C759.834059,77.8260509 761.331929,76.8546304 762.874873,75.9626613 C764.468243,75.0415409 766.251489,74.374779 767.793869,73.3864966 C768.208551,73.1209921 767.947403,72.4345103 767.454968,72.5711207 C767.363411,72.5965566 767.2727,72.6299947 767.181425,72.6585743 Z" id="Fill-36" fill="#2B2E2B"></path>
        </g>
    </g>
</svg>