<?xml version="1.0" encoding="UTF-8"?>
<svg width="151px" height="78px" viewBox="0 0 151 78" version="1.1" xmlns="http://www.w3.org/2000/svg" xmlns:xlink="http://www.w3.org/1999/xlink">
    <title>8427</title>
    <g id="Kosmos" stroke="none" stroke-width="1" fill="none" fill-rule="evenodd">
        <g id="Homepage" transform="translate(-441.000000, -1030.000000)">
            <g id="Content-#6" transform="translate(139.000000, 881.000000)">
                <g id="Background" transform="translate(0.000000, 119.000000)">
                    <g id="Card" transform="translate(302.000000, 30.000000)">
                        <rect id="Rectangle-4" fill="#FFFFFF" x="0" y="44" width="263" height="195" rx="2"></rect>
                        <g id="8427">
                            <path d="M65,67 L68,64 C66.7423501,65.1146934 65.8408813,66.0628964 65,67" id="Fill-29" fill="#B4B5B4"></path>
                            <polyline id="Fill-32" fill="#B4B5B4" points="64.703 68.344 64.943 68.172 65.297 67.656 64.703 68.344"></polyline>
                            <path d="M101.306,48.541 C101.092,48.857 100.904,49.161 100.694,49.459 L101.154,48.979 L101.306,48.541" id="Fill-54" fill="#B4B5B4"></path>
                            <path d="M113.081772,33.2859325 C112.79139,33.8800928 112.72641,34.1712313 112.626908,34.529708 C115.993715,28.7584314 123.578168,18.998359 122.964914,17 C122.250127,19.1805681 114.795635,28.3227139 115.475901,26.4035763 C113.081772,30.3745473 108.598112,35.5774106 107.345205,37.7223291 C112.023807,31.7549796 108.721981,37.6807379 105.75318,41.885412 C102.471661,45.2859891 105.619158,40.7129357 102.877789,43.6718538 L96,52 L102.195493,44.8918628 L101.137528,47.7042214 C101.33247,47.4170439 101.476645,47.220971 101.683771,46.9080466 C111.461319,34.2979855 104.181462,47.0625283 113.081772,33.2859325" id="Fill-55" fill="#B4B5B4"></path>
                            <path d="M112.615,35 C112.099,35.7637315 111.677,36.4385353 111.385,37 C112.219,35.8788143 112.451,35.413252 112.615,35" id="Fill-56" fill="#B4B5B4"></path>
                            <path d="M116.641,25 C115.803,26.1439689 115.475,26.6793774 115.359,27 C115.903,26.2575875 116.393,25.5634241 116.641,25" id="Fill-60" fill="#B4B5B4"></path>
                            <path d="M126.215456,9.91029656 L127.338586,7.85223836 C126.608458,10.1839335 127.070376,9.1259991 127.770703,7.06601387 C128.880795,4.84608592 128.605135,4.85186698 128.579059,4.5011492 C128.705714,4.02710208 128.837956,3.52993072 129,3 C128.752278,3.71299769 128.519457,4.38360093 128.331337,4.95399908 C126.552581,8.36867993 125.528167,10.4691326 126.215456,9.91029656" id="Fill-81" fill="#B4B5B4"></path>
                            <path d="M59,71 C59.633035,70.3504762 60.2449146,69.7504762 61,69 C60.1293735,69.8 59.5288853,70.4266667 59,71" id="Fill-83" fill="#B4B5B4"></path>
                            <polyline id="Fill-140" fill="#B4B5B4" points="70.992 34.088 71.008 33.912 70.992 34.088"></polyline>
                            <path d="M70.6443794,33.1281037 L70.5983794,33.8101037 C70.8943794,33.1761037 72.2203794,30.9421037 70.6443794,33.1281037" id="Fill-141" fill="#B4B5B4"></path>
                            <path d="M48,49 C48,49 46.0360995,50.8564977 43.0912601,53.6322127 C40.0715862,56.3537381 36.2954768,60.263422 32.1229468,63.7134972 C23.5675411,70.3627697 15,77 15,77 C19.9411008,73.1866533 24.6860137,69.5238334 30.1327531,65.3371801 C35.6684849,61.2910186 40.880608,55.4967386 48,49" id="Fill-195" fill="#B4B5B4"></path>
                            <path d="M51.0736731,48.0353681 L51.0836731,47.8613681 C50.8776731,48.1273681 50.8476731,48.2353681 51.0736731,48.0353681" id="Fill-235" fill="#B4B5B4"></path>
                            <path d="M55.1339713,42.6526459 L60,35 L51.0391475,45.6017639 L51,47 C51.6909526,45.9375848 54.491953,41.8731343 55.9873858,40.7069199 L55.1339713,42.6526459" id="Fill-236" fill="#B4B5B4"></path>
                            <path d="M65.76157,27 C61.496778,32.5122029 62.3661394,32.7458352 65.5216755,30.3126402 C61.384007,35.2853994 62.2205624,32.0601339 60,35.9862963 C60.6643234,36.3224989 66.0219684,30.375322 67,28.8272706 L65.76157,27" id="Fill-237" fill="#B4B5B4"></path>
                            <path d="M85,0 C84.1276151,1.74753452 83.1689331,3.67455621 82,6 L85,0" id="Fill-240" fill="#B4B5B4"></path>
                            <path d="M73,16.0323944 C72.7076736,15.6232974 70.8989038,19.1905328 70,21 C70.8422655,19.6333465 72.1285018,17.7946581 73,16.0323944" id="Fill-250" fill="#B4B5B4"></path>
                            <path d="M28,61.4561636 L28.3707178,15.5014419 C28.3727109,15.2224137 28.5959389,15 28.8689945,15 L123.50369,15.4711127 C123.780732,15.4731347 124.001967,15.7016142 124,15.9786204 L123.782725,61.3186715 C121.412921,69.7481521 100.826123,76 75.8823934,76 C50.9346779,76 30.3498727,69.7481521 28,61.4561636 Z" id="Fill-1641" fill="#FFFFFE"></path>
                            <path d="M28.3992808,15 C27.8476219,15 27.398644,15.4467704 27.392604,16.0006847 L27,61.8057648 L27.0382537,62.0928299 C29.4723982,70.5915746 50.4736896,77 75.8902655,77 C101.304828,77 122.306119,70.5915746 124.742277,62.0928299 L124.780531,61.8199159 L125,16.4878868 C125.002,15.9299292 124.555035,15.4750725 123.99935,15.4710294 L28.4053208,15 L28.3992808,15 Z M28.3992808,16.0107927 L123.99331,16.481822 L123.773854,61.8138511 C121.494738,69.7647462 100.930344,75.9892073 75.8902655,75.9892073 C50.8481734,75.9892073 30.2817664,69.7647462 28.0066768,61.8138511 L28.3992808,16.0107927 L28.3992808,16.0107927 Z" id="Fill-1642" fill="#000606"></path>
                            <path d="M113,16 C106.356387,22.4175479 99.3954434,28.4750288 93,35" id="Fill-1643" fill="#FFFFFE"></path>
                            <path d="M113.134179,16.1422827 C106.510565,22.5498061 99.5516037,28.6130744 93.1413922,35.1579018 C92.9462812,35.3568933 92.9544108,35.6712997 93.1576515,35.8623314 C93.3588598,36.0513733 93.6820125,36.0454035 93.8750911,35.8464121 C100.246687,29.339393 107.199551,23.2801046 113.847554,16.8506921 C114.048762,16.6576704 114.050795,16.343264 113.853651,16.1482524 C113.654475,15.9512509 113.333355,15.9512509 113.134179,16.1442726" id="Fill-1644" fill="#000606"></path>
                            <path d="M117,16 C109.662668,23.427809 102.019447,30.5620686 95,38" id="Fill-1645" fill="#FFFFFE"></path>
                            <path d="M116.14805,15.1467068 C108.818636,22.5609661 101.173334,29.693953 94.1398158,37.144636 C93.9478836,37.3469903 93.9538814,37.66671 94.1558102,37.86097 C94.3537403,38.0532065 94.6716282,38.0451124 94.8615611,37.8427581 C101.86509,30.4244518 109.506393,23.295512 116.853801,15.8630408 C117.047732,15.6667572 117.049731,15.345014 116.853801,15.1487304 C116.65787,14.9504232 116.341981,14.9504232 116.14805,15.1487304" id="Fill-1646" fill="#000606"></path>
                            <path d="M121,17 C112.876862,24.8929591 105.248262,33.473199 97,41" id="Fill-1647" fill="#FFFFFE"></path>
                            <path d="M121.120608,16.1452348 C112.653886,24.3794072 104.720209,33.3045164 96.1667131,41.1167894 C95.9559748,41.3063385 95.9435785,41.6304061 96.1377883,41.8362605 C96.3319981,42.0421148 96.6584358,42.0563819 96.8691741,41.8647947 C105.476388,34.0036058 113.414197,25.0683058 121.845795,16.8708203 C122.048269,16.6731186 122.052401,16.3510891 121.851993,16.1513493 C121.651585,15.9516094 121.325148,15.9495713 121.122674,16.1452348" id="Fill-1648" fill="#000606"></path>
                            <path d="M123,18 C114.394166,26.4074992 105.952582,35.1936783 97,44" id="Fill-1649" fill="#FFFFFE"></path>
                            <path d="M123.138382,17.1442651 C114.529036,25.5560493 106.091958,34.3403929 97.1502366,43.1388333 C96.9516217,43.3341752 96.949595,43.652361 97.1461832,43.8517305 C97.3447981,44.0490862 97.6650139,44.0490862 97.8636287,43.8537443 C106.817511,35.0432209 115.254589,26.2588774 123.847721,17.8632038 C124.048363,17.6678619 124.050389,17.3496761 123.855828,17.1503066 C123.65924,16.9529508 123.339024,16.9489232 123.138382,17.1442651" id="Fill-1650" fill="#000606"></path>
                            <path d="M124,22 C116.011323,29.84623 108.288402,37.8369906 100,46" id="Fill-1651" fill="#FFFFFE"></path>
                            <path d="M124.114484,22.1485758 C115.800222,30.3179537 107.768575,38.6315212 99.1529971,47.1201763 C98.9493486,47.319982 98.9493486,47.6454389 99.1509191,47.8473045 C99.3524895,48.0491701 99.6828988,48.0512299 99.8865473,47.8514242 C108.512516,39.35041 116.544163,31.0368424 124.845956,22.8798237 C125.049604,22.680018 125.051682,22.3545611 124.850112,22.1526955 C124.648542,21.9508299 124.32021,21.9487701 124.116562,22.1485758" id="Fill-1652" fill="#000606"></path>
                            <path d="M124,27 C116.271614,34.7411981 108.744487,42.2688737 101,50" id="Fill-1653" fill="#FFFFFE"></path>
                            <path d="M123.140647,27.1472603 C115.414775,34.8863044 107.89211,42.4118854 100.14813,50.1388466 C99.9509598,50.3361993 99.9509598,50.6563939 100.146119,50.8517328 C100.343289,51.0490855 100.663189,51.0490855 100.858347,50.8537466 C108.602327,43.1247715 116.124992,35.5991906 123.852875,27.8581327 C124.050046,27.6627938 124.048034,27.3425992 123.852875,27.1472603 C123.655705,26.9499076 123.337817,26.9519214 123.142659,27.1472603" id="Fill-1654" fill="#000606"></path>
                            <path d="M124,31 C116.561136,38.4327084 109.10389,45.8899202 102,53" id="Fill-1655" fill="#FFFFFE"></path>
                            <path d="M123.168287,31.1434242 C116.057866,38.2463357 108.931831,45.3726634 102.143458,52.1672617 C101.952181,52.3584939 101.952181,52.6668071 102.143458,52.8580393 C102.334734,53.0473202 102.643119,53.0473202 102.834396,52.8580393 C109.622769,46.063441 116.748804,38.9371133 123.857273,31.8322505 C124.046598,31.6429696 124.04855,31.3327051 123.857273,31.1434242 C123.667948,30.9521919 123.357612,30.9521919 123.168287,31.1434242" id="Fill-1656" fill="#000606"></path>
                            <path d="M123,36 C116.285898,42.698895 109.593537,49.3898974 103,56" id="Fill-1657" fill="#FFFFFE"></path>
                            <path d="M123.15731,36.1431577 C116.437549,42.8488614 109.741518,49.5427175 103.144366,56.1575901 C102.950565,56.3510998 102.952542,56.6630848 103.146343,56.8565945 C103.338167,57.0481297 103.6526,57.0481297 103.846401,56.8546199 C110.441576,50.2397474 117.137606,43.5458912 123.85539,36.8421621 C124.047213,36.650627 124.049191,36.3366674 123.85539,36.1451323 C123.663566,35.9516226 123.349133,35.9516226 123.15731,36.1451323" id="Fill-1658" fill="#000606"></path>
                            <path d="M123,41 C116.709796,47.2710448 110.332006,53.564192 104,60" id="Fill-1659" fill="#FFFFFE"></path>
                            <path d="M123.15353,39.1448998 C116.861689,45.4126315 110.480249,51.7064787 104.144604,58.142957 C103.951468,58.3398281 103.951468,58.6592413 104.146595,58.8541035 C104.341722,59.0489657 104.658305,59.0489657 104.85144,58.8520946 C111.181112,52.421643 117.55857,46.1318135 123.852402,39.8580551 C124.047529,39.663193 124.04952,39.3457886 123.856384,39.1489175 C123.663248,38.9520465 123.348656,38.9500376 123.15353,39.1448998" id="Fill-1660" fill="#000606"></path>
                            <path d="M124,44 C117.656167,50.3131391 111.335433,56.6325454 105,63" id="Fill-1661" fill="#FFFFFE"></path>
                            <path d="M123.149421,44.1511262 C117.138664,50.4525682 111.149793,56.7581792 105.145005,63.1117336 C104.950018,63.3160146 104.952008,63.6453655 105.148984,63.8496465 C105.343971,64.0518429 105.658337,64.0497584 105.851333,63.8454775 C111.854132,57.491923 117.843003,51.1883965 123.85376,44.889039 C124.048747,44.6847581 124.048747,44.3554072 123.85376,44.1532107 C123.660763,43.9489298 123.344408,43.9489298 123.151411,44.1532107" id="Fill-1662" fill="#000606"></path>
                            <path d="M124,49 C118.287634,54.6817971 112.611033,60.3537265 107,66" id="Fill-1663" fill="#FFFFFE"></path>
                            <path d="M123.103892,49.1514068 C117.072149,55.1555183 111.076072,61.1471212 105.151327,67.1116222 C104.947821,67.3159288 104.949919,67.6474058 105.155523,67.8496276 C105.361127,68.0518494 105.694709,68.0497646 105.898214,67.8454581 C111.820861,61.880957 117.81484,55.8893541 123.846583,49.8894121 C124.052187,49.6851056 124.050089,49.3557133 123.846583,49.1514068 C123.640979,48.949185 123.309496,48.949185 123.10599,49.1534915" id="Fill-1664" fill="#000606"></path>
                            <path d="M123,54 C117.468869,59.2227979 112.041876,64.4841547 107,70" id="Fill-1665" fill="#FFFFFE"></path>
                            <path d="M123.167727,53.1336252 C117.627287,58.3712966 112.187154,63.6514722 107.126611,69.1944008 C106.9437,69.3933975 106.961401,69.6986547 107.16398,69.8763993 C107.366559,70.054144 107.677312,70.0386879 107.858256,69.8396912 C112.891264,64.3257427 118.315663,59.0610232 123.850202,53.8310798 C124.044914,53.6456071 124.050814,53.34035 123.862002,53.1471493 C123.675158,52.9558806 123.364405,52.9500845 123.167727,53.1355572" id="Fill-1666" fill="#000606"></path>
                            <path d="M124,58 C119.632152,62.345194 115.296001,66.6820158 111,71" id="Fill-1667" fill="#FFFFFE"></path>
                            <path d="M123.165286,57.1535948 C119.125829,61.4844703 115.113733,65.8090874 111.140722,70.1128428 C110.951158,70.3172868 110.953113,70.6469007 111.146584,70.8513447 C111.338102,71.0516164 111.646875,71.0495303 111.836438,70.8450862 C115.80945,66.5413308 119.817638,62.2187999 123.857094,57.8900105 C124.048611,57.6855665 124.046657,57.3559527 123.857094,57.1515086 C123.665576,56.9491508 123.356803,56.9491508 123.165286,57.1535948" id="Fill-1668" fill="#000606"></path>
                            <path d="M1.54345545,21 L1.33260511,20.9586957 C1.12827593,20.8717391 0.997853044,20.6717391 1,20.4521739 L1.05219591,15.4804348 C1.05436963,15.2152174 1.24783024,14.9913043 1.50867601,14.9478261 L7.36901097,14.0065217 L7.45595956,14 C7.65811503,14 7.84722821,14.1130435 7.94069795,14.2956522 C8.04720997,14.5065217 8.0080831,14.7608696 7.84070707,14.9282609 L1.92602924,20.8413043 L1.54345545,21" id="Fill-1669" fill="#FFFFFE"></path>
                            <path d="M7.05426958,14 L7.00162454,14.0018817 L6.88693358,14.0150538 L1.83677072,14.827957 C1.3836474,14.8994624 1.05085558,15.2870968 1.04521504,15.7462366 L1.00004481,20.0497312 C0.996330368,20.4317204 1.22383212,20.7798387 1.57354556,20.9266129 L1.94018061,21 C2.1827238,21 2.42338681,20.905914 2.60388407,20.7252688 L7.68224962,15.6427419 C7.87778832,15.4696237 8,15.2212366 8,14.9408602 C8,14.4215054 7.58260009,14 7.06367048,14 L7.05426958,14 Z M7.05426958,14.9408602 L1.94018061,20.0591398 L1.98530493,15.7556452 L7.05426958,14.9408602 L7.05426958,14.9408602 Z" id="Fill-1670" fill="#000606"></path>
                            <path d="M42.6412078,33 L42.50387,32.9817368 L38.3494034,31.802743 L38,31.4415366 L38.1312787,30.9565461 L63.7932395,5.17087678 L64.0699347,5.02680008 L70.4137265,4.0040585 L70.4945134,4 C70.682343,4 70.8580545,4.10349171 70.9449004,4.27597789 C71.0438644,4.47078581 71.0075103,4.71023721 70.8519955,4.86446015 L42.9986898,32.8518648 L42.6412078,33" id="Fill-1671" fill="#FFFFFE"></path>
                            <path d="M69.9870442,2 L69.9305447,2.00202826 L69.8114922,2.01419782 L63.489599,3.03441282 C63.2797436,3.06686499 63.086031,3.16624975 62.9346929,3.31836928 L37.2960161,29.0914745 C37.043786,29.3450071 36.942894,29.7161788 37.031679,30.0630113 C37.1224818,30.4118721 37.3908545,30.6877155 37.7359052,30.7830437 L41.8866024,31.9634913 L42.1590108,32 C42.4233479,32 42.6816314,31.8965587 42.8733262,31.703874 L70.6610029,3.77067135 C70.8708582,3.58407139 71,3.31431276 71,3.01413021 C71,2.45433034 70.5560752,2 69.9971334,2 L69.9870442,2 Z M69.9870442,3.01413021 L42.1590108,30.9858698 L38.0103315,29.8074505 L63.6490084,4.03434521 L69.9870442,3.01413021 L69.9870442,3.01413021 Z" id="Fill-1672" fill="#000606"></path>
                            <path d="M34.5407708,30 L34.4064051,29.9821812 L30.3438182,28.8318759 L30,28.4794588 L30.1304138,28.0062696 L50.9531477,7.14238574 L51.2238551,7.00379475 L57.4264136,6.00593961 L57.5054523,6 C57.6892172,6 57.8611262,6.10295331 57.9460928,6.2692625 C58.0429152,6.46131001 58.0073478,6.69295496 57.8551984,6.84540505 L34.8905168,29.8554694 L34.5407708,30" id="Fill-1673" fill="#FFFFFE"></path>
                            <path d="M57.0063621,4 L56.9510502,4.0020599 L56.8305494,4.01647916 L50.6474745,5.05054666 C50.4420305,5.08556489 50.2523899,5.18649976 50.1062085,5.33893202 L29.289198,27.04611 C29.0402946,27.3035969 28.9434989,27.6805578 29.0323929,28.0327999 C29.121287,28.3871019 29.3820428,28.6651878 29.7198402,28.7640627 L33.7793351,29.960862 L34.0479927,30 C34.3067731,30 34.5596273,29.8949453 34.7472925,29.6971954 L57.6661535,5.7982887 C57.8715975,5.60877832 58,5.33481223 58,5.02994771 C58,4.45935668 57.561456,4 57.0162392,4 L57.0063621,4 Z M57.0063621,5.02994771 L34.0479927,28.9700523 L29.9865224,27.7732531 L50.8055084,6.068135 L57.0063621,5.02994771 L57.0063621,5.02994771 Z" id="Fill-1674" fill="#000606"></path>
                            <path d="M50.5464937,35 L50.4099802,34.9817545 L46.3442515,33.8039071 L46,33.4450792 L46.1285997,32.958533 L75.5581446,2.80077405 L75.8291932,2.65886473 L79.8296329,2 L81.6023302,2.24327313 C81.7883051,2.27368227 81.9426248,2.40545522 82,2.58588279 L81.8812926,3.10486546 L50.8966806,34.8520088 L50.5464937,35" id="Fill-1675" fill="#FFFFFE"></path>
                            <path d="M79.3910881,1 L79.2329354,1.01418271 L75.2376032,1.67063941 C75.0320047,1.70508313 74.8422215,1.80233598 74.6959303,1.95429355 L45.2894154,32.0945712 C45.0403249,32.34986 44.9434564,32.7186103 45.0324173,33.0670997 C45.1213782,33.413563 45.3803532,33.6891127 45.7184046,33.7863655 L49.7829286,34.9615041 L50.0517881,35 C50.3107631,35 50.5638074,34.8966689 50.7496368,34.7041893 L81.7100019,2.97544842 C81.9749076,2.7039509 82.0678223,2.30278291 81.9492078,1.94011084 C81.8325702,1.57743877 81.5261494,1.31201955 81.1564675,1.25528872 L79.5354024,1.01215661 L79.3910881,1 Z M79.3910881,2.01305047 L81.0121531,2.25820869 L50.0517881,33.9869495 L45.9872641,32.811811 L75.393779,2.67153328 L79.3910881,2.01305047 L79.3910881,2.01305047 Z" id="Fill-1676" fill="#000606"></path>
                            <path d="M54.6096979,36 L54.4732332,35.9817204 L50.3471823,34.8037037 L50,34.4421744 L50.1304442,33.9547192 L81.5594728,2.14826762 L81.9146824,2 L86.5966263,2.69259259 C86.7852688,2.72102748 86.9418018,2.85304659 87,3.03584229 L86.87959,3.55376344 L54.9649075,35.8517324 L54.6096979,36" id="Fill-1677" fill="#FFFFFE"></path>
                            <path d="M81.3943388,1 C81.1297594,1 80.8752019,1.10556845 80.6847849,1.29843387 L49.2940428,33.0907773 C49.0434942,33.3445476 48.9432747,33.7160673 49.0314678,34.0632251 C49.1216654,34.412413 49.3882491,34.6864849 49.7309997,34.7859629 L53.8520243,35.9634571 L54.1226169,36 C54.3851919,36 54.6417537,35.8964617 54.8321707,35.7035963 L86.7059706,3.4199536 C86.9745588,3.14791183 87.0687651,2.74796984 86.9485017,2.3825406 C86.8302428,2.01914153 86.5195624,1.75319026 86.1447416,1.69837587 L81.5406592,1.01015081 L81.3943388,1 Z M81.3943388,2.01508121 L85.9984212,2.7012761 L54.1226169,34.9849188 L50.0035967,33.8074246 L81.3943388,2.01508121 L81.3943388,2.01508121 Z" id="Fill-1678" fill="#000606"></path>
                            <path d="M46.6162372,34 L46.4796384,33.9798387 L42.3495323,32.8104839 L42,32.4516129 L42.1325812,31.9677419 L69.8360309,4.16330645 L70.1092286,4.02016129 L76.4168808,3.00604839 L76.497233,3 C76.684052,3 76.8588182,3.10282258 76.9451969,3.27419355 C77.0436284,3.46975806 77.0074699,3.70564516 76.8527918,3.85887097 L46.9717959,33.8508065 L46.6162372,34" id="Fill-1679" fill="#FFFFFE"></path>
                            <path d="M75.9902808,3 L75.9340738,3.00195263 L75.8116228,3.01366843 L69.5284797,3.99584278 C69.3197107,4.02903754 69.1270009,4.12471655 68.9784537,4.26921139 L41.2944836,31.1999244 C41.0435594,31.4440035 40.9431897,31.8013353 41.031515,32.1352356 C41.1218477,32.4710884 41.3888311,32.7346939 41.7320955,32.8284203 L45.8572901,33.9629 L46.1302957,34 C46.3932643,34 46.6502107,33.8984631 46.8409131,33.712963 L76.6607504,4.70464853 C76.8695194,4.5250063 77,4.26530612 77,3.97631645 C77,3.43738977 76.5543585,3 76.0003178,3 L75.9902808,3 Z M75.9902808,3.97631645 L46.1302957,33.0236835 L42.0030937,31.8892038 L69.6870638,4.96044344 L75.9902808,3.97631645 L75.9902808,3.97631645 Z" id="Fill-1680" fill="#000606"></path>
                            <path d="M29.7396,29 L29.5992897,28.9820603 L25.356966,27.8259491 L25,27.4711425 L25.1341202,26.9927517 L44.6372544,8.15013138 L44.9199384,8.01060071 L51.4031004,7.00597989 L51.4856359,7 C51.6754675,7 51.8549822,7.10365135 51.9437078,7.27108816 C52.0448138,7.4644378 52.0076728,7.69765335 51.848792,7.85113708 L30.1048195,28.8544894 L29.7396,29" id="Fill-1681" fill="#FFFFFE"></path>
                            <path d="M51.0031404,6 L50.9455529,6.00199359 L50.8283921,6.01594869 L44.6069558,7.01672879 C44.4004351,7.05061975 44.2098006,7.14830545 44.0608674,7.29583081 L25.2913123,26.1411979 C25.0430903,26.3923897 24.9438015,26.7552223 25.0311756,27.0981191 C25.1205355,27.4410159 25.3846437,27.71015 25.7242115,27.8058421 L29.806967,28.9621219 L30.0750468,29 C30.3351834,29 30.5893627,28.8983271 30.7780115,28.7089365 L51.6663896,7.74040045 C51.8709246,7.55699055 52,7.29184363 52,6.99679293 C52,6.44456965 51.5611435,6 51.0110835,6 L51.0031404,6 Z M51.0031404,6.99679293 L30.0750468,28.0032071 L25.994277,26.8469273 L44.7638321,8.0015602 L51.0031404,6.99679293 L51.0031404,6.99679293 Z" id="Fill-1682" fill="#000606"></path>
                            <path d="M38.5212594,32 L38.3855627,31.9816007 L34.3421919,30.7958658 L34,30.4319679 L34.1278303,29.941319 L56.9838883,6.1816461 L57.2533152,6.03854017 L63.4304687,5.00613311 L63.5091335,5 C63.6920292,5 63.8631251,5.10630726 63.9457232,5.28007875 C64.0420875,5.47633831 64.008655,5.71757401 63.8572253,5.87294616 L38.8693512,31.850761 L38.5212594,32" id="Fill-1683" fill="#FFFFFE"></path>
                            <path d="M64.0109541,3 L63.9578642,3.00204275 L63.835954,3.01634202 L57.6794875,4.04384621 C57.4769592,4.07857299 57.2862287,4.17866783 57.1407229,4.32983147 L34.2884543,28.0706938 C34.0426675,28.3280805 33.9443528,28.7019041 34.0308698,29.0512147 C34.119353,29.402568 34.3808701,29.6783395 34.7151401,29.7763916 L38.7598068,30.9611877 L39.0272228,31 C39.2848073,31 39.5364929,30.8958197 39.7213245,30.7017582 L64.6676963,4.78536514 C64.8702246,4.59743197 65,4.32370322 65,4.02137594 C65,3.45757642 64.5634827,3 64.0207856,3 L64.0109541,3 Z M64.0109541,4.02137594 L39.0272228,29.9786241 L34.982556,28.793828 L57.8348247,5.05296564 L64.0109541,4.02137594 L64.0109541,4.02137594 Z" id="Fill-1684" fill="#000606"></path>
                            <path d="M9.49807309,23 L9.36497084,22.9786287 L5.34058517,21.7390917 L5,21.3586821 L5.12918748,20.8457703 L13.0174532,12.2331256 L13.2856151,12.0835263 L19.4318072,11.0064114 L19.5101026,11 C19.6921395,11 19.8624321,11.1111309 19.9465997,11.2927872 C20.0425116,11.4979519 20.0072787,11.7479964 19.8565599,11.9125557 L9.84453042,22.8418522 L9.49807309,23" id="Fill-1685" fill="#FFFFFE"></path>
                            <path d="M20.0153785,10 L19.9546961,10.0021259 L19.8450762,10.0170074 L13.7141926,11.0863451 C13.5106128,11.1203598 13.322693,11.2245298 13.1758807,11.3839738 L5.2871639,19.949305 C5.04247665,20.2171709 4.94460175,20.6062142 5.03073166,20.9697465 C5.11881907,21.3354047 5.3791663,21.6224039 5.71389845,21.7244481 L9.73655675,22.9574816 L10.0027765,23 C10.2592087,23 10.5097684,22.8894522 10.6957308,22.6874898 L20.6691828,11.855928 C20.8727626,11.6624693 21,11.379722 21,11.0629599 C21,10.4762061 20.567393,10 20.025166,10 L20.0153785,10 Z M20.0153785,11.0629599 L10.0027765,21.9370401 L5.98011817,20.7018806 L13.8688349,12.1344235 L20.0153785,11.0629599 L20.0153785,11.0629599 Z" id="Fill-1686" fill="#000606"></path>
                            <path d="M14.467506,24 L14.3353658,23.9811912 L10.3381236,22.7669801 L10,22.3970742 L10.1263105,21.8955068 L20.0679203,11.2079415 L20.3322008,11.0595611 L26.4359139,10.0062696 L26.5136434,10 C26.6943646,10 26.8634264,10.1086729 26.9469857,10.2842215 C27.0422044,10.4869383 27.0072261,10.7314525 26.8575967,10.892372 L14.8114593,23.8474399 L14.467506,24" id="Fill-1687" fill="#FFFFFE"></path>
                            <path d="M25.967748,10 L25.914391,10 L25.785103,10.0155577 L19.3596933,10.9937491 C19.1483176,11.0248646 18.9492551,11.1221003 18.797393,11.2660092 L8.30043658,21.2112793 C8.04186052,21.4563134 7.94130317,21.8102514 8.03365176,22.1447423 C8.12600035,22.4772885 8.39688955,22.7417697 8.745762,22.835116 L12.9671187,23.9630504 L13.2462166,24 C13.5150536,24 13.7777341,23.9008196 13.97064,23.7160717 L26.6531797,11.6977358 C26.8666076,11.5188221 27,11.260175 27,10.9723573 C27,10.4356161 26.5444136,10 25.9780089,10 L25.967748,10 Z M25.967748,10.9723573 L13.2462166,23.0276427 L9.02485996,21.8997083 L19.5218164,11.9524934 L25.967748,10.9723573 L25.967748,10.9723573 Z" id="Fill-1688" fill="#000606"></path>
                            <path d="M59.55345,37 L59.4187677,36.981982 L55.3446282,35.8188188 L55,35.4624625 L55.1307211,34.983984 L86.6265725,3.14814815 L86.9771426,3 L91.601895,3.68468468 C91.7860928,3.71271271 91.942562,3.84284284 92,4.02302302 L91.8791821,4.53353353 L59.9040201,36.8538539 L59.55345,37" id="Fill-1689" fill="#FFFFFE"></path>
                            <path d="M86.4612353,2 C86.2000001,2 85.9486602,2.10610307 85.7606501,2.29428588 L54.2897295,34.1292112 C54.0403687,34.3794543 53.943395,34.7458102 54.0324525,35.0881428 C54.1215099,35.4324773 54.3827451,35.7027398 54.7211633,35.7988332 L58.7900989,36.961963 L59.0592502,37 C59.3185063,37 59.5718253,36.8979008 59.7598354,36.7077161 L91.7096871,4.38832008 C91.9748804,4.12005949 92.0678959,3.72567637 91.9491527,3.36532632 C91.8323885,3.00697821 91.523656,2.74472345 91.1555519,2.69067094 L86.6057062,2.01201167 L86.4612353,2 Z M86.4612353,3.00097237 L91.011081,3.67963164 L59.0592502,35.9990276 L54.9883357,34.8358977 L86.4612353,3.00097237 L86.4612353,3.00097237 Z" id="Fill-1690" fill="#000606"></path>
                            <path d="M25.5960606,28 L25.4580588,27.981915 L21.3480046,26.8124184 L21,26.4567467 L21.1300017,25.9744801 L37.8662223,9.15944941 L38.1382259,9.01878831 L44.4203087,8.00602833 L44.5003098,8 C44.6863122,8 44.8603145,8.10248166 44.9463156,8.27328444 C45.0423169,8.46820054 45.0083165,8.70330554 44.8543144,8.85602331 L25.9500652,27.8533106 L25.5960606,28" id="Fill-1691" fill="#FFFFFE"></path>
                            <path d="M45.9546296,7 L45.8902032,7.00200899 L45.7717417,7.01406295 L39.2625963,8.02458624 C39.0485343,8.05873912 38.846942,8.15717976 38.6931499,8.30584521 L21.3042547,25.1170956 C21.0423925,25.3702286 20.9405572,25.7358653 21.0340794,26.081412 C21.1276016,26.4269588 21.4019334,26.6981728 21.7552395,26.7946044 L26.0281652,27.9618291 L26.31081,28 C26.5830636,28 26.8490823,27.8975414 27.0444398,27.7046781 L46.6487722,8.75385057 C46.8628341,8.56902325 47,8.30182723 47,8.00449632 C47,7.45001435 46.5386238,7 45.9650209,7 L45.9546296,7 Z M45.9546296,8.00449632 L26.31081,26.9955037 L22.0378844,25.828279 L39.4267797,9.0170286 L45.9546296,8.00449632 L45.9546296,8.00449632 Z" id="Fill-1692" fill="#000606"></path>
                            <path d="M21.6332627,27 L21.4982351,26.98083 L17.3526842,25.8689671 L17,25.5296572 L17.1330123,25.069576 L31.8127365,11.1061119 L32.0888378,10.9719215 L38.4149847,10.005751 L38.4955982,10 C38.6830247,10 38.8583591,10.0977673 38.9450187,10.2607127 C39.0437703,10.4447452 39.0074942,10.6709517 38.8523131,10.8166441 L21.9899776,26.8581416 L21.6332627,27" id="Fill-1693" fill="#FFFFFE"></path>
                            <path d="M37.9875199,8 L37.9311592,8.00202818 L37.8083734,8.01419727 L31.5100631,9.03437233 C31.2987104,9.06885141 31.1054736,9.16823228 30.9565203,9.31831768 L16.294682,24.0915884 C16.0410587,24.3471392 15.9424275,24.7162681 16.0330072,25.0651153 C16.1235869,25.4139624 16.3892874,25.6877669 16.7334904,25.7851196 L20.8719775,26.9614646 L21.1457295,27 C21.4094172,27 21.6670662,26.8945346 21.85829,26.7018574 L38.6598228,9.77060205 C38.8691626,9.58400939 39,9.31426132 39,9.01409052 C39,8.45431255 38.5551529,8 37.9975844,8 L37.9875199,8 Z M37.9875199,9.01409052 L21.1457295,25.9859095 L17.0072425,24.8095645 L31.6690808,10.0362938 L37.9875199,9.01409052 L37.9875199,9.01409052 Z" id="Fill-1694" fill="#000606"></path>
                            <path d="M17.6763069,24 L17.5359567,23.9807297 L13.3539267,22.8630524 L13,22.5200411 L13.132214,22.057554 L25.7413599,10.1118962 L26.0200263,9.97700411 L32.4110469,9.00578109 L32.4924094,9 C32.679543,9 32.8565063,9.10020555 32.943971,9.26207605 C33.04364,9.44899794 33.0090609,9.67446043 32.8504041,9.82284173 L18.0343017,23.8573998 L17.6763069,24" id="Fill-1695" fill="#FFFFFE"></path>
                            <path d="M32.9807579,9 L32.9218774,9.00193143 L32.802086,9.01545147 L26.4409596,9.98503139 C26.2298018,10.0178658 26.034887,10.112506 25.8846402,10.2554322 L13.2963913,22.2303235 C13.0405656,22.4717528 12.9431082,22.8252052 13.0324441,23.1554804 C13.1238104,23.4876871 13.3918183,23.7484307 13.7390104,23.8411395 L17.9154665,24.9633028 L18.1915958,25 C18.455543,25 18.7154294,24.8995654 18.9083139,24.7160792 L33.6588991,10.686142 C33.8680264,10.50845 34,10.2515693 34,9.96571704 C34,9.43264124 33.5512898,9 32.9909097,9 L32.9807579,9 Z M32.9807579,9.96571704 L18.1915958,24.034283 L14.0151397,22.9121197 L26.6013582,10.9391598 L32.9807579,9.96571704 L32.9807579,9.96571704 Z" id="Fill-1696" fill="#000606"></path>
                            <path d="M5.25735301,22 L5.11639526,21.9821192 L1.36977918,20.9529801 C1.14914966,20.8913907 0.997977588,20.6927152 1,20.4682119 L1.00614905,19.8980132 L1.15527826,19.5523179 L6.71187353,14.1463576 L6.99174616,14.0072848 L13.408388,13.0059603 L13.4901026,13 C13.6800891,13 13.8578185,13.1033113 13.9436188,13.2701987 C14.0437193,13.4629139 14.0089906,13.6953642 13.8516899,13.8483444 L5.61689741,21.8549669 L5.25735301,22" id="Fill-1697" fill="#FFFFFE"></path>
                            <path d="M12.9745217,12 L12.9113213,12.0019881 L12.795114,12.0159046 L6.40982976,13.0139165 C6.19984117,13.0477137 6.00208492,13.1451292 5.85121933,13.2942346 L0.303850745,18.7017893 C0.114249393,18.8846918 0.00619701004,19.1351889 0.00619701004,19.3936382 L4.00144675e-05,19.9662028 C-0.00399661102,20.415507 0.297734572,20.8111332 0.742176451,20.9324056 L4.48119665,21.9622266 L4.75846315,22 C5.0234973,22 5.28445399,21.8986083 5.47813279,21.7077535 L13.6554556,13.7355865 C13.8654442,13.5526839 14,13.2902584 14,12.9940358 C14,12.445328 13.5474032,12 12.9847153,12 L12.9745217,12 Z M12.9745217,12.9940358 L4.75846315,21.0059642 L1.01944294,19.9761431 L1.02555912,19.4035785 L6.57088897,13.9960239 L12.9745217,12.9940358 L12.9745217,12.9940358 Z" id="Fill-1698" fill="#000606"></path>
                            <path d="M117.512158,25 L117.064942,24.7444347 C116.954164,24.5472268 116.986987,24.3017231 117.149052,24.1427493 L132.434413,9.14689976 L132.79752,9 L137.587658,9.68620299 C137.780495,9.71437555 137.940508,9.84517671 138,10.026286 L137.876913,10.539429 L125.026624,23.1426236 L124.786604,23.2754371 L117.635245,24.9859137 L117.512158,25" id="Fill-1699" fill="#FFFFFE"></path>
                            <path d="M132.27164,10 C132.0015,10 131.741593,10.1025914 131.54922,10.2936931 L116.300629,25.2841084 C115.975233,25.6019406 115.905651,26.0947817 116.132814,26.487043 C116.314954,26.81091 116.658769,27 117.023049,27 L117.264538,26.9718377 L124.400739,25.2639924 L124.881671,24.9964501 L137.701047,12.3978227 C137.973234,12.1282688 138.06942,11.7319844 137.948676,11.3698971 C137.825885,11.0098213 137.508675,10.7463022 137.125976,10.6919891 L132.421036,10.010058 L132.27164,10 Z M132.27164,11.0057981 L136.976581,11.6877293 L124.157204,24.2863566 L117.023049,25.9942019 L132.27164,11.0057981 L132.27164,11.0057981 Z" id="Fill-1700" fill="#000606"></path>
                            <path d="M110.503462,28 L110.064603,27.7359667 C109.953882,27.5322245 109.988105,27.2785863 110.14714,27.1143451 L127.540437,9.15384615 L127.894745,9 L132.593351,9.70893971 C132.782584,9.73804574 132.939607,9.87318087 133,10.0602911 L132.8772,10.5904366 L117.877495,26.0831601 L117.64196,26.2203742 L110.622235,27.985447 L110.503462,28" id="Fill-1701" fill="#FFFFFE"></path>
                            <path d="M127.37416,8 C127.110786,8 126.855455,8.10996991 126.664459,8.30501089 L109.293896,26.2301069 C108.97624,26.5600166 108.907884,27.0662932 109.129037,27.4729744 C109.30998,27.804959 109.647741,28 110.005607,28 L110.242844,27.9709513 L117.251384,26.2093578 L117.725857,25.9354705 L132.705957,10.4732856 C132.975362,10.1952485 133.067844,9.78649237 132.949226,9.41300965 C132.828597,9.04160183 132.516972,8.7697894 132.141012,8.71376699 L127.520925,8.01244942 L127.37416,8 Z M127.37416,9.03745202 L131.994247,9.74084449 L117.014147,25.2009545 L110.005607,26.962548 L127.37416,9.03745202 L127.37416,9.03745202 Z" id="Fill-1702" fill="#000606"></path>
                            <path d="M124.523122,24 L124.067395,23.7350288 C123.951888,23.5342304 123.98759,23.2796096 124.1535,23.1160727 L137.306568,10.1511164 L137.678289,10 L142.577875,10.7038297 C142.775287,10.7328109 142.939096,10.8673666 143,11.0536744 L142.873993,11.5836167 L132.215871,22.0893095 L131.970156,22.2259352 L124.649129,23.9834393 L124.523122,24" id="Fill-1703" fill="#FFFFFE"></path>
                            <path d="M137.441389,9 C137.179065,9 136.926677,9.10532838 136.73987,9.30152829 L124.291372,22.236266 C123.977378,22.5646427 123.907822,23.070632 124.128413,23.4733581 C124.307271,23.8038001 124.641139,24 124.992892,24 L125.229382,23.9710863 L132.157137,22.2156134 L132.624155,21.9429988 L142.707756,11.4597274 C142.974055,11.1850475 143.067458,10.7761256 142.950207,10.4064436 C142.830969,10.0346964 142.522936,9.76621231 142.151309,9.70838496 L137.586463,9.01032631 L137.441389,9 Z M137.441389,10.0326311 L142.006236,10.7306898 L131.922635,21.2139612 L124.992892,22.9673689 L137.441389,10.0326311 L137.441389,10.0326311 Z" id="Fill-1704" fill="#000606"></path>
                            <path d="M138.510091,21 L138.06468,20.7395169 C137.954349,20.5385141 137.987039,20.2882862 138.14845,20.1262534 L146.092302,12.1517776 L146.453943,12 L150.49738,12.592753 C150.732345,12.6276208 150.912144,12.8204193 150.932575,13.0562899 L151,13.8213309 L150.852892,14.2294895 L145.992186,19.1089335 L145.753135,19.2443026 L138.632682,20.9856427 L138.510091,21" id="Fill-1705" fill="#FFFFFE"></path>
                            <path d="M145.949893,12 C145.680656,12 145.421617,12.0957447 145.227847,12.2706628 L137.299624,19.429419 C136.975315,19.7221768 136.905966,20.1714403 137.13237,20.5323241 C137.313902,20.8269231 137.656567,21 138.01963,21 L138.260312,20.9742226 L145.370625,19.4110065 L145.849949,19.1679624 L150.70234,14.7876432 C150.914466,14.5943126 151.022569,14.325491 150.996053,14.0548282 L150.928744,13.3662029 C150.88795,12.9427169 150.528967,12.6002455 150.061881,12.5376432 L146.098789,12.0110475 L145.949893,12 Z M145.949893,12.9206219 L149.912985,13.4490589 L149.980294,14.1358429 L145.127903,18.516162 L138.01963,20.0793781 L145.949893,12.9206219 L145.949893,12.9206219 Z" id="Fill-1706" fill="#000606"></path>
                            <path d="M62.6169538,38 L62.4783849,37.9817126 L58.3494345,36.8011611 L58,36.4394775 L58.1305359,35.9538462 L90.5536413,3.15036284 L90.9091005,3 L95.5963429,3.69288824 C95.7831096,3.72133527 95.9397527,3.85341074 96,4.03628447 L95.8774971,4.55442671 L62.9704048,37.8516691 L62.6169538,38" id="Fill-1707" fill="#FFFFFE"></path>
                            <path d="M90.3879484,2 C90.123162,2 89.8684055,2.10764457 89.6778396,2.29856135 L57.293668,35.0875035 C57.0409174,35.3413822 56.9426255,35.7130606 57.0328936,36.0603667 C57.1231617,36.4097038 57.3859421,36.6838928 57.7289607,36.7834133 L61.8552145,37.9614104 L62.1280247,38 C62.390805,38 62.6455616,37.8964175 62.8361275,37.7014386 L95.7057407,4.42098731 C95.9745389,4.14882934 96.0688189,3.7487165 95.9484615,3.38313117 C95.828104,3.01957687 95.5171807,2.75351199 95.1420667,2.69867419 L90.5343832,2.01218618 L90.3879484,2 Z M90.3879484,3.01551481 L94.9956318,3.70403385 L62.1280247,36.9844852 L58.0017709,35.804457 L90.3879484,3.01551481 L90.3879484,3.01551481 Z" id="Fill-1708" fill="#000606"></path>
                            <path d="M145.492937,19 L145.063506,18.7353248 C144.954664,18.5310872 144.988306,18.2768322 145.144643,18.1121917 L149.852544,13.1542202 L150.200838,13 L150.371027,13.0333449 C150.55111,13.1021188 150.677763,13.2750955 150.693594,13.477249 L150.998351,17.1472734 C151.018141,17.4036124 150.857846,17.6391108 150.622352,17.6974644 L145.611673,18.9854116 L145.492937,19" id="Fill-1709" fill="#FFFFFE"></path>
                            <path d="M149.704283,13 C149.44666,13 149.194983,13.1056526 149.004739,13.304528 L144.290248,18.2329091 C143.975156,18.5622965 143.90976,19.0677715 144.127748,19.4717372 C144.306102,19.8052678 144.63903,20 144.989792,20 L145.225616,19.9709973 L150.243308,18.6907369 C150.718919,18.570583 151.037974,18.1044688 150.996358,17.5948505 L150.691175,13.9467298 C150.659468,13.5469074 150.405809,13.200947 150.043155,13.0642202 L149.704283,13 Z M149.704283,14.0358094 L150.009466,17.6860018 L144.989792,18.9641906 L149.704283,14.0358094 L149.704283,14.0358094 Z" id="Fill-1710" fill="#000606"></path>
                            <path d="M103.513464,29 L103.066151,28.7397618 C102.952777,28.540517 102.98782,28.2924775 103.150666,28.1318617 L123.409618,8.15045019 L123.774477,8 L128.585669,8.69532385 C128.777374,8.72378739 128.938159,8.85593959 129,9.03891955 L128.874258,9.55736277 L111.06419,27.1214058 L110.823012,27.2555911 L103.637145,28.9837351 L103.513464,29" id="Fill-1711" fill="#FFFFFE"></path>
                            <path d="M123.245253,7 C122.973734,7 122.7125,7.10767384 122.517089,7.29864253 L102.30127,27.2650291 C101.974213,27.5880506 101.906333,28.0837566 102.132599,28.4819466 C102.317726,28.8069997 102.663295,29 103.027377,29 L103.272156,28.9695263 L110.442724,27.2426817 L110.92611,26.9745129 L128.698259,9.42367716 C128.973892,9.15144519 129.070569,8.75122357 128.947151,8.38553883 C128.823733,8.02188568 128.504904,7.75574845 128.122309,7.70089574 L123.395412,7.01218949 L123.245253,7 Z M123.245253,8.01579093 L127.970094,8.70449718 L110.200003,26.2553329 L103.027377,27.9842091 L123.245253,8.01579093 L123.245253,8.01579093 Z" id="Fill-1712" fill="#000606"></path>
                            <path d="M131.509085,22 L131.065324,21.7245337 C130.953366,21.5136298 130.987972,21.251076 131.148784,21.0810617 L141.477418,10.1571019 L141.837719,10 L146.590844,10.7338594 C146.782191,10.7639885 146.940968,10.9038737 147,11.097561 L146.877864,11.6463415 L138.963452,20.0136298 L138.725287,20.1556671 L131.629186,21.9827834 L131.509085,22" id="Fill-1713" fill="#FFFFFE"></path>
                            <path d="M141.652066,10 C141.399832,10 141.157151,10.1026991 140.975619,10.2883476 L131.279873,20.3133641 C130.976044,20.6273864 130.912986,21.1092824 131.123181,21.4963792 C131.295159,21.8123766 131.616185,22 131.95632,22 L132.181802,21.9703752 L138.841179,20.2936142 L139.292144,20.0329164 L146.719689,12.3541804 C146.975746,12.0895326 147.065557,11.7004608 146.950905,11.3449638 C146.838163,10.9914417 146.541979,10.7327189 146.184646,10.6793943 L141.79156,10.0098749 L141.652066,10 Z M141.652066,10.9874918 L146.045153,11.6550362 L138.615696,19.3337722 L131.95632,21.0125082 L141.652066,10.9874918 L141.652066,10.9874918 Z" id="Fill-1714" fill="#000606"></path>
                            <path d="M69.4987776,37 L69.0640018,36.742346 C68.9543107,36.5435264 68.9882152,36.2939875 69.1457716,36.1337145 L100.593224,4.14810033 L100.944236,4 L105.599129,4.68978237 C105.786601,4.72021394 105.942163,4.85005533 106,5.03264478 L105.880337,5.55201033 L76.8042075,35.1294725 L76.5708645,35.2633714 L69.6164463,36.9857986 L69.4987776,37" id="Fill-1715" fill="#FFFFFE"></path>
                            <path d="M100.422998,5 C100.159902,5 99.9087646,5.1034236 99.7194149,5.29607539 L68.2913633,37.2701897 C67.976445,37.5906 67.9086778,38.0874389 68.1279247,38.482882 C68.3073086,38.8073482 68.6421584,39 68.9969398,39 L69.232132,38.9716092 L76.1802667,37.2499105 L76.650651,36.9822259 L105.708843,7.41524514 C105.973932,7.14553263 106.06761,6.74400573 105.950014,6.38100919 C105.830425,6.01598473 105.521486,5.75235596 105.146773,5.69557438 L100.570492,5.01013957 L100.422998,5 Z M100.422998,6.01395682 L105.003266,6.69939163 L75.9450745,36.2643445 L68.9969398,37.9860432 L100.422998,6.01395682 L100.422998,6.01395682 Z" id="Fill-1716" fill="#000606"></path>
                            <path d="M96.5065256,30 L96.0642278,29.7463309 C95.9546678,29.5505862 95.98713,29.306904 96.1474123,29.1471125 L118.497653,7.14580981 L118.856766,7 L123.592193,7.68111159 C123.78088,7.70907512 123.941162,7.83890578 124,8.0186713 L123.876238,8.52800695 L103.936317,28.1584021 L103.698937,28.2902301 L96.6282589,29.9860182 L96.5065256,30" id="Fill-1717" fill="#FFFFFE"></path>
                            <path d="M118.331744,7 C118.064306,7 117.806998,7.10387016 117.614524,7.29363296 L95.2976216,29.2961298 C94.9754802,29.6117353 94.9065947,30.1011236 95.1314858,30.4906367 C95.311804,30.8102372 95.6521798,31 96.0128161,31 L96.2518895,30.972035 L103.314688,29.2761548 L103.790809,29.0124844 L123.702794,9.38102372 C123.974284,9.1133583 124.069508,8.71985019 123.947945,8.36029963 C123.828409,8.00274657 123.512345,7.74107366 123.135501,7.68714107 L118.47762,7.00998752 L118.331744,7 Z M118.331744,7.99875156 L122.987599,8.67390762 L103.073588,28.3073658 L96.0128161,30.0012484 L118.331744,7.99875156 L118.331744,7.99875156 Z" id="Fill-1718" fill="#000606"></path>
                            <path d="M65.0999843,38 L64.9651412,37.9815972 L63.3430569,37.5092598 L63,37.1452942 L63.1288942,36.654554 L95.6221364,3.14926681 L95.9711423,3 L100.599436,3.69726003 C100.785837,3.72588655 100.94051,3.85879535 101,4.04282292 L100.879038,4.56423439 L69.6112822,36.8038208 L69.3792726,36.9387743 L65.2189636,37.9856867 L65.0999843,38" id="Fill-1719" fill="#FFFFFE"></path>
                            <path d="M95.4557071,3 C95.1961516,3 94.9445215,3.10132259 94.7562942,3.29006074 L62.2900641,35.8444116 C62.0404153,36.094738 61.9433297,36.4563206 62.0324899,36.798036 C62.1216502,37.1397514 62.383187,37.4079582 62.7219961,37.5033207 L64.3407505,37.9622524 L64.6102127,38 L64.8440108,37.972186 L69.0028425,36.9549867 L69.4684573,36.69274 L100.71022,5.36816711 C100.975719,5.10194698 101.066861,4.71056366 100.949962,4.35295453 C100.831081,3.99733212 100.523974,3.73707215 100.155445,3.68343078 L95.6023262,3.00993359 L95.4557071,3 Z M95.4557071,3.99335869 L100.008825,4.66685588 L68.7690445,35.989442 L64.6102127,37.0066413 L62.9914583,36.5477096 L95.4557071,3.99335869 L95.4557071,3.99335869 Z" id="Fill-1720" fill="#000606"></path>
                            <path d="M75.503234,36 L75.0638104,35.7473307 C74.9549624,35.5523576 74.9872137,35.3076464 75.1464543,35.1504742 L104.53341,6.1452351 L104.890189,6 L109.594843,6.67842695 C109.78432,6.70628026 109.941545,6.83559918 110,7.01465614 L109.879058,7.52198422 L82.8867594,34.1656609 L82.650922,34.2969693 L75.6241763,35.9860733 L75.503234,36" id="Fill-1721" fill="#FFFFFE"></path>
                            <path d="M104.365402,5 C104.099589,5 103.843844,5.10347262 103.654553,5.29051929 L74.2962645,34.3006611 C73.9760801,34.6170486 73.907613,35.1045638 74.1291242,35.4925862 C74.3103606,35.8109635 74.6486686,36 75.007114,36 L75.2447351,35.972142 L82.26664,34.2827524 L82.7398684,34.0181013 L109.705836,7.37191091 C109.973663,7.10526991 110.068309,6.71326786 109.949498,6.35509339 C109.828674,5.99890879 109.516544,5.73823737 109.139975,5.6845112 L104.510391,5.00994929 L104.365402,5 Z M104.365402,5.99492907 L108.992972,6.66750112 L82.0270051,33.3156814 L75.007114,35.0050709 L104.365402,5.99492907 L104.365402,5.99492907 Z" id="Fill-1722" fill="#000606"></path>
                            <path d="M90.5005461,33 L90.0642288,32.7400614 C89.9541487,32.5394789 89.9881734,32.2897741 90.1462884,32.12808 L114.570051,7.14941352 L114.924309,7 L119.597707,7.69794537 C119.785844,7.72864678 119.941958,7.86168622 120,8.04384791 L119.877911,8.56781863 L97.8318779,31.1128867 L97.5977076,31.2479729 L90.618632,32.9856727 L90.5005461,33" id="Fill-1723" fill="#FFFFFE"></path>
                            <path d="M113.403291,6 C113.139323,6 112.885354,6.10633947 112.695377,6.3006135 L88.2923287,31.2556237 C87.976367,31.5787321 87.9083752,32.0797546 88.1283486,32.4785276 C88.3083268,32.807771 88.6442862,33 89.0002431,33 L89.2362146,32.9713701 L96.2073714,31.2351738 L96.6793143,30.9652352 L118.70665,8.4396728 C118.974618,8.16564417 119.068606,7.7607362 118.948621,7.39468303 C118.830635,7.02862986 118.518673,6.7607362 118.146718,6.70347648 L113.549274,6.01226994 L113.403291,6 Z M113.403291,7.02249489 L118.000735,7.71574642 L95.9713999,30.2413088 L89.0002431,31.9775051 L113.403291,7.02249489 L113.403291,7.02249489 Z" id="Fill-1724" fill="#000606"></path>
                            <path d="M82.508189,34 L82.0654713,33.7420098 C81.9532617,33.5465016 81.9879447,33.2985891 82.1491184,33.1393608 L109.467048,6.14915059 L109.828159,6 L114.589925,6.68931759 C114.781701,6.71753527 114.940835,6.84854593 115,7.02994529 L114.87759,7.54391016 L89.9793062,32.1396487 L89.7406058,32.2726749 L82.6305995,33.9858912 L82.508189,34" id="Fill-1725" fill="#FFFFFE"></path>
                            <path d="M109.300204,6 C109.031278,6 108.772539,6.10478043 108.578993,6.29620623 L81.2992777,33.2791829 C80.9753438,33.5995692 80.9060749,34.0932462 81.1322174,34.4861729 C81.3155763,34.8085742 81.657846,35 82.0184517,35 L82.2608928,34.9717899 L89.3609531,33.2590328 L89.8397234,32.9930517 L114.70114,8.40390495 C114.974141,8.13389383 115.069895,7.73693719 114.947656,7.37423569 C114.827454,7.01354919 114.511669,6.7495831 114.13069,6.69517788 L109.448929,6.01209005 L109.300204,6 Z M109.300204,7.00750417 L113.981966,7.690592 L89.1205494,32.2797387 L82.0184517,33.9924958 L109.300204,7.00750417 L109.300204,7.00750417 Z" id="Fill-1726" fill="#000606"></path>
                            <path d="M64.1060277,33 L63.9695316,32.979883 L1.36399413,15.0737015 C1.13917704,15.009327 0.988629882,14.798098 1,14.5647403 C1.01071013,14.3313826 1.18333754,14.1362473 1.41417652,14.0960132 L80.1061797,0 L150.58433,12.3981346 C150.819183,12.4383687 150.993818,12.6415508 151,12.8809437 C151.005862,13.1203365 150.841264,13.3295538 150.610425,13.3838698 L64.2184363,32.9859181 L64.1060277,33" id="Fill-1727" fill="#FFFFFE"></path>
                            <path d="M79.6936294,0 L79.5169909,0.0160870594 L0.826554246,14.1043293 C0.364885485,14.1867755 0.0236520529,14.5768867 0.00157224264,15.0434114 C-0.0245220786,15.511947 0.276566244,15.9342323 0.728198727,16.0629288 L63.3284754,33.9597824 L63.6054767,34 L63.8262748,33.9738585 L150.216543,14.3798202 C150.684234,14.2732434 151.011417,13.852969 150.999695,13.374379 C150.98733,12.895789 150.640074,12.4916016 150.170377,12.4071445 L79.8682606,0.014076177 L79.6936294,0 Z M79.6936294,1.00544121 L149.995745,13.3985096 L63.6054767,32.9945588 L1.00319273,15.0956943 L79.6936294,1.00544121 L79.6936294,1.00544121 Z" id="Fill-1728" fill="#000606"></path>
                            <path d="M112.954379,56.6694439 C111.416025,49.3281094 111.840675,31.8189472 107.119452,25.8084282 C102.282052,19.6489373 89.2521188,16.4688842 82.2914704,14.1091695 C79.9959587,13.3325294 79.0164602,16.9277176 81.2939443,17.6983988 C87.5334896,19.8137995 99.009045,22.8230316 103.832424,27.7013643 C108.786002,32.7127785 107.952727,51.0561833 109.334841,57.6586172 C109.825592,60.0084004 113.445129,59.011282 112.954379,56.6694439" id="Fill-1729" fill="#FFFFFE"></path>
                            <path d="M112.457026,57.111598 L112.945767,57.0080783 C112.190622,53.3341447 111.908193,46.972759 111.231166,40.775787 C110.540118,34.5706958 109.502544,28.5279883 107.016773,25.2640738 C104.482929,21.9798613 99.9520554,19.5867299 95.1888294,17.6685712 C90.4256033,15.7544721 85.4140005,14.3376733 81.9567557,13.1400928 C81.6883485,13.0467221 81.4219443,13 81.1675584,13 C80.4945374,12.9959771 79.9216683,13.3288639 79.5591183,13.7936876 C79.1925623,14.2585112 79.0022736,14.8471525 79,15.4459428 C78.9862493,16.3755901 79.5170545,17.3884591 80.6347501,17.7680313 C83.7735118,18.853973 88.1902121,20.1611626 92.4166238,21.8134179 C96.6410324,23.4595837 100.669143,25.4711131 102.976644,27.8642445 C105.26812,30.1822734 106.365785,36.1153717 106.926636,42.2534796 C107.50952,48.4057961 107.639718,54.7590626 108.346791,58.2259569 C108.462967,58.8044492 108.753407,59.2713027 109.141997,59.5696829 C109.530586,59.870093 109.999298,60 110.45599,60 C111.074929,59.9979702 111.689862,59.7706329 112.174598,59.3524946 C112.65733,58.9363861 113.003856,58.2990296 113,57.5480045 C113.001853,57.3734419 112.983825,57.1948197 112.947771,57.0101081 L112.457026,57.111598 L111.966282,57.2130879 L112.000333,57.5480045 C111.996327,57.9864408 111.814051,58.3233872 111.521607,58.5811715 C111.231166,58.836926 110.824549,58.987131 110.45599,58.9851012 C110.181574,58.9851012 109.939206,58.9079689 109.748918,58.7618235 C109.560632,58.6136482 109.406398,58.3964599 109.32828,58.0189175 C108.651252,54.7387646 108.507034,48.3449022 107.924149,42.1580792 C107.317229,35.9570475 106.353767,29.954936 103.691729,27.1517855 C101.175912,24.5617638 97.0556614,22.5421152 92.7771708,20.8655024 C88.5006831,19.194979 84.0599463,17.8816999 80.9592424,16.807937 C80.268194,16.5582719 80.0158112,16.0386437 80.0017899,15.4459428 C79.9997869,15.0704303 80.1299844,14.6908581 80.3403034,14.4290142 C80.5526255,14.1671703 80.8130206,14.0169653 81.1675584,14.0149355 L81.6322634,14.100187 C85.1355781,15.3119762 90.1191384,16.7226855 94.8202702,18.6124271 C99.519399,20.4940494 103.922078,22.875002 106.225573,25.8872216 C108.460964,28.7634448 109.57265,34.7371392 110.235656,40.8894557 C110.91068,47.0498914 111.183093,53.3869194 111.966282,57.2151177 L112.457026,57.111598" id="Fill-1730" fill="#000606"></path>
                            <path d="M84.5105932,14.469975 C83.0190678,15.0934112 81.5275424,15.7126772 80.0381356,16.3361134 C81.5275424,15.7126772 83.0190678,15.0934112 84.5105932,14.469975 C84.279661,14.2593828 83.9724576,14.0696414 83.6165254,13.8944954 C82.5974576,14.3198499 81.5805085,14.7452043 80.5635593,15.1705588 C81.5805085,14.7452043 82.5974576,14.3198499 83.6165254,13.8944954 C83.2669492,13.7235196 82.8855932,13.5671393 82.440678,13.43995 C81.779661,13.7130942 81.1228814,13.9862385 80.4682203,14.2593828 C81.1228814,13.9862385 81.779661,13.7130942 82.440678,13.43995 C81.9682203,13.3065054 81.4449153,13.2085071 80.8940678,13.1355296 L80.3389831,13.3669725 L80.8940678,13.1355296 C80.3072034,13.0562969 79.690678,13 79.0360169,13 C75.7033898,13 73,14.1259383 73,15.5166806 C73,16.8010842 75.3241525,17.8498749 78.315678,18 L85,15.2164304 C84.9237288,14.9537114 84.7648305,14.7035029 84.5105932,14.469975" id="Fill-1731" fill="#B4B5B4"></path>
                            <path d="M84.9867873,13.9772257 L84.7800822,13.5010352 C83.2951802,14.1180124 81.8102781,14.7349896 80.3274853,15.3540373 C80.0596124,15.4637681 79.9351675,15.7681159 80.0490662,16.0310559 C80.1608557,16.2939959 80.4709134,16.4182195 80.7387863,16.3064182 C82.2215791,15.6873706 83.7064812,15.0724638 85.1913832,14.4534161 L85.5056593,14.0662526 L85.3453574,13.5962733 C85.0606106,13.3395445 84.7146959,13.1304348 84.330815,12.9440994 L83.8920939,12.9296066 C82.8754422,13.3519669 81.863009,13.7722567 80.8505758,14.1966874 C80.5827029,14.3064182 80.458258,14.610766 80.5721567,14.873706 C80.6860554,15.136646 80.9940039,15.2587992 81.2618768,15.1490683 C82.2764193,14.7267081 83.2867432,14.3043478 84.3012857,13.884058 C84.4911169,13.8033126 84.6176711,13.6252588 84.6239988,13.4223602 C84.6303265,13.2194617 84.5164277,13.0331263 84.330815,12.9440994 C83.9616987,12.7619048 83.5482885,12.5921325 83.0716012,12.4554865 L82.7193588,12.4761905 C82.0612772,12.7494824 81.4095233,13.0207039 80.7556602,13.2919255 C80.4877873,13.4016563 80.3633423,13.7060041 80.4751318,13.9689441 C80.5890306,14.2339545 80.8990883,14.3561077 81.1669612,14.2443064 C81.8208243,13.9730849 82.4725782,13.7018634 83.1285505,13.4306418 C83.3352557,13.3457557 83.463919,13.1407867 83.4512636,12.9233954 C83.4386082,12.7039337 83.284634,12.515528 83.0694919,12.4554865 C82.5653846,12.3146998 82.023311,12.2153209 81.4580357,12.1387164 L81.1796166,12.173913 L80.6291061,12.4037267 C80.3591239,12.515528 80.234679,12.8198758 80.3485777,13.0828157 C80.4624764,13.3457557 80.7725341,13.4679089 81.0404071,13.3581781 L81.5909176,13.1283644 C81.8102781,13.0372671 81.9410508,12.8136646 81.9094122,12.5838509 C81.8777737,12.3519669 81.6921609,12.1697723 81.4580357,12.1387164 C80.8569035,12.057971 80.2178051,12 79.5365219,12 C77.8153854,12.0020704 76.2566601,12.2857143 75.0818158,12.7722567 C74.493339,13.0186335 73.9997778,13.3126294 73.626443,13.6770186 C73.2573268,14.0372671 73,14.4989648 73,15.0165631 C73,15.4927536 73.2214698,15.9275362 73.5484013,16.2712215 C74.5376329,17.2877847 76.4739114,17.8695652 78.7940709,18 L79.0260868,17.9585921 L85.6786167,15.194617 C85.923288,15.0910973 86.0519514,14.8281573 85.9802374,14.5776398 C85.8768849,14.2132505 85.6554151,13.8799172 85.3453574,13.5983437 C85.1934924,13.4596273 84.9720227,13.4223602 84.7800822,13.5010352 L84.9867873,13.9772257 L84.6282172,14.3581781 C84.8243762,14.5362319 84.9192918,14.699793 84.965695,14.8571429 L85.4740208,14.7184265 L85.2673157,14.242236 L78.6147858,17.0062112 L78.8193817,17.4824017 L78.8468018,16.9648033 C77.4146306,16.8944099 76.1448706,16.6045549 75.2821932,16.2049689 C74.8497998,16.0062112 74.520759,15.7784679 74.3224909,15.5672878 C74.1221135,15.3519669 74.0567272,15.1759834 74.0546179,15.0165631 C74.0546179,14.8426501 74.1347689,14.6459627 74.3731125,14.4099379 C75.0797065,13.6832298 77.1425392,13.0207039 79.5365219,13.0351967 C80.1566372,13.0351967 80.7472233,13.0869565 81.3146077,13.1635611 L81.3863217,12.6521739 L81.1796166,12.173913 L80.6291061,12.4037267 C80.3591239,12.515528 80.234679,12.8198758 80.3485777,13.0828157 C80.4624764,13.3457557 80.7725341,13.4679089 81.0404071,13.3581781 L81.5909176,13.1283644 L81.3863217,12.6521739 L81.3146077,13.1635611 C81.8461351,13.2360248 82.3439148,13.3291925 82.7784174,13.4513458 L82.9260639,12.9544513 L82.7193588,12.4761905 C82.0612772,12.7494824 81.4095233,13.0207039 80.7556602,13.2919255 C80.4877873,13.4016563 80.3633423,13.7060041 80.4751318,13.9689441 C80.5890306,14.2339545 80.8990883,14.3561077 81.1669612,14.2443064 C81.8208243,13.9730849 82.4725782,13.7018634 83.1285505,13.4306418 L82.9260639,12.9544513 L82.7784174,13.4513458 C83.1854999,13.5672878 83.5356331,13.7101449 83.8625646,13.8695652 L84.0966898,13.4057971 L83.8920939,12.9296066 C82.8754422,13.3519669 81.863009,13.7722567 80.8505758,14.1966874 C80.5827029,14.3064182 80.458258,14.610766 80.5721567,14.873706 C80.6860554,15.136646 80.9940039,15.2587992 81.2618768,15.1490683 C82.2764193,14.7267081 83.2867432,14.3043478 84.3012857,13.884058 L84.0966898,13.4057971 L83.8625646,13.8695652 C84.1873869,14.0269151 84.4531507,14.1966874 84.6282172,14.3581781 L84.9867873,13.9772257 L84.7800822,13.5010352 C83.2951802,14.1180124 81.8102781,14.7349896 80.3274853,15.3540373 C80.0596124,15.4637681 79.9351675,15.7681159 80.0490662,16.0310559 C80.1608557,16.2939959 80.4709134,16.4182195 80.7387863,16.3064182 C82.2215791,15.6873706 83.7064812,15.0724638 85.1913832,14.4534161 L84.9867873,13.9772257 L84.6282172,14.3581781 L84.9867873,13.9772257" id="Fill-1732" fill="#000606"></path>
                            <path d="M84.4721494,15.387054 L84.2652685,15.0310551 L80.321865,16.2569295 C80.0790966,16.3312249 79.9503238,16.5262504 80.0178767,16.7135368 C80.0875407,16.9008231 80.3345312,17.0215532 80.5962989,16.9967881 C82.5574455,16.7955713 84.1280516,16.3575379 84.8985774,15.6145837 C85.0379054,15.4737319 85.0336833,15.2818021 84.8859113,15.1455938 C84.7381392,15.0093856 84.4848156,14.9629509 84.2652685,15.0310551 L84.4721494,15.387054 L84.0457214,15.1579764 C83.6488478,15.5882707 82.2661234,16.0649997 80.459082,16.2290687 L80.5287459,16.6129284 L80.7335158,16.9689273 L84.6790303,15.7430528 L84.4721494,15.387054 L84.0457214,15.1579764 L84.4721494,15.387054" id="Fill-1733" fill="#000606"></path>
                            <path d="M85,15.2133333 L84.9378921,15 L79,16.9777778 C79.2107905,16.9866667 79.4178168,17 79.6398996,17 C80.1951066,17 80.7183187,16.9644444 81.2208281,16.9125926 L84.7365119,15.7392593 C84.8946048,15.5718519 85,15.397037 85,15.2133333" id="Fill-1734" fill="#CBCCCB"></path>
                            <path d="M84.5254585,14.6131148 L84.9867128,14.5196721 L84.9240734,14.2836066 L84.6773118,14.0114754 L84.2767988,14 L78.2899834,16.1885246 C78.0849815,16.2622951 77.9691933,16.4491803 78.0071567,16.6360656 C78.04512,16.8245902 78.2292421,16.9639344 78.4494293,16.9754098 C78.6525331,16.9836066 78.8708222,17 79.1194819,17 C79.704117,17 80.2545851,16.9590164 80.7746826,16.9 L80.8980634,16.8704918 L84.4457355,15.5721311 L84.6393485,15.4393443 C84.8310632,15.2180328 84.9981018,14.942623 85,14.6131148 L84.9867128,14.5196721 L84.5254585,14.6131148 L84.050917,14.6131148 L83.8800821,14.9491803 L84.2597153,15.195082 L84.073695,14.8180328 L80.527921,16.1163934 L80.7139413,16.4934426 L80.6513018,16.0868852 C80.1596768,16.142623 79.6528665,16.1803279 79.1194819,16.1803279 C78.9182763,16.1803279 78.7189689,16.1672131 78.4987816,16.1557377 L78.4741055,16.5655738 L78.6601257,16.942623 L84.6469411,14.7540984 L84.462819,14.3770492 L83.9996665,14.4688525 L84.062306,14.704918 L84.5254585,14.6131148 L84.050917,14.6131148 L84.5254585,14.6131148" id="Fill-1735" fill="#000606"></path>
                            <polyline id="Fill-1736" fill="#FFFFFE" points="108.288225 77 106 77 107.420035 60 109 60 108.288225 77"></polyline>
                            <path d="M109.517007,77.4868194 L109.517007,76.9736387 L107.185941,76.9736387 L108.913832,60.0263613 L109.84127,60.0263613 L108.952381,77.4621867 L109.517007,77.4868194 L109.517007,76.9736387 L109.517007,77.4868194 L110.0839,77.511452 L111,59.5378133 L110.843537,59.1601124 L110.435374,59 L108.396825,59 C108.104308,59 107.85941,59.2011668 107.8322,59.465968 L106,77.4396067 L106.145125,77.8337295 L106.564626,78 L109.517007,78 C109.820862,78 110.070295,77.7844641 110.0839,77.511452 L109.517007,77.4868194" id="Fill-1737" fill="#000606"></path>
                            <polyline id="Fill-1738" fill="#FFFFFE" points="110 77 108 77 108.621642 60 110 60 110 77"></polyline>
                            <path d="M110.583796,77.4868194 L110.583796,76.9736387 L108.850721,76.9736387 L109.485017,60.0263613 L110.167592,60.0263613 L110.167592,77.4868194 L110.583796,77.4868194 L110.583796,76.9736387 L110.583796,77.4868194 L111,77.4868194 L111,59.5131806 L110.878468,59.1498487 L110.583796,59 L109.08879,59 C108.865705,59 108.682575,59.2155359 108.672586,59.4906007 L108,77.4621867 L108.113208,77.8419404 L108.414539,78 L110.583796,78 L110.878468,77.8501513 L111,77.4868194 L110.583796,77.4868194" id="Fill-1739" fill="#000606"></path>
                            <polyline id="Fill-1740" fill="#FFFFFE" points="114 77 112 77 112 60 113.379416 60 114 77"></polyline>
                            <path d="M113.58523,77.4868194 L113.58523,76.9736387 L111.832871,76.9736387 L111.832871,60.0263613 L112.514159,60.0263613 L113.168795,77.511452 L113.58523,77.4868194 L113.58523,76.9736387 L113.58523,77.4868194 L114,77.4621867 L113.327041,59.4906007 C113.317046,59.2155359 113.133815,59 112.912271,59 L111.416435,59 L111.121599,59.1498487 L111,59.5131806 L111,77.4868194 L111.121599,77.8501513 L111.416435,78 L113.58523,78 L113.88673,77.8398876 L114,77.4621867 L113.58523,77.4868194" id="Fill-1741" fill="#000606"></path>
                            <polyline id="Fill-1742" fill="#FFFFFE" points="116 77 113.710434 77 113 60 114.579132 60 116 77"></polyline>
                            <path d="M116.437387,77.4868194 L116.437387,76.9736387 L114.023593,76.9736387 L113.159256,60.0263613 L114.087114,60.0263613 L115.872505,77.534032 L116.437387,77.4868194 L116.437387,76.9736387 L116.437387,77.4868194 L117,77.4396067 L115.169238,59.465968 C115.142015,59.2032195 114.897005,59 114.604356,59 L112.567151,59 L112.156534,59.1580596 L112,59.5378133 L112.916515,77.511452 C112.930127,77.7844641 113.179673,78 113.483666,78 L116.437387,78 L116.854809,77.8316768 L117,77.4396067 L116.437387,77.4868194" id="Fill-1743" fill="#000606"></path>
                            <path d="M114.672962,58.3523787 C113.680373,59.3468802 112.683959,60.3413818 111.693282,61.3358833 C112.683959,60.3413818 113.680373,59.3468802 114.672962,58.3523787 C114.519962,58.0157781 114.317236,57.7097777 114.080086,57.4305522 C113.399235,58.1094908 112.722209,58.7903419 112.041358,59.4692804 C112.722209,58.7903419 113.399235,58.1094908 114.080086,57.4305522 C113.846761,57.1570643 113.590485,56.9046139 113.294047,56.6999761 C112.854172,57.1398518 112.416208,57.5759025 111.978245,58.0157781 C112.416208,57.5759025 112.854172,57.1398518 113.294047,56.6999761 C112.980397,56.4876883 112.630409,56.3327755 112.265121,56.2142003 L111.892183,56.5833134 L112.265121,56.2142003 C111.869233,56.0860626 111.459957,56 111.023906,56 C108.801578,56 107,57.8015778 107,60.0239063 C107,62.0817595 108.547215,63.7609371 110.541956,64 L115,59.543868 C114.950275,59.1231174 114.843175,58.7214918 114.672962,58.3523787" id="Fill-1744" fill="#FFFFFE"></path>
                            <path d="M115.194403,57.8455645 L114.854091,57.5052536 C113.856227,58.5050369 112.854518,59.5048203 111.856655,60.5065263 L111.718223,60.8468372 L111.858577,61.1852254 L112.198889,61.3255796 L112.539201,61.1852254 C113.535142,60.185442 114.534928,59.1856587 115.534715,58.1839527 C115.676992,58.0416758 115.715445,57.8263379 115.632771,57.6456078 C115.457808,57.2610757 115.227088,56.9169196 114.963683,56.6073712 L114.617603,56.4381771 L114.258065,56.5785313 C113.573595,57.2610757 112.892972,57.9455428 112.208502,58.6280872 L112.068148,58.9683981 L112.208502,59.3087089 L112.548814,59.4490631 L112.889126,59.3087089 C113.573595,58.6242419 114.254219,57.9416975 114.936766,57.2591531 C115.113651,57.0822683 115.125187,56.7977146 114.963683,56.6073712 C114.711814,56.3112816 114.423414,56.0267278 114.079257,55.788318 C113.888913,55.6575771 113.631275,55.680649 113.467849,55.8440751 C113.025636,56.286287 112.585345,56.7246535 112.145054,57.1668654 L112.0047,57.5071763 L112.146977,57.8474871 L112.487289,57.9878413 L112.825678,57.8455645 C113.264046,57.4052753 113.706259,56.9669087 114.14655,56.5246969 L114.284982,56.1401648 L114.077334,55.7863953 C113.71395,55.5402948 113.319803,55.369178 112.921812,55.2384371 L112.433454,55.3557194 L112.058535,55.7267928 C111.872036,55.9152135 111.872036,56.2189939 112.058535,56.4074146 C112.246956,56.5958353 112.550737,56.5958353 112.739158,56.4074146 L113.112156,56.0344185 L113.239051,55.5825933 L112.921812,55.2384371 C112.493057,55.0980829 112.027772,54.9981046 111.525956,55 C109.02649,55 107,57.0245885 107,59.5259695 C107,61.8427752 108.741935,63.7327502 110.983764,64 L111.381756,63.8634911 L115.863491,59.3836927 L116,58.985702 C115.944243,58.5204182 115.825037,58.0666704 115.630848,57.6436851 L115.279,57.3706674 L114.854091,57.5052536 L115.194403,57.8455645 L114.757958,58.0455211 C114.906003,58.3666054 115.000214,58.7203749 115.046358,59.1010616 L115.523179,59.0433818 L115.182867,58.7030709 L110.701132,63.1828694 L111.041444,63.5231803 L111.099124,63.0463605 C109.330271,62.8329452 107.95941,61.3467288 107.95941,59.5259695 C107.963256,57.5571654 109.557146,55.9632801 111.525956,55.9594347 C111.898953,55.9613574 112.260414,56.0344185 112.623798,56.1517008 L112.773766,55.6960303 L112.433454,55.3557194 L112.058535,55.7267928 C111.872036,55.9152135 111.872036,56.2189939 112.058535,56.4074146 C112.246956,56.5958353 112.550737,56.5958353 112.739158,56.4074146 L113.112156,56.0344185 L112.773766,55.6960303 L112.623798,56.1517008 C112.960265,56.2612924 113.269814,56.4016466 113.537065,56.5823767 L113.808161,56.184386 L113.467849,55.8440751 C113.025636,56.286287 112.585345,56.7246535 112.145054,57.1668654 L112.0047,57.5071763 L112.146977,57.8474871 L112.487289,57.9878413 L112.825678,57.8455645 C113.264046,57.4052753 113.706259,56.9669087 114.14655,56.5246969 L113.808161,56.184386 L113.535142,56.580454 C113.787011,56.7554161 114.015809,56.976522 114.23307,57.2303132 L114.598376,56.9188422 L114.258065,56.5785313 C113.573595,57.2610757 112.892972,57.9455428 112.208502,58.6280872 L112.068148,58.9683981 L112.208502,59.3087089 L112.548814,59.4490631 L112.889126,59.3087089 C113.573595,58.6242419 114.254219,57.9416975 114.936766,57.2591531 L114.598376,56.9188422 L114.231147,57.2303132 C114.446486,57.4821817 114.625294,57.7532768 114.757958,58.0435985 L115.194403,57.8455645 L114.854091,57.5052536 C113.856227,58.5050369 112.854518,59.5048203 111.856655,60.5065263 L111.718223,60.8468372 L111.858577,61.1852254 L112.198889,61.3255796 L112.539201,61.1852254 C113.535142,60.185442 114.534928,59.1856587 115.534715,58.1839527 L115.194403,57.8455645 L114.757958,58.0455211 L115.194403,57.8455645" id="Fill-1745" fill="#000606"></path>
                            <path d="M115,61 L113,63 C113.954381,62.7031137 114.704562,61.9558291 115,61" id="Fill-1746" fill="#FFFFFE"></path>
                            <path d="M114.601065,61.3992849 L114.318758,61.1170922 L112.11612,63.3188335 C111.986928,63.4479726 111.963004,63.6504499 112.057106,63.8082865 C112.152804,63.9645289 112.342604,64.0362728 112.516454,63.9820663 C113.693534,63.6153751 114.617015,62.6954585 114.98226,61.5172638 C115.036489,61.3418898 114.963121,61.152167 114.806815,61.0565084 C114.650509,60.9624441 114.447949,60.9879531 114.318758,61.1170922 L114.601065,61.3992849 L114.21987,61.281306 C113.932778,62.2075998 113.207072,62.9330106 112.280401,63.2199863 L112.398428,63.6010263 L112.680735,63.8832191 L114.883373,61.6798834 L114.601065,61.3992849 L114.21987,61.281306 L114.601065,61.3992849" id="Fill-1747" fill="#000606"></path>
                            <path d="M115,59.5326825 L114.946944,59 L110,63.9448217 L110.534805,64 C110.995331,64 111.432513,63.9108659 111.850594,63.7792869 L114.781409,60.848472 C114.912988,60.4303905 115,59.9953311 115,59.5326825" id="Fill-1748" fill="#FFFFFE"></path>
                            <path d="M115.476656,59.0532307 L115.997866,59.0028178 L115.947426,58.4755825 C115.92641,58.2718303 115.791904,58.0995861 115.600654,58.0302683 C115.411505,57.963051 115.195034,58.0092629 115.052122,58.1542001 L110.153167,63.0484559 C110.010254,63.1912925 109.961916,63.4055475 110.031271,63.5966965 C110.098524,63.7878456 110.270859,63.9222801 110.472618,63.9432854 L111.000133,63.9978995 L111.054776,64 C111.58019,64 112.067773,63.8970736 112.513324,63.758438 L112.729794,63.6282046 L115.632178,60.7252598 L115.762481,60.5110048 C115.90119,60.06359 116.002069,59.5762649 116,59.0532307 L115.997866,59.0028178 L115.476656,59.0532307 L114.951242,59.0532307 C114.949141,59.443931 114.875583,59.8199275 114.75789,60.1980245 L115.260186,60.3555649 L114.888193,59.9837695 L111.985809,62.8846138 L112.357802,63.2564092 L112.202279,62.7543804 C111.819778,62.8741111 111.441481,62.9497305 111.054776,62.9497305 L111.054776,63.4748653 L111.107318,62.9518311 L110.579803,62.8993176 L110.52516,63.4202512 L110.897152,63.7920466 L115.796107,58.8977909 L115.424115,58.5259955 L114.900803,58.5764084 L114.953344,59.1036437 L115.476656,59.0532307 L114.951242,59.0532307 L115.476656,59.0532307" id="Fill-1749" fill="#000606"></path>
                        </g>
                    </g>
                </g>
            </g>
        </g>
    </g>
</svg>