<?xml version="1.0" encoding="UTF-8"?>
<svg width="54px" height="48px" viewBox="0 0 54 48" version="1.1" xmlns="http://www.w3.org/2000/svg" xmlns:xlink="http://www.w3.org/1999/xlink">
    <title>Fill 36</title>
    <g id="Kosmos" stroke="none" stroke-width="1" fill="none" fill-rule="evenodd">
        <g id="Tool---7" transform="translate(-714.000000, -69.000000)">
            <g id="Value-Proposition-#9" transform="translate(0.000000, 60.000000)">
                <g id="Background-Color" fill="#F2F5F7">
                    <rect id="Atoms-/-Colors-/-Black" x="0" y="0" width="1440" height="736"></rect>
                </g>
                <g id="Group-3" transform="translate(148.000000, 9.000000)" fill="#AC840D">
                    <path d="M615,5 C615.011608,4.86258065 615.023485,4.72537634 615.035092,4.58795699 C615.191929,4.67268817 615.37414,4.71376344 615.593602,4.66215054 C616.000945,4.56666667 616.128087,4.3 615.979889,4.00086022 C615.979619,4.00043011 615.979349,4.00021505 615.979349,4 C616.318936,4.05655914 616.659603,4.10752688 617,4.14709677 C616.317587,4.40473118 615.64975,4.7027957 615,5 Z M613.76646,6 C613.869003,5.66218072 613.945348,5.33122768 613.997465,5 C614.076063,5.24526229 614.154661,5.49024993 614.23354,5.73551222 C614.142829,5.78632244 614.050145,5.83878055 613.96056,5.88876682 C613.895484,5.9250206 613.831535,5.96347157 613.76646,6 Z M609,9 C609.088173,7.66646411 609.175992,6.33323205 609.264164,5 C609.474504,6.13604254 609.72238,7.26691986 610,8.39445499 C609.736544,8.55153817 609.471317,8.70649449 609.210694,8.86691986 C609.139873,8.9103684 609.070822,8.95594379 609,9 Z M608,10 C608.178951,8.3335136 608.354914,6.6667568 608.530876,5 C608.678619,6.43799686 608.825033,7.87599373 608.976428,9.31344979 C608.979416,9.33994916 608.991036,9.3604997 609,9.38294305 C608.664011,9.58601482 608.331009,9.7917906 608,10 Z M574.097755,26 C574.143956,27.3334215 574.190157,28.6665785 574.236357,30 C574.07888,29.8239376 573.923092,29.6468178 573.763643,29.4723416 C573.874919,28.3149825 573.986478,27.1573591 574.097755,26 Z M573,24.2115909 C573.332972,24.1402622 573.666306,24.0691995 574,24 C573.834597,25.3331559 573.669556,26.6665779 573.504153,28 C573.335861,26.7371083 573.167931,25.4744827 573,24.2115909 Z M573.419085,26 L574,29 C573.670438,28.8069719 573.333497,28.6177236 573,28.4267115 C573.139695,27.6178076 573.27939,26.8089038 573.419085,26 Z M570.5905,26 C570.385284,25.750358 570.213598,25.4902148 570,25.2465394 C570.333437,25.1613365 570.666874,25.0823389 571,25 C570.797578,25.3038186 570.671841,25.648926 570.5905,26 Z M571.673359,25 L572,27 C571.668475,26.8014865 571.340206,26.6014246 571.022246,26.3967172 C571.014107,26.3914525 571.008139,26.3852586 571,26.3799938 C571.194791,25.9135955 571.452523,25.4611335 571.673359,25 Z M573,28 C572.975332,27.9850407 572.952087,27.9695472 572.927419,27.954588 C572.623814,27.7689328 572.312144,27.5864832 572,27.4045679 C572.198767,26.937091 572.390417,26.4688126 572.575427,26 L573,28 Z M571.791428,24.6808719 C571.631441,25.4120336 571.47538,26.1435219 571.323573,26.8759899 C571.215606,26.121316 571.107967,25.3663156 571,24.6113152 C571.665794,24.4010123 572.332243,24.1975671 573,24 C572.880255,25.3333333 572.76051,26.6666667 572.640766,28 C572.512187,26.9145236 572.383282,25.8290473 572.254703,24.7435709 C572.225912,24.5022451 571.853264,24.3983999 571.791428,24.6808719 Z M578.536636,28 C578.691434,30.6665691 578.844685,33.3334309 579,36 C578.670795,35.727459 578.334881,35.4575527 578,35.1873536 L578.536636,28 Z M577,22.1130595 C577.189932,22.076148 577.377722,22.0363302 577.568011,22 C577.709747,22.1116063 577.857194,22.2194342 578,22.3301686 L577.567654,31 C577.378436,28.0374927 577.189218,25.0752761 577,22.1130595 Z M577.02181,33.6792453 C577.184245,31.1194969 577.346354,28.5600479 577.508789,26 C577.672526,29 577.836263,32 578,35 C577.673177,34.5825097 577.335938,34.1716083 577,33.7598083 C577.012044,33.7367475 577.019857,33.7100928 577.02181,33.6792453 Z M576,23.1579195 C576.331789,23.1036815 576.666358,23.0524401 577,23 C576.795644,25.3331336 576.591288,27.6665668 576.387396,30 C576.258109,27.7193065 576.128823,25.438613 576,23.1579195 Z M576.610897,26 C576.740598,28.3332326 576.870299,30.6664652 577,33 C576.673095,32.7312808 576.333173,32.468607 576,32.2029104 C576.203472,30.1350721 576.407425,28.0675361 576.610897,26 Z M575,23.1736863 C575.333469,23.1158793 575.665311,23.0559509 576,23 C575.815779,24.9999116 575.631964,26.9998232 575.44815,29 C575.336722,27.1027092 575.228142,25.2051531 575.111834,23.3081275 C575.107767,23.2428957 575.061407,23.1999381 575,23.1736863 Z M574.260163,28 C574.17378,26.3852649 574.08689,24.7705298 574,23.156092 C574.332317,23.1022775 574.667175,23.0526253 575,23 C574.981707,23.0222989 574.968496,23.0475709 574.964431,23.0767081 C574.729675,24.7176072 574.494919,26.3588036 574.260163,28 Z M575.624884,26 C575.753029,27.6664028 575.878844,29.3330695 576,31 C575.792637,30.8532827 575.593197,30.7033988 575.383504,30.557737 C575.258155,30.4706565 575.126281,30.3864788 575,30.2996622 C575.20876,28.8662656 575.416589,27.4331328 575.624884,26 Z M579.427698,32 C579.287025,29.0000994 579.146789,25.9999006 579,23 C579.33377,23.2131077 579.662298,23.4291959 580,23.6396211 C579.802097,26.426116 579.614242,29.213207 579.427698,32 Z M579.092965,31 C579.122264,33.3333333 579.150153,35.6666667 579.178888,38 C579.059723,37.8045932 578.941685,37.6079708 578.821112,37.4137796 C578.91126,35.2758531 579.002535,33.1379265 579.092965,31 Z M581,37.8048378 C580.706638,37.8697086 580.413582,37.9354041 580.119914,38 C580.080759,37.9450247 580.039462,37.8914239 580,37.8364486 C580.391863,35.8993953 580.706026,33.9535459 580.935454,32 C580.941572,33.9348543 580.962374,35.8697086 581,37.8048378 Z M580.911351,25.2933779 C580.822233,28.8837689 580.568246,32.4544115 580.135319,36 C580.086538,32.0001965 580.037054,28.0000983 580,24 C580.331614,24.3758106 580.664165,24.7501474 581,25.1200629 C580.951689,25.149833 580.913696,25.2058361 580.911351,25.2933779 Z M581.625966,34 C581.750129,35.2886655 581.875837,36.5776103 582,37.8662758 C581.666667,37.9112228 581.333333,37.9556114 581,38 C581.272025,36.6683417 581.482741,35.3350084 581.625966,34 Z M581.846608,35 C581.796463,32.0002743 581.780124,28.9994515 581.826043,26 C581.950842,26.1058694 582.075923,26.2114646 582.201003,26.3170598 C582.084938,26.3154142 581.971407,26.3867252 581.977323,26.5331871 C582.091417,29.3601207 582.04747,32.1834888 581.846608,35 Z M584,37.7572045 C583.666568,37.8373938 583.334027,37.9214813 583,38 C583.236256,36.6699151 583.420505,35.3367674 583.552155,34 C583.653195,35.2557427 583.8,36.5087011 584,37.7572045 Z M583.313583,28.7971296 C583.315699,28.3241142 583.312789,27.8505008 583.30406,27.3762894 C583.299299,27.1245328 582.9631,27.1242338 582.958074,27.3762894 C582.948287,27.8759157 582.94432,28.3752429 582.943791,28.8745702 C582.899087,31.2602781 582.737998,33.636717 582.455231,36 C582.304722,32.6736433 582.154212,29.3475856 582.004761,26.0212289 C582.004497,26.0131559 582.000794,26.007774 582,26 C582.592779,26.5791598 583.18688,27.1562266 583.779659,27.7317985 C583.849755,27.7996711 583.924878,27.8343549 584,27.8484078 C583.932813,30.2442817 583.827801,32.6380625 583.682582,35.0288533 C583.477318,32.9579907 583.34797,30.8829421 583.313583,28.7971296 Z M585,36.7928361 C584.667572,36.8638549 584.333204,36.9302217 584,37 C584.189682,35.0015506 584.338247,33.0015506 584.453064,31 C584.635764,32.930842 584.817688,34.861684 585,36.7928361 Z M584,28.2014423 C584.091196,28.1652644 584.174497,28.107492 584.238452,28.019992 C584.488354,27.678125 584.742598,27.3382212 585,27 C584.864587,29.3333333 584.730754,31.6666667 584.596921,34 C584.395184,32.0671474 584.195026,30.1342949 584,28.2014423 Z M587,23.1055002 C587.328413,22.7342795 587.662157,22.3658733 588,22 C587.896269,24.3334271 587.792948,26.6665729 587.692907,29 C587.506765,27.0332904 587.273883,25.0688324 587,23.1055002 Z M586.649329,29 C586.829899,31.5694734 586.943736,34.1425171 587,36.716751 C586.666012,36.8086879 586.332679,36.9041952 586,37 C586.345437,34.3376971 586.558718,31.6712288 586.649329,29 Z M586,36.7997022 C585.665959,36.8690035 585.332767,36.9357695 585,37 C585.137946,34.6665728 585.275042,32.3334272 585.412564,30 C585.598048,32.2362363 585.782258,34.4727543 585.968166,36.7092724 C585.970713,36.7439231 585.983447,36.7729395 586,36.7997022 Z M586,25.3217623 C586.322653,24.8771696 586.65292,24.4373273 586.987174,24 C587.043729,27.0040053 586.913218,30.0066135 586.596365,33 C586.395522,30.4405874 586.195042,27.8811749 586,25.3217623 Z M589.981199,23 C590.073571,27.3031291 589.809294,31.6029125 589.543622,35.9040899 C589.362229,35.9311343 589.180835,35.9626397 589,36 C589.33488,31.6670384 589.658877,27.3335192 589.981199,23 Z M588.216356,35.8836139 C588.071837,35.9207646 587.9276,35.958786 587.783644,36 C587.851537,33.6667634 587.915204,31.3335268 587.975491,29 C588.056343,31.2943445 588.135504,33.5889792 588.216356,35.8836139 Z M588,21.9248976 C588.325058,21.2743805 588.658604,20.632748 589,20 C588.761511,24 588.524507,27.9997224 588.290898,32 C588.190325,28.6419102 588.089964,25.2835427 588,21.9248976 Z M590.996486,25 C590.988454,27.2726123 590.943022,29.5452245 590.857179,31.8175556 C590.852912,31.9319875 590.917922,32.010431 591,32.0472629 C590.63002,33.0195125 590.297942,34.0052577 590,35 C590.433233,31.6783816 590.766315,28.3441111 590.996486,25 Z M590,19.2162066 C590.328317,18.8065253 590.661548,18.4013091 591,18 C590.875921,21.6768064 590.602887,25.3452405 590.173219,29 C590.29269,25.7378983 590.285319,22.4744013 590,19.2162066 Z M592.854199,25 C592.856352,26.2930762 592.85912,27.5861524 592.860966,28.8792287 C592.860966,28.9894732 592.920947,29.061534 593,29.1034499 C592.651799,29.7301785 592.315595,30.3615006 592,31 C592.353122,29.0066989 592.637958,27.0065075 592.854199,25 Z M592,17.0439777 C592.328994,16.6928789 592.661894,16.3442468 593,16 C592.968109,19.6831116 592.673609,23.3533413 592.109014,27 C592.185486,23.6814173 592.150342,20.3622863 592,17.0439777 Z M608.192663,36.1401703 C603.123773,43.6332404 593.807293,48.1808476 584.903423,46.7317108 C575.848114,45.2576923 569.237114,38.2476678 567.492059,29.1530254 C565.779755,20.229122 568.534781,10.8419067 575.782612,5.29503277 C583.480282,-0.596465145 593.925981,-0.2758647 601.651925,5.33021016 C594.303881,10.937143 588.105771,18.322679 584.255956,26.7778365 C582.36282,25.0730201 580.462966,23.3567638 578.469896,21.7757832 C578.371642,21.615054 578.19193,21.5015139 577.960712,21.5412673 C575.002739,22.0514824 572.039728,22.9638066 569.294219,24.1978752 C568.91268,24.3694722 569.106669,24.9657719 569.464414,24.9998053 C569.400591,25.653304 569.920692,26.2721973 570.363254,26.7938522 C571.402058,28.018483 572.523439,29.1667531 573.548806,30.4065416 C575.770575,33.0931791 577.786318,35.9451217 579.617311,38.9226161 C579.703528,39.0627536 579.823896,39.1316785 579.949022,39.1494101 C580.024322,39.1791536 580.110539,39.1900214 580.207114,39.1708598 C580.535186,39.1059389 580.862139,39.0364421 581.189092,38.9663733 C581.283427,39.0710475 581.473776,39.041304 581.538999,38.8923006 C582.795585,38.6166014 584.044332,38.3051528 585.286082,37.9648187 C586.79432,37.5512698 588.474993,37.2329574 589.859784,36.4842223 C589.888896,36.4684926 589.909611,36.445613 589.931725,36.4238774 C590.146148,36.5500012 590.481218,36.4962341 590.603546,36.1867875 C593.384606,29.1450175 596.875276,22.7241428 601.976638,17.1349416 C602.079371,17.0222596 602.186862,16.9147254 602.290435,16.8029014 C602.452791,16.879262 602.677572,16.7988974 602.694927,16.5526557 C602.699406,16.4888788 602.703605,16.4248159 602.708083,16.361039 C604.245714,14.7405911 605.874321,13.2099456 607.593343,11.7925542 C613.596905,18.6561492 613.140626,28.825847 608.192663,36.1401703 Z M603,6 C602.830667,8.33323952 602.661886,10.6667605 602.49283,13 C602.329013,10.9223192 602.165472,8.84491979 602,6.76723895 C602.330116,6.50802139 602.663265,6.25246271 603,6 Z M607.706169,7 C607.770292,8.14104321 607.861607,9.28150927 608,10.4219753 C607.663555,10.6118606 607.331981,10.8063632 607,11 C607.259334,9.66849434 607.496753,8.3352572 607.706169,7 Z M605.715388,7 C605.810259,8.49244263 605.905129,9.98516108 606,11.4776037 C605.66364,11.6494373 605.332274,11.8251324 605,12 C605.242851,10.3335172 605.481616,8.66703442 605.715388,7 Z M604.747587,8 C604.834818,9.76312979 604.920193,11.5265508 605,13.2899718 C604.664811,13.5249976 604.329621,13.7600233 604,14 C604.256496,12.0003883 604.497402,9.99961169 604.747587,8 Z M604,14.3684016 C603.664234,14.5771748 603.330089,14.7872677 603,15 C603.182482,13.3335093 603.364152,11.6667546 603.545823,10 C603.697486,11.4561339 603.848743,12.9122677 604,14.3684016 Z M604.958931,4.12231741 C604.767922,6.41695648 604.554313,8.70803291 604.345565,11 L604.026488,4.97586733 C604.024058,4.92836543 604.014338,4.88739503 604,4.85236237 C604.329769,4.56349139 604.663183,4.2793706 605,4 C604.979587,4.03295445 604.963062,4.07154975 604.958931,4.12231741 Z M605.249394,4.89288425 C605.241853,4.72779886 605.111231,4.66603416 605,4.69734345 C605.330191,4.4613852 605.663614,4.2288425 606,4 C605.831403,6.00066414 605.653649,8.00018975 605.476434,10 C605.399946,8.29762808 605.324805,6.59525617 605.249394,4.89288425 Z M606.010285,3.54045201 C606.009599,3.52669505 606.002743,3.51686865 606,3.50423471 C606.330819,3.3335361 606.665067,3.16620654 607,3 C606.812479,5.00458565 606.573877,7.00467924 606.281454,9 C606.19095,7.18015067 606.100788,5.36030134 606.010285,3.54045201 Z M601.640159,11 C601.759841,12.6124801 601.87926,14.2249602 602,15.8374403 C601.706737,16.1678642 601.416645,16.5020495 601.131044,16.8405748 C601.086922,16.8926556 601.044122,16.9476298 601,17 C601.283752,15.0087766 601.495905,13.0077157 601.640159,11 Z M600.184945,14 C600.16607,15.1271167 600.148604,16.2542333 600.126348,17.38135 C600.12494,17.4493952 600.147477,17.5043309 600.179029,17.5514631 C600.057892,17.7015997 599.935065,17.8479906 599.815055,18 C599.939009,16.6665626 600.061554,15.3334374 600.184945,14 Z M599.819109,13 C599.880837,14.8065197 599.939345,16.6130395 600,18.4195592 C599.666667,18.6130395 599.328502,18.8036162 599,19 C599.188943,16.9973604 599.463768,14.9970965 599.819109,13 Z M597.661718,13 C597.702604,15.179026 597.81577,17.3550083 598,19.5276702 C597.660501,20.0113448 597.326844,20.5016602 597,21 C597.181066,18.3303818 597.397177,15.6618705 597.661718,13 Z M596.954585,16 C596.969338,17.8907139 596.985826,19.7814279 597,21.6721418 C596.659531,22.1095917 596.326294,22.5521219 596,23 C596.367949,20.6718362 596.688458,18.338592 596.954585,16 Z M594.737719,20 C594.750107,21.2727423 594.796241,22.5454846 594.882956,23.8182269 C594.887228,23.883008 594.933362,23.9367626 595,23.9764583 C594.659547,24.3149741 594.327638,24.6565222 594,25 C594.24135,23.3330577 594.489107,21.666391 594.737719,20 Z M593.019631,27 C592.935015,23.6615719 593.125629,20.3254953 593.55872,17 C593.695199,19.917524 593.805746,22.8353418 593.908105,25.7534536 C593.910379,25.8178238 593.947228,25.8651461 594,25.8983599 C593.663809,26.262536 593.341265,26.6308271 593.019631,27 Z M594.17665,23 C594.108985,20.0730919 594.049917,17.1458902 594.014143,14.2181012 C594.013866,14.1934338 594.006933,14.1717029 594,14.1502658 C594.328896,13.7623411 594.66223,13.3791149 595,13 C594.712701,16.3321587 594.447587,19.666373 594.17665,23 Z M595.251304,11.9467607 C595.254509,11.9004038 595.245962,11.8628633 595.231805,11.8298732 C595.485555,11.5508788 595.741175,11.2738752 596,11 C595.751859,14.3425289 595.425189,17.6768102 595.012512,21 C594.966837,17.9802628 595.046167,14.9625164 595.251304,11.9467607 Z M597.072548,11.0280868 C597.072241,10.9543938 597.042422,10.9001669 597,10.8609566 C597.329849,10.5709121 597.66308,10.2839266 598,10 C597.671995,12.3312013 597.378113,14.6637931 597.123271,17 C597.105749,15.0094549 597.086382,13.0186318 597.072548,11.0280868 Z M598.013579,9.68595616 C598.339956,9.45540995 598.667721,9.22621671 599,9 C598.64793,11.329545 598.378496,13.6620666 598.185448,16 C598.027815,13.8988364 597.97122,11.7938846 598.013579,9.68595616 Z M600.975053,8.06958309 C600.693605,10.3796242 600.41532,12.6896653 600.136332,15 C600.087843,12.9031122 600.04111,10.8065179 600.003162,8.70963006 C600.003162,8.70493247 600.000351,8.70170288 600,8.69700528 C600.330639,8.46212566 600.66409,8.22988843 601,8 C600.990513,8.02260716 600.978215,8.04315913 600.975053,8.06958309 Z M601,7.43485637 C601.331598,7.28896177 601.664758,7.1439154 602,7 C601.89849,8.672133 601.702238,10.3383284 601.413326,12 C601.456533,10.5642389 601.502343,9.12819498 601.54659,7.6921511 C601.552317,7.49536304 601.269131,7.41449898 601,7.43485637 Z M593.002353,14.7520812 C593.002353,14.7493496 593,14.7475286 593,14.7447971 C593.329412,14.4944069 593.664941,14.2473552 594,14 C593.521412,16.3287808 593.204235,18.6618106 593.049882,21 C593.030588,18.9173604 593.013176,16.8347208 593.002353,14.7520812 Z M608.234831,2 C608.101299,3.66666667 607.96495,5.33362926 607.827755,7 C607.766624,5.42832623 607.748876,3.85517282 607.780709,2.27906013 C607.931426,2.18525095 608.082988,2.09232955 608.234831,2 Z M612.937882,6 C612.984928,6.20540997 613.034792,6.41081995 613.088035,6.61622992 C613.101558,6.66737109 613.119869,6.71217244 613.140998,6.75105664 C613.047187,6.83474218 612.95225,6.91546915 612.859002,7 C612.889709,6.66652578 612.915909,6.33347422 612.937882,6 Z M611.869426,5 C611.987464,5.5667881 612.10522,6.13327262 612.223258,6.70006072 C612.074231,6.79993928 611.924642,6.89829994 611.776742,7 C611.818436,6.33333333 611.849706,5.66697025 611.869426,5 Z M610.7591,6 C610.44499,4.67365248 610.192638,3.34127611 610,2 C610.332106,2.07837508 610.666258,2.15186966 611,2.22679968 C610.919427,3.48453312 610.839264,4.74226656 610.7591,6 Z M611.228847,5 C611.483121,5.86557462 611.737834,6.73088924 611.992547,7.59646386 C611.993862,7.60114405 611.998246,7.60374415 612,7.60816433 C611.665936,7.73816953 611.330995,7.8673947 611,8 C611.076282,7 611.152565,6 611.228847,5 Z M611.179874,3.26299401 C611.190861,3.84287425 611.186353,4.42155689 611.170577,5 C611.033383,4.33341317 610.896189,3.66658683 610.758994,3 C610.919007,3.04143713 611.080429,3.07904192 611.241006,3.11904192 C611.204101,3.15664671 611.178747,3.20383234 611.179874,3.26299401 Z M612.921083,6 C612.614203,4.99989173 612.307322,4.00010827 612,3 C612.312187,3.06463837 612.624815,3.12765266 612.937886,3.18969251 C613.024998,4.14107839 613.02146,5.06972715 612.921083,6 Z M608.608123,6 C608.404501,4.66666667 608.203074,3.33333333 608,2 C608.331504,2.0712052 608.66685,2.136637 609,2.20527624 C608.975302,2.24184107 608.954446,2.28065111 608.950055,2.32747975 L608.608123,6 Z M614.21497,3.11988942 C614.253001,3.7673505 614.216942,4.3860032 614.104538,5 C613.926496,4.35137495 613.816064,3.69460207 613.770426,3 C613.893817,3.03288229 614.016644,3.06867452 614.140598,3.10068384 C614.165107,3.1067947 614.190179,3.11348756 614.21497,3.11988942 Z M615.962234,4.56812272 C615.865381,4.48309932 615.768528,4.39833593 615.671675,4.31331253 C615.556751,4.07384295 615.288122,4.18512741 615.274112,4.45111804 C615.264569,4.63416537 615.255025,4.81695268 615.245482,5 C615.163655,4.66666667 615.081827,4.33333333 615,4 C615.329543,4.10790432 615.663553,4.21632865 616,4.31565263 C615.951675,4.37337493 615.928934,4.46047842 615.962234,4.56812272 Z M619.454968,3.57112074 C619.363411,3.59655658 619.2727,3.62999471 619.181425,3.6585743 C619.145929,3.63313846 619.10677,3.61113218 619.060569,3.59598499 C617.373952,3.04697097 615.542815,2.8617752 613.819293,2.41821988 C612.081967,1.97094922 610.372812,1.43308124 608.664784,0.883495633 C608.362505,0.78632501 608.161926,0.986096379 608.119387,1.22587918 C608.102484,1.23359567 608.085863,1.23902579 608.069242,1.24874286 C606.205145,2.32676518 604.387812,3.51424735 602.631329,4.80061492 C595.59244,-0.779836793 585.493017,-1.59578423 577.70815,2.8823525 C569.462119,7.62599367 565.313608,16.8226215 566.092828,26.2684635 C566.885569,35.8803528 572.591109,44.2590327 581.893284,47.0649773 C591.040516,49.8240514 601.198535,46.2727509 607.419893,39.10013 C614.168617,31.3196211 615.658317,19.327623 608.607878,11.2158766 C609.192151,10.7557451 609.783749,10.3047591 610.386898,9.86977767 C611.834059,8.82605087 613.331929,7.85463043 614.874873,6.96266128 C616.468243,6.04154093 618.251489,5.37477898 619.793869,4.38649659 C620.208551,4.12099215 619.947403,3.43451028 619.454968,3.57112074 L619.454968,3.57112074 Z" id="Fill-36"></path>
                </g>
            </g>
        </g>
    </g>
</svg>