<?xml version="1.0" encoding="UTF-8"?>
<svg width="133px" height="84px" viewBox="0 0 133 84" version="1.1" xmlns="http://www.w3.org/2000/svg" xmlns:xlink="http://www.w3.org/1999/xlink">
    <title>Credit Cards</title>
    <g id="Kosmos" stroke="none" stroke-width="1" fill="none" fill-rule="evenodd">
        <g id="Homepage" transform="translate(-740.000000, -1027.000000)">
            <g id="Content-#6" transform="translate(139.000000, 881.000000)">
                <g id="Background" transform="translate(0.000000, 119.000000)">
                    <g id="Card" transform="translate(595.000000, 27.000000)">
                        <rect id="Rectangle-4" fill="#FFFFFF" x="0" y="47" width="263" height="195" rx="2"></rect>
                        <g id="Credit-Cards" transform="translate(6.000000, 0.847000)">
                            <path d="M132.498385,73.3178561 L131.995431,73.3178561 C131.994089,75.4646505 131.036464,77.4092986 129.465904,78.8337567 C127.895344,80.2555194 125.714532,81.1436158 123.297667,81.1436158 L9.70233254,81.1436158 C7.28546759,81.1436158 5.10465604,80.2555194 3.53409619,78.8337567 C1.96353634,77.4092986 1.00591061,75.4646505 1.00456939,73.3178561 L1.00456939,8.99218681 C1.00591061,6.84404475 1.96353634,4.89804906 3.53409619,3.47359099 C5.10465604,2.05182821 7.28546759,1.16238419 9.70233254,1.16238419 L123.297667,1.16238419 C125.714532,1.16238419 127.895344,2.05182821 129.465904,3.47359099 C131.036464,4.89804906 131.994089,6.84404475 131.995431,8.99218681 L131.995431,73.3178561 L133,73.3178561 L133,8.99218681 C133.00134,6.53543463 131.898863,4.31451988 130.139192,2.72295415 C128.380863,1.13004077 125.961316,0.153 123.297667,0.153 L9.70233254,0.153 C7.0400257,0.153 4.62047833,1.13004077 2.86080751,2.72295415 C1.10113669,4.31451988 -0.00133999016,6.53543463 0,8.99218681 L0,73.3178561 C-0.00133999016,75.7732607 1.10113669,77.9941754 2.86080751,79.5843935 C4.62047833,81.1773069 7.0400257,82.153 9.70233254,82.153 L123.297667,82.153 C125.961316,82.153 128.380863,81.1773069 130.139192,79.5843935 C131.898863,77.9941754 133.00134,75.7732607 133,73.3178561 L132.498385,73.3178561" id="Fill-174" fill="#505D68"></path>
                            <line x1="14" y1="4.653" x2="21" y2="4.653" id="Fill-175" fill="#FFFFFE"></line>
                            <path d="M14.4846527,5.028 L21.5153473,5.028 C21.7828756,5.028 22,4.86 22,4.653 C22,4.445 21.7828756,4.278 21.5153473,4.278 L14.4846527,4.278 C14.2171244,4.278 14,4.445 14,4.653 C14,4.86 14.2171244,5.028 14.4846527,5.028" id="Fill-176" fill="#000606"></path>
                            <path d="M4,16.153 L4,10.184658 C4,7.40637955 6.68381516,5.153 10,5.153" id="Fill-177" fill="#505D68"></path>
                            <path d="M4.16663608,16.6346587 L4.16663608,10.1436433 C4.16663608,8.7904269 4.8463948,7.56299468 5.97414095,6.65900744 C7.10033159,5.7550202 8.67139864,5.18830037 10.416683,5.18830037 C10.738674,5.18830037 11,4.95608347 11,4.67134131 C11,4.38521691 10.738674,4.153 10.416683,4.153 C8.38518444,4.153 6.53879178,4.8109479 5.19327396,5.88909782 C3.84775614,6.96448325 2.99844662,8.47389314 3,10.1436433 L3,16.6346587 C3,16.9207831 3.26132814,17.153 3.58331911,17.153 C3.90531008,17.153 4.16663608,16.9207831 4.16663608,16.6346587" id="Fill-178" fill="#505D68"></path>
                            <polyline id="Fill-179" fill="#FFFFFE" points="41.7988392 54.153 25 70.153 30.1984441 70.153 47 54.153 41.7988392 54.153"></polyline>
                            <path d="M42.0453965,53.6675601 L41.6700933,53.3025655 L24.1554715,70.2748174 C24.0025178,70.4216385 23.9586144,70.6439285 24.0407562,70.8360309 C24.1214818,71.0295056 24.3155065,71.153 24.5307747,71.153 L29.9507195,71.153 C30.0923434,71.153 30.2254698,71.1008579 30.3260227,71.0034345 L47.843477,54.0311826 C47.9964307,53.8843615 48.0417504,53.6620715 47.9596085,53.4699691 C47.8774667,53.2778666 47.683442,53.153 47.4681738,53.153 L42.0453965,53.153 C41.9051889,53.153 41.76923,53.2065143 41.6700933,53.3025655 L42.0453965,53.6675601 L42.0453965,54.1807481 L46.1864779,54.1807481 L29.7297863,70.1238797 L25.8124706,70.1238797 L42.4206997,54.0311826 L42.0453965,53.6675601 L42.0453965,54.1807481 L42.0453965,53.6675601" id="Fill-180" fill="#000606"></path>
                            <polyline id="Fill-181" fill="#FFFFFE" points="51.7998025 54.153 35 70.153 40.2001975 70.153 57 54.153 51.7998025 54.153"></polyline>
                            <path d="M52.2954984,53.6675601 L51.935876,53.3025655 L35.1489756,70.2748174 C35.0024126,70.4216385 34.9603435,70.6439285 35.0390533,70.8360309 C35.1177631,71.0295056 35.3036811,71.153 35.508598,71.153 L40.7048018,71.153 C40.8405084,71.153 40.9680726,71.1008579 41.0657813,71.0034345 L57.8513246,54.0311826 C57.9965306,53.8843615 58.0399567,53.6620715 57.9612469,53.4699691 C57.8825371,53.2778666 57.6966191,53.153 57.4917022,53.153 L52.2954984,53.153 C52.162506,53.153 52.0308706,53.2065143 51.935876,53.3025655 L52.2954984,53.6675601 L52.2954984,54.1807481 L56.2622009,54.1807481 L40.4944567,70.1238797 L36.7367423,70.1238797 L52.6564778,54.0311826 L52.2954984,53.6675601 L52.2954984,54.1807481 L52.2954984,53.6675601" id="Fill-182" fill="#000606"></path>
                            <polyline id="Fill-183" fill="#FFFFFE" points="46.5609259 54.153 29 70.153 34.4376543 70.153 52 54.153 46.5609259 54.153"></polyline>
                            <path d="M46.2921008,53.6675601 L45.9325208,53.3025655 L29.1489581,70.2748174 C29.0024123,70.4216385 28.9603482,70.6439285 29.0390487,70.8360309 C29.1177492,71.0295056 29.3036453,71.153 29.508538,71.153 L34.7054856,71.153 C34.8411762,71.153 34.9687253,71.1008579 35.0650656,71.0034345 L51.8513421,54.0311826 C51.996531,53.8843615 52.039952,53.6620715 51.9612515,53.4699691 C51.882551,53.2778666 51.6966549,53.153 51.4904053,53.153 L46.2921008,53.153 C46.1577671,53.153 46.0275042,53.2065143 45.9325208,53.3025655 L46.2921008,53.6675601 L46.2921008,54.1807481 L50.2624059,54.1807481 L34.4938084,70.1252519 L30.7365374,70.1252519 L46.6516807,54.0311826 L46.2921008,53.6675601 L46.2921008,54.1807481 L46.2921008,53.6675601" id="Fill-184" fill="#000606"></path>
                            <polyline id="Fill-185" fill="#FFFFFE" points="61.7994814 54.153 45 70.153 50.203235 70.153 67 54.153 61.7994814 54.153"></polyline>
                            <path d="M62.2954239,53.6675601 L61.9344398,53.3025655 L45.1486773,70.2748174 C45.0034694,70.4216385 44.9600428,70.6439285 45.0387536,70.8360309 C45.1174644,71.0295056 45.3033848,71.153 45.5096615,71.153 L50.7086473,71.153 C50.8429986,71.153 50.9719215,71.1008579 51.0682744,71.0034345 L67.8513227,54.0311826 C67.9965306,53.8843615 68.0399572,53.6620715 67.9612464,53.4699691 C67.8825356,53.2778666 67.6966152,53.153 67.4916956,53.153 L62.2954239,53.153 C62.1610727,53.153 62.0294356,53.2065143 61.9344398,53.3025655 L62.2954239,53.6675601 L62.2954239,54.1807481 L66.2621782,54.1807481 L50.4969423,70.1238797 L46.7378218,70.1238797 L62.655051,54.0311826 L62.2954239,53.6675601 L62.2954239,54.1807481 L62.2954239,53.6675601" id="Fill-186" fill="#000606"></path>
                            <polyline id="Fill-187" fill="#FFFFFE" points="67.796765 54.153 51 70.153 56.1991604 70.153 73 54.153 67.796765 54.153"></polyline>
                            <path d="M67.2927098,53.6675601 L66.9317256,53.3025655 L50.1486773,70.2748174 C50.0034694,70.4216385 49.9600428,70.6439285 50.0387536,70.8360309 C50.1174644,71.0295056 50.3033848,71.153 50.5096615,71.153 L55.7045761,71.153 C55.8402844,71.153 55.9678502,71.1008579 56.0642031,71.0034345 L72.8513227,54.0311826 C72.9965306,53.8843615 73.0399572,53.6620715 72.9612464,53.4699691 C72.8825356,53.2778666 72.6966152,53.153 72.4916956,53.153 L67.2927098,53.153 C67.1583585,53.153 67.0267214,53.2065143 66.9317256,53.3025655 L67.2927098,53.6675601 L67.2927098,54.1807481 L71.2635353,54.1807481 L55.491514,70.1252519 L51.7378218,70.1252519 L67.6523368,54.0311826 L67.2927098,53.6675601 L67.2927098,54.1807481 L67.2927098,53.6675601" id="Fill-188" fill="#000606"></path>
                            <polyline id="Fill-189" fill="#FFFFFE" points="36.5641786 54.153 19 70.153 24.4386615 70.153 42 54.153 36.5641786 54.153"></polyline>
                            <path d="M36.2953484,53.6675601 L35.9357135,53.3025655 L19.149584,70.2748174 C19.0030158,70.4216385 18.9595882,70.6439285 19.0396579,70.8360309 C19.1170133,71.0295056 19.3029378,71.153 19.5092189,71.153 L24.7069613,71.153 C24.8426726,71.153 24.9702412,71.1008579 25.0665963,71.0034345 L41.8500115,54.0311826 C41.9965797,53.8843615 42.0400073,53.6620715 41.9612948,53.4699691 C41.8825822,53.2778666 41.6966578,53.153 41.4903766,53.153 L36.2953484,53.153 C36.1609942,53.153 36.0307114,53.2065143 35.9357135,53.3025655 L36.2953484,53.6675601 L36.2953484,54.1807481 L40.2608323,54.1807481 L24.4952517,70.1252519 L20.7374061,70.1252519 L36.6549833,54.0311826 L36.2953484,53.6675601 L36.2953484,54.1807481 L36.2953484,53.6675601" id="Fill-190" fill="#000606"></path>
                            <polyline id="Fill-191" fill="#FFFFFE" points="72.8008396 54.153 56 70.153 61.2005186 70.153 78 54.153 72.8008396 54.153"></polyline>
                            <path d="M73.296781,53.6675601 L72.9357969,53.3025655 L56.1486773,70.2748174 C56.0034694,70.4216385 55.9600428,70.6439285 56.0387536,70.8360309 C56.1174644,71.0295056 56.3033848,71.153 56.5096615,71.153 L61.7059332,71.153 C61.8416415,71.153 61.9692073,71.1008579 62.0655602,71.0034345 L78.8513227,54.0311826 C78.9965306,53.8843615 79.0399572,53.6620715 78.9612464,53.4699691 C78.8825356,53.2778666 78.6979723,53.153 78.4916956,53.153 L73.296781,53.153 C73.1624298,53.153 73.0307927,53.2065143 72.9357969,53.3025655 L73.296781,53.6675601 L73.296781,54.1807481 L77.2621782,54.1807481 L61.4942282,70.1238797 L57.7378218,70.1238797 L73.6564081,54.0311826 L73.296781,53.6675601 L73.296781,54.1807481 L73.296781,53.6675601" id="Fill-192" fill="#000606"></path>
                            <polyline id="Fill-193" fill="#FFFFFE" points="4.91977191 55.153 0 59.5831446 0 64.153 10 55.153 4.91977191 55.153"></polyline>
                            <path d="M5.42004586,54.6507942 L5.06711264,54.2976922 L0.144623011,59.2225364 C0.0517458479,59.315458 0,59.4442208 0,59.5756384 L0,64.6557945 C0,64.8562396 0.120740312,65.0381004 0.306494637,65.1150926 C0.492248963,65.1920848 0.705866438,65.1496063 0.847835815,65.007569 L10.8533599,55.0025688 C10.9966561,54.8605315 11.0391142,54.6454844 10.9621589,54.4596412 C10.8852035,54.2737981 10.7034296,54.153 10.5030803,54.153 L5.42004586,54.153 C5.28869102,54.153 5.15998981,54.2047706 5.06711264,54.2976922 L5.42004586,54.6507942 L5.42004586,55.147261 L9.30098445,55.147261 L0.993785643,63.4544511 L0.993785643,59.7827208 L5.77165226,55.0025688 L5.42004586,54.6507942 L5.42004586,55.147261 L5.42004586,54.6507942" id="Fill-194" fill="#000606"></path>
                            <polyline id="Fill-195" fill="#FFFFFE" points="10.6127188 54.153 0 64.098896 0 69.153 16 54.153 10.6127188 54.153"></polyline>
                            <path d="M10.4514098,53.6481902 L10.1002128,53.2969353 L0.143911529,63.249598 C0.051491281,63.3420335 0,63.4701227 0,63.6008529 L0,68.6583954 C0,68.857792 0.120146322,69.0387015 0.304986818,69.1152909 C0.489827314,69.1918803 0.702393885,69.1496241 0.844985124,69.0083298 L15.8553537,53.9981246 C15.9966246,53.8568303 16.0388739,53.6429082 15.9622971,53.4580372 C15.8857203,53.2731662 15.7048407,53.153 15.505477,53.153 L10.4514098,53.153 C10.3207011,53.153 10.1926331,53.2044998 10.1002128,53.2969353 L10.4514098,53.6481902 L10.4514098,54.1420599 L14.309295,54.1420599 L0.988896653,67.4620159 L0.988896653,63.8055315 L10.7999661,53.9981246 L10.4514098,53.6481902 L10.4514098,54.1420599 L10.4514098,53.6481902" id="Fill-196" fill="#000606"></path>
                            <polyline id="Fill-197" fill="#FFFFFE" points="0 54.153 0 59.153 6 54.153 0 54.153"></polyline>
                            <path d="M0.504534472,53.6575345 L0,53.6575345 L0,58.6490622 C0,58.8522214 0.122433698,59.0365447 0.310793234,59.1145793 C0.49915277,59.192614 0.715766237,59.1495604 0.861072165,59.0055999 L5.85259987,54.0140722 C5.99656037,53.8701117 6.03961398,53.6521528 5.96157932,53.4637932 C5.88354465,53.2754337 5.69922139,53.153 5.49606218,53.153 L0.504534472,53.153 C0.371337371,53.153 0.240831121,53.2054716 0.146651353,53.2996514 C0.052471585,53.3938311 0,53.5243374 0,53.6575345 L0.504534472,53.6575345 L0.504534472,54.1607235 L4.27710689,54.1607235 L1.00772352,57.4301069 L1.00772352,53.6575345 L0.504534472,53.6575345 L0.504534472,54.1607235 L0.504534472,53.6575345" id="Fill-198" fill="#000606"></path>
                            <polyline id="Fill-199" fill="#FFFFFE" points="25.796765 54.153 9 70.153 14.1991604 70.153 31 54.153 25.796765 54.153"></polyline>
                            <path d="M26.2927098,53.6675601 L25.9330827,53.3025655 L9.14867734,70.2748174 C9.00346943,70.4216385 8.96004277,70.6439285 9.0387536,70.8360309 C9.11746442,71.0295056 9.30338483,71.153 9.50966148,71.153 L14.7045761,71.153 C14.8402844,71.153 14.9678502,71.1008579 15.0642031,71.0034345 L31.8513227,54.0311826 C31.9965306,53.8843615 32.0399572,53.6620715 31.9612464,53.4699691 C31.8825356,53.2778666 31.6979723,53.153 31.4916956,53.153 L26.2927098,53.153 C26.1583585,53.153 26.0267214,53.2065143 25.9330827,53.3025655 L26.2927098,53.6675601 L26.2927098,54.1807481 L30.2621782,54.1807481 L14.4928711,70.1252519 L10.7378218,70.1252519 L26.6523368,54.0311826 L26.2927098,53.6675601 L26.2927098,54.1807481 L26.2927098,53.6675601" id="Fill-200" fill="#000606"></path>
                            <polyline id="Fill-201" fill="#FFFFFE" points="31.8008396 54.153 15 70.153 20.2005186 70.153 37 54.153 31.8008396 54.153"></polyline>
                            <path d="M31.2964741,53.6675601 L30.9368535,53.3025655 L14.1486747,70.2748174 C14.0034694,70.4216385 13.9600435,70.6439285 14.0387529,70.8360309 C14.1174623,71.0295056 14.3033794,71.153 14.5096524,71.153 L19.7058319,71.153 C19.8415378,71.153 19.9691014,71.1008579 20.0654526,71.0034345 L36.8509172,54.0311826 C36.9961226,53.8843615 37.0395485,53.6620715 36.9621961,53.4699691 C36.8821296,53.2778666 36.6975696,53.153 36.4912966,53.153 L31.2964741,53.153 C31.1621253,53.153 31.0304905,53.2065143 30.9368535,53.3025655 L31.2964741,53.6675601 L31.2964741,54.1807481 L35.261801,54.1807481 L19.4941307,70.1238797 L15.737791,70.1238797 L31.6560948,54.0311826 L31.2964741,53.6675601 L31.2964741,54.1807481 L31.2964741,53.6675601" id="Fill-202" fill="#000606"></path>
                            <polyline id="Fill-203" fill="#FFFFFE" points="20.7988392 54.153 4 70.153 9.20116078 70.153 26 54.153 20.7988392 54.153"></polyline>
                            <path d="M20.2947507,53.6675601 L19.9337239,53.3025655 L3.14869488,70.2748174 C3.00346984,70.4216385 2.96003805,70.6439285 3.03875817,70.8360309 C3.11747829,71.0295056 3.30342063,71.153 3.50972163,71.153 L8.70660658,71.153 C8.84233092,71.153 8.9699118,71.1008579 9.06627608,71.0034345 L25.8513051,54.0311826 C25.9965302,53.8843615 26.0399619,53.6620715 25.9612418,53.4699691 C25.8825217,53.2778666 25.6979366,53.153 25.4916356,53.153 L20.2947507,53.153 C20.1603836,53.153 20.028731,53.2065143 19.9337239,53.3025655 L20.2947507,53.6675601 L20.2947507,54.1807481 L24.2619731,54.1807481 L8.49487661,70.1238797 L4.7380269,70.1238797 L20.6544202,54.0311826 L20.2947507,53.6675601 L20.2947507,54.1807481 L20.2947507,53.6675601" id="Fill-204" fill="#000606"></path>
                            <polyline id="Fill-205" fill="#FFFFFE" points="14.9621636 54.153 0 68.8568564 0 70.153 3.72441929 70.153 20 54.153 14.9621636 54.153"></polyline>
                            <path d="M16.2021186,53.6675601 L15.8351428,53.3025655 L0.150377293,68.8999126 C0.0538047194,68.9959639 0,69.1290634 0,69.2649073 L0,70.639812 C0,70.7770281 0.0538047194,70.9060111 0.150377293,71.0034345 C0.248329474,71.1008579 0.378012644,71.153 0.517353071,71.153 L4.42164425,71.153 C4.55822546,71.153 4.68928824,71.1008579 4.78724042,71.0034345 L21.8488549,54.0311826 C21.996473,53.8843615 22.0406204,53.6620715 21.9606032,53.4699691 C21.8805859,53.2778666 21.6915796,53.153 21.4832587,53.153 L16.2021186,53.153 C16.0655374,53.153 15.9317154,53.2065143 15.8351428,53.3025655 L16.2021186,53.6675601 L16.2021186,54.1807481 L20.2347133,54.1807481 L4.20504576,70.1238797 L1.03332653,70.1238797 L1.03332653,69.4775922 L16.5677148,54.0311826 L16.2021186,53.6675601 L16.2021186,54.1807481 L16.2021186,53.6675601" id="Fill-206" fill="#000606"></path>
                            <polyline id="Fill-207" fill="#FFFFFE" points="57.8008396 54.153 41 70.153 46.2005186 70.153 63 54.153 57.8008396 54.153"></polyline>
                            <path d="M57.2964445,53.6675601 L56.935439,53.3025655 L40.1486861,70.2748174 C40.0034696,70.4216385 39.9600404,70.6439285 40.0387559,70.8360309 C40.1174714,71.0295056 40.3034027,71.153 40.5083344,71.153 L45.7049127,71.153 C45.8392719,71.153 45.9682024,71.1008579 46.064561,71.0034345 L62.8513139,54.0311826 C62.9965304,53.8843615 63.0399596,53.6620715 62.9612441,53.4699691 C62.8825286,53.2778666 62.6965973,53.153 62.4916656,53.153 L57.2964445,53.153 C57.1620853,53.153 57.0304405,53.2065143 56.935439,53.3025655 L57.2964445,53.6675601 L57.2964445,54.1807481 L61.2620757,54.1807481 L45.491838,70.1252519 L41.7365672,70.1252519 L57.6560928,54.0311826 L57.2964445,53.6675601 L57.2964445,54.1807481 L57.2964445,53.6675601" id="Fill-208" fill="#000606"></path>
                            <polyline id="Fill-209" fill="#FFFFFE" points="133 54.153 129.30025 54.153 113 70.153 118.045473 70.153 133 55.4737212 133 54.153"></polyline>
                            <path d="M132.483281,53.6675601 L132.483281,53.153 L128.605128,53.153 C128.468349,53.153 128.334334,53.2065143 128.239003,53.3025655 L111.151363,70.2748174 C111.003532,70.4216385 110.959321,70.6439285 111.039454,70.8360309 C111.119587,71.0295056 111.308866,71.153 111.518869,71.153 L116.807637,71.153 C116.945798,71.153 117.075668,71.1008579 117.173762,71.0034345 L132.849406,55.4321584 C132.947499,55.334735 133,55.2057519 133,55.0685359 L133,53.6675601 C133,53.5289719 132.947499,53.3999889 132.849406,53.3039376 C132.751312,53.2051421 132.621441,53.153 132.483281,53.153 L132.483281,53.6675601 L131.965181,53.6675601 L131.965181,54.8544789 L116.592108,70.1252519 L112.769218,70.1252519 L128.819276,54.1807481 L132.483281,54.1807481 L132.483281,53.6675601 L131.965181,53.6675601 L132.483281,53.6675601" id="Fill-210" fill="#000606"></path>
                            <polyline id="Fill-211" fill="#FFFFFE" points="124.563094 54.153 107 70.153 112.439746 70.153 130 54.153 124.563094 54.153"></polyline>
                            <path d="M124.295424,53.6675601 L123.93444,53.3025655 L107.148677,70.2748174 C107.003469,70.4216385 106.960043,70.6439285 107.038754,70.8360309 C107.117464,71.0295056 107.303385,71.153 107.509661,71.153 L112.708647,71.153 C112.844356,71.153 112.971921,71.1008579 113.068274,71.0034345 L129.851323,54.0311826 C129.996531,53.8843615 130.039957,53.6620715 129.961246,53.4699691 C129.882536,53.2778666 129.697972,53.153 129.491696,53.153 L124.295424,53.153 C124.161073,53.153 124.029436,53.2065143 123.93444,53.3025655 L124.295424,53.6675601 L124.295424,54.1807481 L128.263535,54.1807481 L112.496942,70.1238797 L108.737822,70.1238797 L124.655051,54.0311826 L124.295424,53.6675601 L124.295424,54.1807481 L124.295424,53.6675601" id="Fill-212" fill="#000606"></path>
                            <polyline id="Fill-213" fill="#FFFFFE" points="118.800519 54.153 102 70.153 107.199481 70.153 124 54.153 118.800519 54.153"></polyline>
                            <path d="M118.296444,53.6675601 L117.935439,53.3025655 L101.148686,70.2748174 C101.00347,70.4216385 100.96004,70.6439285 101.038756,70.8360309 C101.117471,71.0295056 101.303403,71.153 101.509692,71.153 L106.704913,71.153 C106.840629,71.153 106.968202,71.1008579 107.064561,71.0034345 L123.851314,54.0311826 C123.99653,53.8843615 124.03996,53.6620715 123.961244,53.4699691 C123.882529,53.2778666 123.696597,53.153 123.491666,53.153 L118.296444,53.153 C118.162085,53.153 118.03044,53.2065143 117.935439,53.3025655 L118.296444,53.6675601 L118.296444,54.1807481 L122.262076,54.1807481 L106.491838,70.1252519 L102.736567,70.1252519 L118.656093,54.0311826 L118.296444,53.6675601 L118.296444,54.1807481 L118.296444,53.6675601" id="Fill-214" fill="#000606"></path>
                            <polyline id="Fill-215" fill="#FFFFFE" points="133 56.153 117 71.153 122.399612 71.153 133 61.2155661 133 56.153"></polyline>
                            <path d="M132.505271,55.6802928 L132.153406,55.3078932 L117.146197,71.25362 C117.003334,71.4039851 116.961004,71.6316406 117.037727,71.82838 C117.114449,72.0265247 117.295673,72.153 117.49674,72.153 L122.561755,72.153 C122.694036,72.153 122.818379,72.0995993 122.912298,71.9998243 L132.855814,61.4349196 C132.949733,61.3351447 133,61.2030482 133,61.0625201 L133,55.6802928 C133,55.46669 132.879625,55.2755718 132.694432,55.1940654 C132.50924,55.1111538 132.294946,55.1561228 132.153406,55.3078932 L132.505271,55.6802928 L132.00922,55.6802928 L132.00922,60.8432962 L122.355398,71.099039 L118.693877,71.099039 L132.855814,56.0526923 L132.505271,55.6802928 L132.00922,55.6802928 L132.505271,55.6802928" id="Fill-216" fill="#000606"></path>
                            <polyline id="Fill-217" fill="#FFFFFE" points="113.56485 54.153 96 70.153 101.43799 70.153 119 54.153 113.56485 54.153"></polyline>
                            <path d="M113.296781,53.6675601 L112.935797,53.3025655 L96.1486773,70.2748174 C96.0034694,70.4216385 95.9600428,70.6439285 96.0387536,70.8360309 C96.1174644,71.0295056 96.3033848,71.153 96.5083044,71.153 L101.705933,71.153 C101.840284,71.153 101.969207,71.1008579 102.06556,71.0034345 L118.851323,54.0311826 C118.996531,53.8843615 119.039957,53.6620715 118.961246,53.4699691 C118.882536,53.2778666 118.696615,53.153 118.491696,53.153 L113.296781,53.153 C113.16243,53.153 113.030793,53.2065143 112.935797,53.3025655 L113.296781,53.6675601 L113.296781,54.1807481 L117.262178,54.1807481 L101.494228,70.1238797 L97.7378218,70.1238797 L113.656408,54.0311826 L113.296781,53.6675601 L113.296781,54.1807481 L113.296781,53.6675601" id="Fill-218" fill="#000606"></path>
                            <polyline id="Fill-219" fill="#FFFFFE" points="133 66.153 128 71.153 133 71.153 133 66.153"></polyline>
                            <path d="M132.494342,65.7441617 L132.134702,65.3261597 L127.148423,71.1434857 C127.002404,71.3122639 126.960491,71.5677972 127.038908,71.7886284 C127.117326,72.0110371 127.302554,72.153 127.50671,72.153 L132.494342,72.153 C132.628192,72.153 132.756635,72.0930601 132.851277,71.9810671 C132.948623,71.8690741 133,71.7208017 133,71.5630651 L133,65.7441617 C133,65.5059795 132.876965,65.2898803 132.687682,65.1983931 C132.498398,65.1069059 132.279369,65.1558042 132.134702,65.3261597 L132.494342,65.7441617 L131.987331,65.7441617 L131.987331,70.9699755 L128.731647,70.9699755 L132.852629,66.1637411 L132.494342,65.7441617 L131.987331,65.7441617 L132.494342,65.7441617" id="Fill-220" fill="#000606"></path>
                            <polyline id="Fill-221" fill="#FFFFFE" points="133 60.153 123 70.153 128.092457 70.153 133 65.2461099 133 60.153"></polyline>
                            <path d="M132.547556,60.6516895 L132.225765,60.2990733 L123.133341,70.3013985 C123.002688,70.4437757 122.963977,70.6593373 123.035351,70.8456251 C123.104307,71.0332435 123.270041,71.153 123.453922,71.153 L128.084816,71.153 C128.205791,71.153 128.319506,71.1024362 128.405398,71.0079616 L132.868138,66.1006082 C132.95403,66.0048031 133,65.8810547 133,65.7466614 L133,60.6516895 C133,60.4507648 132.889913,60.2684689 132.720549,60.1912925 C132.551186,60.1141161 132.355207,60.1553656 132.225765,60.2990733 L132.547556,60.6516895 L132.093903,60.6516895 L132.093903,65.5390835 L127.896097,70.1563602 L124.548739,70.1563602 L132.868138,61.0043058 L132.547556,60.6516895 L132.093903,60.6516895 L132.547556,60.6516895" id="Fill-222" fill="#000606"></path>
                            <polyline id="Fill-223" fill="#FFFFFE" points="108.797729 54.153 92 70.153 97.2009135 70.153 114 54.153 108.797729 54.153"></polyline>
                            <path d="M108.293383,53.6675601 L107.932442,53.3025655 L91.1486598,70.2748174 C91.003469,70.4216385 90.9600475,70.6439285 91.038749,70.8360309 C91.1174506,71.0295056 91.303349,71.153 91.5082444,71.153 L96.7052599,71.153 C96.8409522,71.153 96.9698599,71.1008579 97.0662014,71.0034345 L113.85134,54.0311826 C113.996531,53.8843615 114.039953,53.6620715 113.961251,53.4699691 C113.882549,53.2778666 113.696651,53.153 113.491756,53.153 L108.293383,53.153 C108.159048,53.153 108.027426,53.2065143 107.932442,53.3025655 L108.293383,53.6675601 L108.293383,54.1807481 L112.262383,54.1807481 L96.4935799,70.1252519 L92.7362598,70.1252519 L108.652968,54.0311826 L108.293383,53.6675601 L108.293383,54.1807481 L108.293383,53.6675601" id="Fill-224" fill="#000606"></path>
                            <polyline id="Fill-225" fill="#FFFFFE" points="92.8008396 54.153 76 70.153 81.2005186 70.153 98 54.153 92.8008396 54.153"></polyline>
                            <path d="M93.2955354,53.6675601 L92.9359123,53.3025655 L76.148976,70.2748174 C76.0024126,70.4216385 75.9603434,70.6439285 76.0390534,70.8360309 C76.1177634,71.0295056 76.3023247,71.153 76.5085991,71.153 L81.7048141,71.153 C81.8405209,71.153 81.9680853,71.1008579 82.0644372,71.0034345 L98.8500165,54.0311826 C98.9965798,53.8843615 99.040006,53.6620715 98.9612961,53.4699691 C98.8825861,53.2778666 98.6966677,53.153 98.4903933,53.153 L93.2955354,53.153 C93.1611856,53.153 93.0309071,53.2065143 92.9359123,53.3025655 L93.2955354,53.6675601 L93.2955354,54.1807481 L97.2622464,54.1807481 L81.4931114,70.1238797 L77.7381031,70.1238797 L93.6551585,54.0311826 L93.2955354,53.6675601 L93.2955354,54.1807481 L93.2955354,53.6675601" id="Fill-226" fill="#000606"></path>
                            <polyline id="Fill-227" fill="#FFFFFE" points="77.8005186 54.153 61 70.153 66.1994814 70.153 83 54.153 77.8005186 54.153"></polyline>
                            <path d="M77.2964445,53.6675601 L76.9367962,53.3025655 L60.1486861,70.2748174 C60.0034696,70.4216385 59.9600404,70.6439285 60.0387559,70.8360309 C60.1174714,71.0295056 60.3034027,71.153 60.5096915,71.153 L65.7049127,71.153 C65.840629,71.153 65.9682024,71.1008579 66.064561,71.0034345 L82.8513139,54.0311826 C82.9965304,53.8843615 83.0399596,53.6620715 82.9612441,53.4699691 C82.8825286,53.2778666 82.6979544,53.153 82.4916656,53.153 L77.2964445,53.153 C77.1620853,53.153 77.0304405,53.2065143 76.9367962,53.3025655 L77.2964445,53.6675601 L77.2964445,54.1807481 L81.2634328,54.1807481 L65.4931952,70.1252519 L61.7379243,70.1252519 L77.6560928,54.0311826 L77.2964445,53.6675601 L77.2964445,54.1807481 L77.2964445,53.6675601" id="Fill-228" fill="#000606"></path>
                            <polyline id="Fill-229" fill="#FFFFFE" points="82.7994814 54.153 66 70.153 71.203235 70.153 88 54.153 82.7994814 54.153"></polyline>
                            <path d="M83.2951049,53.6675601 L82.9354834,53.3025655 L66.1499828,70.2748174 C66.0034201,70.4216385 65.9599942,70.6439285 66.0387038,70.8360309 C66.1174134,71.0295056 66.3033309,71.153 66.5096043,71.153 L71.708509,71.153 C71.8442152,71.153 71.9717791,71.1008579 72.0681305,71.0034345 L88.8509169,54.0311826 C88.9961226,53.8843615 89.0395485,53.6620715 88.962196,53.4699691 C88.8821293,53.2778666 88.6975689,53.153 88.4912955,53.153 L83.2951049,53.153 C83.1607557,53.153 83.0291207,53.2065143 82.9354834,53.3025655 L83.2951049,53.6675601 L83.2951049,54.1807481 L87.2617973,54.1807481 L71.4968073,70.1238797 L67.7391025,70.1238797 L83.6547263,54.0311826 L83.2951049,53.6675601 L83.2951049,54.1807481 L83.2951049,53.6675601" id="Fill-230" fill="#000606"></path>
                            <polyline id="Fill-231" fill="#FFFFFE" points="87.796765 54.153 71 70.153 76.1991604 70.153 93 54.153 87.796765 54.153"></polyline>
                            <path d="M87.2916139,53.6675601 L86.9320002,53.3025655 L70.1495752,70.2748174 C70.0030156,70.4216385 69.9595906,70.6439285 70.0396555,70.8360309 C70.1170064,71.0295056 70.3029199,71.153 70.5091889,71.153 L75.7039106,71.153 C75.8396138,71.153 75.9671749,71.1008579 76.0635243,71.0034345 L92.8500204,54.0311826 C92.9965799,53.8843615 93.040005,53.6620715 92.9612971,53.4699691 C92.8825892,53.2778666 92.6966757,53.153 92.4904067,53.153 L87.2916139,53.153 C87.1572677,53.153 87.0269925,53.2065143 86.9320002,53.3025655 L87.2916139,53.6675601 L87.2916139,54.1807481 L91.2609349,54.1807481 L75.4922134,70.1252519 L71.7373036,70.1252519 L87.6512276,54.0311826 L87.2916139,53.6675601 L87.2916139,54.1807481 L87.2916139,53.6675601" id="Fill-232" fill="#000606"></path>
                            <polyline id="Fill-233" fill="#FFFFFE" points="102.797802 54.153 86 70.153 91.1981231 70.153 108 54.153 102.797802 54.153"></polyline>
                            <path d="M103.293468,53.6675601 L102.933803,53.3025655 L86.1489932,70.2748174 C86.0024128,70.4216385 85.9603388,70.6439285 86.0390579,70.8360309 C86.117777,71.0295056 86.3037169,71.153 86.508658,71.153 L91.7027607,71.153 C91.8384832,71.153 91.9674197,71.1008579 92.0637827,71.0034345 L108.851307,54.0311826 C108.99653,53.8843615 109.039961,53.6620715 108.961242,53.4699691 C108.882523,53.2778666 108.696583,53.153 108.491642,53.153 L103.293468,53.153 C103.16046,53.153 103.028809,53.2065143 102.933803,53.3025655 L103.293468,53.6675601 L103.293468,54.1807481 L107.261996,54.1807481 L91.4923907,70.1238797 L87.7369473,70.1238797 L103.65449,54.0311826 L103.293468,53.6675601 L103.293468,54.1807481 L103.293468,53.6675601" id="Fill-234" fill="#000606"></path>
                            <polyline id="Fill-235" fill="#FFFFFE" points="98.8005186 54.153 82 70.153 87.2021979 70.153 104 54.153 98.8005186 54.153"></polyline>
                            <path d="M98.2951618,53.6675601 L97.9355182,53.3025655 L81.1489844,70.2748174 C81.0024127,70.4216385 80.9603412,70.6439285 81.0390556,70.8360309 C81.1177701,71.0295056 81.303699,71.153 81.508628,71.153 L86.7064956,71.153 C86.8422102,71.153 86.9697819,71.1008579 87.0661392,71.0034345 L103.851316,54.0311826 C103.99653,53.8843615 104.039959,53.6620715 103.961245,53.4699691 C103.88253,53.2778666 103.696601,53.153 103.490315,53.153 L98.2951618,53.153 C98.1608044,53.153 98.0305184,53.2065143 97.9355182,53.3025655 L98.2951618,53.6675601 L98.2951618,54.1807481 L102.262098,54.1807481 L86.4947809,70.1252519 L82.7382019,70.1252519 L98.6548054,54.0311826 L98.2951618,53.6675601 L98.2951618,54.1807481 L98.2951618,53.6675601" id="Fill-236" fill="#000606"></path>
                            <polyline id="Fill-237" fill="#505D68" points="100.727564 23.153 106 18.153 104.267949 18.153 99 23.153 100.727564 23.153"></polyline>
                            <path d="M100.973052,23.627842 L101.314666,23.9999459 L105.85877,19.051666 C105.996704,18.9000161 106.037956,18.6739455 105.963188,18.4773623 C105.888419,18.2807791 105.711812,18.153 105.517156,18.153 L104.02437,18.153 C103.896748,18.153 103.771705,18.2077625 103.682756,18.3060541 L99.1412302,23.2557381 C99.0032956,23.4059839 98.9620442,23.6320545 99.0368124,23.8286377 C99.1115807,24.0266251 99.2881884,24.153 99.4841328,24.153 L100.973052,24.153 C101.101963,24.153 101.223139,24.0996417 101.314666,23.9999459 L100.973052,23.627842 L100.973052,23.1012799 L100.650775,23.1012799 L104.224181,19.2047201 L104.349225,19.2047201 L100.631439,23.254334 L100.973052,23.627842 L100.973052,23.1012799 L100.973052,23.627842" id="Fill-238" fill="#505D68"></path>
                            <polyline id="Fill-239" fill="#505D68" points="96.3041881 26.153 92 29.153 93.6958119 29.153 98 26.153 96.3041881 26.153"></polyline>
                            <path d="M96.7859744,25.6627879 L96.4006888,25.3011784 L92.1596505,29.2829619 C92.0032188,29.4284214 91.9568686,29.6486498 92.0423267,29.8389706 C92.1248879,30.0292915 92.3233245,30.153 92.5434876,30.153 L94.2149898,30.153 C94.359834,30.153 94.4959875,30.1013415 94.5988269,30.0048216 L98.8413137,26.0230381 C98.996297,25.8775786 99.0426472,25.6587096 98.9586375,25.4683888 C98.8746279,25.2767085 98.6776398,25.153 98.4574766,25.153 L96.7859744,25.153 C96.6425787,25.153 96.5020798,25.2060179 96.4006888,25.3011784 L96.7859744,25.6627879 L96.7859744,26.1725759 L97.1451881,26.1725759 L93.9890328,29.1334241 L93.8543277,29.1334241 L97.1698116,26.0230381 L96.7859744,25.6627879 L96.7859744,26.1725759 L96.7859744,25.6627879" id="Fill-240" fill="#505D68"></path>
                            <polyline id="Fill-241" fill="#505D68" points="106 18.153 105.365297 18.153 100 23.153 101.759513 23.153 106 19.2015244 106 18.153"></polyline>
                            <path d="M106.441884,18.6795621 L106.441884,18.153 L105.819599,18.153 C105.671862,18.153 105.52711,18.2077625 105.42265,18.3060541 L100.16382,23.254334 C100.002653,23.4045797 99.956392,23.6320545 100.042945,23.8286377 C100.129498,24.0266251 100.332449,24.153 100.559277,24.153 L102.284364,24.153 C102.433593,24.153 102.573868,24.0996417 102.679821,23.9999459 L106.83734,20.0893445 C106.941801,19.9896487 107,19.8576571 107,19.7172406 L107,18.6795621 C107,18.5377414 106.941801,18.4057498 106.83734,18.3060541 C106.731388,18.2063583 106.591113,18.153 106.441884,18.153 L106.441884,18.6795621 L105.882275,18.6795621 L105.882275,19.4967866 L102.051567,23.0998757 L101.911292,23.0998757 L106.050904,19.2047201 L106.441884,19.2047201 L106.441884,18.6795621 L105.882275,18.6795621 L106.441884,18.6795621" id="Fill-242" fill="#505D68"></path>
                            <polyline id="Fill-243" fill="#505D68" points="98.3010279 26.153 94 29.153 95.6989721 29.153 100 26.153 98.3010279 26.153"></polyline>
                            <path d="M97.7825041,25.6627879 L97.3988937,25.3011784 L93.1589128,29.2829619 C93.0025735,29.4284214 92.9576983,29.6486498 93.0416583,29.8389706 C93.1256183,30.0292915 93.3239377,30.153 93.5425233,30.153 L95.2173808,30.153 C95.3606919,30.153 95.496765,30.0999821 95.5995437,30.0048216 L99.8409722,26.0230381 C99.9958639,25.8775786 100.042187,25.6587096 99.9596742,25.4683888 C99.8757142,25.2767085 99.6773949,25.153 99.4573617,25.153 L97.7825041,25.153 C97.6391931,25.153 97.4987772,25.2060179 97.3988937,25.3011784 L97.7825041,25.6627879 L97.7825041,26.1725759 L98.1472959,26.1725759 L94.9915574,29.1334241 L94.8540366,29.1334241 L98.1661146,26.0230381 L97.7825041,25.6627879 L97.7825041,26.1725759 L97.7825041,25.6627879" id="Fill-244" fill="#505D68"></path>
                            <polyline id="Fill-245" fill="#505D68" points="106 19.153 103 22.153 104.243719 22.153 106 20.3971652 106 19.153"></polyline>
                            <path d="M106.365125,19.684264 L105.913584,19.3079792 L101.185975,23.247653 C101.00434,23.3990157 100.950019,23.6281817 101.048475,23.8262263 C101.146932,24.0256856 101.379493,24.153 101.635819,24.153 L103.596461,24.153 C103.764516,24.153 103.924084,24.0978304 104.046306,23.9988081 L106.813272,21.6930026 C106.933797,21.5925656 107,21.4595928 107,21.3181323 L107,19.684264 C107,19.4692441 106.845525,19.2754433 106.607872,19.1933962 C106.370218,19.1113491 106.095219,19.1566165 105.913584,19.3079792 L106.365125,19.684264 L105.728553,19.684264 L105.728553,21.097454 L103.331647,23.0920465 L103.173777,23.0920465 L106.81497,20.0591342 L106.365125,19.684264 L105.728553,19.684264 L106.365125,19.684264" id="Fill-246" fill="#505D68"></path>
                            <polyline id="Fill-247" fill="#505D68" points="99.3041881 26.153 95 29.153 96.6972814 29.153 101 26.153 99.3041881 26.153"></polyline>
                            <path d="M99.1015464,25.6627879 L98.772634,25.3011784 L95.1359793,29.2829619 C95.0031731,29.4284214 94.9634554,29.6486498 95.0354438,29.8389706 C95.1074322,30.0292915 95.2774737,30.153 95.4661329,30.153 L96.8996947,30.153 C97.0238127,30.153 97.1404835,30.1013415 97.2286072,30.0048216 L100.864021,26.0230381 C100.996827,25.8775786 101.036545,25.6587096 100.964556,25.4683888 C100.892568,25.2767085 100.722526,25.153 100.533867,25.153 L99.1015464,25.153 C98.9786697,25.153 98.8595165,25.2073774 98.772634,25.3011784 L99.1015464,25.6627879 L99.1015464,26.1725759 L99.4106,26.1725759 L96.7060708,29.1334241 L96.5894,29.1334241 L99.4304589,26.0230381 L99.1015464,25.6627879 L99.1015464,26.1725759 L99.1015464,25.6627879" id="Fill-248" fill="#505D68"></path>
                            <polyline id="Fill-249" fill="#505D68" points="92.7246964 32.153 91 35.0264364 91 37.153 94 32.153 92.7246964 32.153"></polyline>
                            <path d="M93.7938388,32.6937663 L93.4116151,32.3101827 L91.1586589,34.5640969 C91.0562518,34.6650399 91,34.8034761 91,34.9462384 L91,36.6132408 C91,36.8309893 91.1312542,37.0285493 91.334626,37.1121878 C91.5365555,37.1958264 91.7687744,37.1482389 91.9231062,36.9939403 L95.8419807,33.0759079 C95.9963126,32.9201672 96.0424679,32.6879982 95.9588114,32.4861121 C95.8751549,32.284226 95.6775524,32.153 95.4597571,32.153 L93.7938388,32.153 C93.6524881,32.153 93.5125798,32.2092397 93.4116151,32.3101827 L93.7938388,32.6937663 L93.7938388,33.2330906 L94.1529848,33.2330906 L92.0803228,35.3067493 L92.0803228,35.1711972 L94.1775048,33.0759079 L93.7938388,32.6937663 L93.7938388,33.2330906 L93.7938388,32.6937663" id="Fill-250" fill="#505D68"></path>
                            <polyline id="Fill-251" fill="#505D68" points="100.300612 26.153 96 29.153 97.6979192 29.153 102 26.153 100.300612 26.153"></polyline>
                            <path d="M101.7827,25.6627879 L101.399048,25.3011784 L97.1586097,29.2829619 C97.0037012,29.4284214 96.9573734,29.6486498 97.0413425,29.8389706 C97.1253116,30.0292915 97.3236524,30.153 97.5437093,30.153 L99.2172999,30.153 C99.3620742,30.153 99.498162,30.1013415 99.6009517,30.0048216 L103.84139,26.0230381 C103.996299,25.8775786 104.042627,25.6587096 103.958657,25.4683888 C103.874688,25.2767085 103.676348,25.153 103.457738,25.153 L101.7827,25.153 C101.640821,25.153 101.50039,25.2060179 101.399048,25.3011784 L101.7827,25.6627879 L101.7827,26.1725759 L102.146084,26.1725759 L98.991452,29.1334241 L98.8539165,29.1334241 L102.1678,26.0230381 L101.7827,25.6627879 L101.7827,26.1725759 L101.7827,25.6627879" id="Fill-252" fill="#505D68"></path>
                            <path d="M95.2080537,32.153 L91,36.6026589 L91,36.9087981 C91,37.3655512 91.1239029,37.7846508 91.326794,38.153 L97,32.153 L95.2080537,32.153" id="Fill-253" fill="#505D68"></path>
                            <path d="M95.0124955,32.6626145 L94.6673067,32.3024869 L91.1427473,35.9961728 C91.0519081,36.0899419 91,36.2217622 91,36.3563004 L91,36.6104282 C91,37.0874274 91.1323656,37.5277343 91.339998,37.8987337 C91.4152647,38.0359898 91.5476304,38.1283999 91.6981638,38.1487845 C91.8473996,38.1691691 91.9979331,38.1148102 92.1043447,38.0033745 L96.8578282,33.0227421 C96.9966824,32.8759731 97.0382089,32.6571786 96.9629421,32.4669225 C96.8876754,32.2766665 96.7111879,32.153 96.5139371,32.153 L95.0124955,32.153 C94.884023,32.153 94.7581459,32.2059999 94.6673067,32.3024869 L95.0124955,32.6626145 L95.0124955,33.17087 L95.3408142,33.17087 L91.4152647,37.2831193 L91.7604536,37.6432469 L92.1809091,37.3864012 C92.0485435,37.1485811 91.9732767,36.8903764 91.9732767,36.6104282 L91.9732767,36.5655821 L95.3563867,33.0227421 L95.0124955,32.6626145 L95.0124955,33.17087 L95.0124955,32.6626145" id="Fill-254" fill="#505D68"></path>
                            <path d="M111.447489,18.153 L108.36664,21.4078241 L108.36664,22.217983 C108.36664,22.6280284 108.21488,22.9330795 108,23.153 L108.265915,23.153 L113,18.153 L111.447489,18.153" id="Fill-255" fill="#505D68"></path>
                            <path d="M111.946712,18.6795621 L111.589864,18.3060541 L108.512393,21.5286143 C108.418486,21.6269059 108.366167,21.7617058 108.366167,21.9007182 L108.366167,22.7024968 C108.3608,22.9692883 108.282992,23.1097049 108.152863,23.2487173 C108.005295,23.398963 107.959683,23.6264379 108.037492,23.8258294 C108.113959,24.0238168 108.297748,24.153 108.503003,24.153 L108.768626,24.153 C108.902779,24.153 109.030224,24.0996417 109.125473,23.9999459 L113.853027,19.051666 C113.99657,18.9000161 114.039499,18.6739455 113.961691,18.4773623 C113.883882,18.2807791 113.700092,18.153 113.497521,18.153 L111.946712,18.153 C111.8139,18.153 111.683772,18.2077625 111.589864,18.3060541 L111.946712,18.6795621 L111.946712,19.2047201 L112.282094,19.2047201 L108.559347,23.1012799 L108.503003,23.1012799 L108.503003,23.627842 L108.853142,24.0055626 C109.152303,23.7092836 109.376339,23.245909 109.370973,22.7024968 L109.370973,22.1183639 L112.302217,19.0502619 L111.946712,18.6795621 L111.946712,19.2047201 L111.946712,18.6795621" id="Fill-256" fill="#505D68"></path>
                            <polyline id="Fill-257" fill="#505D68" points="104.300196 26.153 100 29.1046292 101.289912 29.1046292 101.630754 29.153 106 26.153 104.300196 26.153"></polyline>
                            <path d="M104.098381,25.7567791 L103.769446,25.3301085 L100.136263,30.0460255 C100.002207,30.2183038 99.9637275,30.4775263 100.035721,30.7029371 C100.107714,30.928348 100.277768,31.074865 100.465199,31.074865 L101.504137,31.074865 L101.748666,31.1408782 C101.902583,31.1811301 102.060224,31.1199472 102.171938,30.9750402 L105.86346,26.1834496 C105.996275,26.0095612 106.037237,25.7503387 105.964002,25.5249279 C105.89325,25.2995171 105.723197,25.153 105.534524,25.153 L104.098381,25.153 C103.975496,25.153 103.855093,25.2174031 103.769446,25.3301085 L104.098381,25.7567791 L104.098381,26.3605581 L104.41118,26.3605581 L101.691568,29.889848 L101.649365,29.8801875 L101.555029,29.868917 L100.465199,29.868917 L100.465199,30.472696 L100.794134,30.8977565 L104.427316,26.1834496 L104.098381,25.7567791 L104.098381,26.3605581 L104.098381,25.7567791" id="Fill-258" fill="#505D68"></path>
                            <path d="M97.4983284,32.153 L92,38.8582298 C92.2782318,39.0404802 92.5902675,39.153 92.9270059,39.153 L93.259844,39.153 L99,32.153 L97.4983284,32.153" id="Fill-259" fill="#505D68"></path>
                            <path d="M98.0041214,32.6611293 L97.6585557,32.3020513 L92.1425447,38.0351045 C92.0330069,38.1489255 91.98215,38.3088168 92.0056224,38.4700632 C92.0277908,38.6285995 92.1216804,38.7668107 92.2586026,38.8426913 C92.5963442,39.0310379 92.9901587,39.154344 93.4191817,39.153 L93.7530113,39.153 C93.8834134,39.153 94.0072954,39.1001435 94.099881,39.0052927 L99.8571359,33.0202073 C99.9966662,32.8738661 100.038395,32.6557092 99.9627617,32.4660076 C99.8871284,32.276306 99.7084775,32.153 99.5102662,32.153 L98.0041214,32.153 C97.8750232,32.153 97.7485331,32.2058454 97.6585557,32.3020513 L98.0041214,32.6611293 L98.0041214,33.1679035 L98.3301267,33.1679035 L93.5508879,38.1380854 L93.4191817,38.1380854 C93.1714177,38.1367304 92.9393018,38.0676248 92.7189222,37.9456738 L92.4894144,38.3941826 L92.8349801,38.7532606 L98.3496871,33.0202073 L98.0041214,32.6611293 L98.0041214,33.1679035 L98.0041214,32.6611293" id="Fill-260" fill="#505D68"></path>
                            <polyline id="Fill-261" fill="#505D68" points="103.305243 26.153 99 29.153 100.697697 29.153 105 26.153 103.305243 26.153"></polyline>
                            <path d="M102.786965,25.6627879 L102.4016,25.3011784 L98.1596835,29.2829619 C98.0032194,29.4284214 97.9568597,29.6486498 98.0423355,29.8389706 C98.1249137,30.0292915 98.3233914,30.153 98.5436001,30.153 L100.216897,30.153 C100.361771,30.153 100.499402,30.0999821 100.600814,30.0034622 L104.841281,26.0230381 C104.996296,25.8762191 105.042656,25.6573502 104.958629,25.4670294 C104.874602,25.2767085 104.677573,25.153 104.457364,25.153 L102.786965,25.153 C102.64354,25.153 102.503012,25.2060179 102.4016,25.3011784 L102.786965,25.6627879 L102.786965,26.1725759 L103.146253,26.1725759 L99.992342,29.1334241 L99.8547115,29.1334241 L103.170882,26.0230381 L102.786965,25.6627879 L102.786965,26.1725759 L102.786965,25.6627879" id="Fill-262" fill="#505D68"></path>
                            <path d="M96.3230226,32.153 L91,37.3503529 C91.2034461,37.6878617 91.498443,37.9658102 91.8544737,38.153 L98,32.153 L96.3230226,32.153" id="Fill-263" fill="#505D68"></path>
                            <path d="M96.0775488,32.6799713 L95.7443577,32.3075782 L91.1375187,37.4578443 C90.9853824,37.6264751 90.9564639,37.8906634 91.0658512,38.0972362 C91.2858831,38.5145974 91.602729,38.8574801 91.9862131,39.0893474 C92.1697826,39.2003627 92.3961011,39.163826 92.5444654,38.9980057 L97.861693,33.0523643 C97.9962268,32.9005966 98.0377185,32.6743503 97.9635364,32.4776143 C97.8918688,32.2808784 97.7196153,32.153 97.5285019,32.153 L96.0775488,32.153 C95.9530736,32.153 95.8311131,32.207805 95.7443577,32.3075782 L96.0775488,32.6799713 L96.0775488,33.2055373 L96.3906227,33.2055373 L91.8768258,38.2532197 L92.2112743,38.6256127 L92.4350782,38.161878 C92.202473,38.0213523 92.0113596,37.8147795 91.8780832,37.5618333 L91.4719672,37.8302374 L91.8051583,38.2026304 L96.4107399,33.0523643 L96.0775488,32.6799713 L96.0775488,33.2055373 L96.0775488,32.6799713" id="Fill-264" fill="#505D68"></path>
                            <polyline id="Fill-265" fill="#505D68" points="92.7294294 23.153 98 18.153 96.2705706 18.153 91 23.153 92.7294294 23.153"></polyline>
                            <path d="M92.973779,23.627842 L93.3155184,23.9999459 L97.8587178,19.0502619 C97.9967031,18.9000161 98.0379698,18.6739455 97.963174,18.4759581 C97.8896678,18.2807791 97.712995,18.153 97.5169784,18.153 L96.026221,18.153 C95.8985523,18.153 95.7734628,18.2077625 95.6844816,18.3060541 L91.1412822,23.2557381 C91.0032969,23.4059839 90.9620302,23.6320545 91.036826,23.8286377 C91.1116218,24.0266251 91.2882946,24.153 91.4830216,24.153 L92.973779,24.153 C93.1027373,24.153 93.223958,24.0982375 93.3155184,23.9999459 L92.973779,23.627842 L92.973779,23.1012799 L92.6500938,23.1012799 L96.2261063,19.2047201 L96.3499062,19.2047201 L92.6307501,23.2557381 L92.973779,23.627842 L92.973779,23.1012799 L92.973779,23.627842" id="Fill-266" fill="#505D68"></path>
                            <polyline id="Fill-267" fill="#505D68" points="91.3001601 23.153 96 18.153 94.4605123 18.153 91 21.8320579 91 23.153 91.3001601 23.153"></polyline>
                            <path d="M91.8004346,23.627842 L92.155294,23.9999459 L96.8538453,19.0502619 C96.9965894,18.9000161 97.0392793,18.6739455 96.9619039,18.4759581 C96.8845286,18.2807791 96.7030967,18.153 96.50032,18.153 L94.9608174,18.153 C94.8287456,18.153 94.699342,18.2077625 94.605958,18.3060541 L91.1467463,21.9484599 C91.0520283,22.0453473 91,22.1815514 91,22.3205638 L91,23.627842 C91,23.7682586 91.0520283,23.9002502 91.1467463,23.9999459 C91.2414644,24.0996417 91.3668659,24.153 91.5002716,24.153 L91.8004346,24.153 C91.9338404,24.153 92.0605759,24.0982375 92.155294,23.9999459 L91.8004346,23.627842 L91.8004346,23.1012799 L91.5002716,23.1012799 L91.5002716,23.627842 L92.0005433,23.627842 L92.0005433,22.5382095 L95.1675963,19.2047201 L95.2929977,19.2047201 L91.4469093,23.2557381 L91.8004346,23.627842 L91.8004346,23.1012799 L91.8004346,23.627842" id="Fill-268" fill="#505D68"></path>
                            <polyline id="Fill-269" fill="#505D68" points="99.4807528 23.153 104 18.153 102.519247 18.153 98 23.153 99.4807528 23.153"></polyline>
                            <path d="M99.2549199,23.627842 L99.6455911,23.9999459 L104.837833,19.0502619 C104.995576,18.9000161 105.044226,18.6739455 104.957246,18.4759581 C104.873215,18.2807791 104.671245,18.153 104.447162,18.153 L102.745899,18.153 C102.59995,18.153 102.45695,18.2077625 102.355228,18.3060541 L97.1615117,23.2557381 C97.0037689,23.4059839 96.9565935,23.6320545 97.0420989,23.8286377 C97.1276043,24.0266251 97.329574,24.153 97.5536571,24.153 L99.2549199,24.153 C99.402343,24.153 99.5409207,24.0982375 99.6455911,23.9999459 L99.2549199,23.627842 L99.2549199,23.1012799 L98.8863621,23.1012799 L102.975879,19.2047201 L103.114457,19.2047201 L98.8627744,23.2557381 L99.2549199,23.627842 L99.2549199,23.1012799 L99.2549199,23.627842" id="Fill-270" fill="#505D68"></path>
                            <polyline id="Fill-271" fill="#505D68" points="95.2995595 26.153 91 29.153 92.6989721 29.153 97 26.153 95.2995595 26.153"></polyline>
                            <path d="M95.0986095,25.6627879 L94.7698331,25.3011784 L91.135923,29.2829619 C91.0031718,29.4284214 90.9634705,29.6486498 91.0354291,29.8389706 C91.1073877,30.0292915 91.2773589,30.153 91.4659401,30.153 L92.9013905,30.153 C93.025457,30.153 93.1420796,30.1013415 93.2301669,30.0048216 L96.864077,26.0230381 C96.9968282,25.8775786 97.0365295,25.6587096 96.9645709,25.4683888 C96.8926123,25.2767085 96.7226411,25.153 96.5353005,25.153 L95.0986095,25.153 C94.9770243,25.153 94.8566797,25.2060179 94.7698331,25.3011784 L95.0986095,25.6627879 L95.0986095,26.1725759 L95.4112573,26.1725759 L92.7078466,29.1334241 L92.5887427,29.1334241 L95.4286266,26.0230381 L95.0986095,25.6627879 L95.0986095,26.1725759 L95.0986095,25.6627879" id="Fill-272" fill="#505D68"></path>
                            <polyline id="Fill-273" fill="#505D68" points="109.730556 23.153 115 18.153 113.272436 18.153 108 23.153 109.730556 23.153"></polyline>
                            <path d="M109.974705,23.627842 L110.316381,23.9999459 L114.858744,19.0502619 C114.996704,18.9000161 115.037963,18.6739455 114.963181,18.4759581 C114.888399,18.2807791 114.713048,18.153 114.517067,18.153 L113.027874,18.153 C112.900229,18.153 112.775162,18.2077625 112.684908,18.3060541 L108.141256,23.254334 C108.003296,23.4045797 107.962037,23.6320545 108.036819,23.8286377 C108.111601,24.0266251 108.288242,24.153 108.482933,24.153 L109.974705,24.153 C110.103639,24.153 110.224838,24.0982375 110.316381,23.9999459 L109.974705,23.627842 L109.974705,23.1012799 L109.651079,23.1012799 L113.227722,19.2047201 L113.35021,19.2047201 L109.631739,23.2557381 L109.974705,23.627842 L109.974705,23.1012799 L109.974705,23.627842" id="Fill-274" fill="#505D68"></path>
                            <path d="M105.601356,26.153 L102,30.3949493 C102.374183,30.4989675 102.632114,30.7810992 102.751998,31.153 L107,26.153 L105.601356,26.153" id="Fill-275" fill="#505D68"></path>
                            <path d="M105.805635,25.6813511 L105.425455,25.307983 L101.157396,29.5009774 C101.019671,29.6376442 100.966589,29.8348953 101.021105,30.019466 C101.074187,30.2040366 101.22339,30.3449302 101.414197,30.3886073 C101.698256,30.460463 101.837416,30.5999477 101.926364,30.8112882 C101.990923,30.9789516 102.137256,31.102938 102.316587,31.1409792 C102.495917,31.1790205 102.680986,31.1254809 102.810103,30.9986767 L107.842826,26.0547192 C107.996332,25.9025541 108.042241,25.6757154 107.959032,25.4784643 C107.875822,25.2812132 107.679277,25.153 107.462646,25.153 L105.805635,25.153 C105.663605,25.153 105.524445,25.2093575 105.425455,25.307983 L105.805635,25.6813511 L105.805635,26.2097022 L106.164295,26.2097022 L102.048309,30.2519404 L102.429923,30.6253086 L102.932048,30.43792 C102.738371,29.9152047 102.267809,29.4953417 101.66239,29.3600838 L101.539011,29.8757545 L101.919191,30.2477136 L106.185815,26.0547192 L105.805635,25.6813511 L105.805635,26.2097022 L105.805635,25.6813511" id="Fill-276" fill="#505D68"></path>
                            <polyline id="Fill-277" fill="#505D68" points="100 32.153 98.9489894 32.153 93 39.153 94.5563041 39.153 100 32.7472948 100 32.153"></polyline>
                            <path d="M100.495337,32.6611301 L100.495337,32.153 L99.4456368,32.153 C99.3137514,32.153 99.1832118,32.2058455 99.089008,32.3020515 L93.1474378,38.2871463 C93.0034405,38.4321328 92.9603759,38.65029 93.0384305,38.8399919 C93.1164851,39.0310488 93.3008555,39.153 93.5040666,39.153 L95.0584298,39.153 C95.1930067,39.153 95.319509,39.1001545 95.4150586,39.0053035 L100.851965,33.5283388 C100.944823,33.4334878 101,33.3034065 101,33.1692602 L101,32.6611301 C101,32.5269837 100.946169,32.3955474 100.851965,32.3006965 C100.757762,32.2058455 100.627222,32.153 100.495337,32.153 L100.495337,32.6611301 L99.9906732,32.6611301 L99.9906732,32.9592331 L94.8484898,38.1367398 L94.7219875,38.1367398 L99.6555768,33.1679051 L100.495337,33.1679051 L100.495337,32.6611301 L99.9906732,32.6611301 L100.495337,32.6611301" id="Fill-278" fill="#505D68"></path>
                            <path d="M92.7486507,18.153 C91.7841172,18.153 91,18.9362626 91,19.9011681 L91,21.153 L94,18.153 L92.7486507,18.153" id="Fill-279" fill="#505D68"></path>
                            <path d="M93.8218455,18.7138733 L93.8218455,18.153 C92.2636245,18.153 91,19.4153389 91,20.9738188 L91,22.5921252 C91,22.8194659 91.1360826,23.0228759 91.3454405,23.1096243 C91.5547985,23.1978684 91.7970555,23.1485116 91.9570647,22.9884757 L95.8361677,19.1102238 C95.9961769,18.9486923 96.0440302,18.7078907 95.9572962,18.498498 C95.8705622,18.2891053 95.6656905,18.153 95.4398831,18.153 L93.8218455,18.153 L93.8218455,19.2732509 L94.0850383,19.2732509 L92.1200648,21.2370553 L92.1215602,20.9738188 C92.1230556,20.0375343 92.8842212,19.2747466 93.8218455,19.2732509 L93.8218455,18.7138733" id="Fill-280" fill="#505D68"></path>
                            <polyline id="Fill-281" fill="#505D68" points="92.8204429 26.153 91 27.9781963 91 29.153 91.007155 29.153 94 26.153 92.8204429 26.153"></polyline>
                            <path d="M93.9249314,25.6627879 L93.5654199,25.3025378 L91.1492312,27.72505 C91.0542659,27.8202104 91,27.9507162 91,28.0853002 L91,29.6445715 C91,29.780515 91.0529092,29.9083018 91.1492312,30.0048216 C91.2455531,30.1013415 91.373078,30.153 91.5087427,30.153 L91.5182392,30.153 C91.653904,30.153 91.7814288,30.1013415 91.8777507,30.0048216 L95.8513704,26.0230381 C95.9965317,25.8775786 96.0399444,25.6587096 95.9612589,25.4683888 C95.8825733,25.2767085 95.6967126,25.153 95.4905023,25.153 L93.9249314,25.153 C93.7906233,25.153 93.6590285,25.2073774 93.5654199,25.3025378 L93.9249314,25.6627879 L93.9249314,26.1725759 L94.2627365,26.1725759 L91.1573711,29.2829619 L91.5182392,29.6445715 L91.5182392,29.1347836 L91.5087427,29.1347836 L91.5087427,29.6445715 L92.0174854,29.6445715 L92.0174854,28.2960125 L94.2844429,26.0230381 L93.9249314,25.6627879 L93.9249314,26.1725759 L93.9249314,25.6627879" id="Fill-282" fill="#505D68"></path>
                            <polyline id="Fill-283" fill="#505D68" points="96.7320513 23.153 102 18.153 100.273932 18.153 95 23.153 96.7320513 23.153"></polyline>
                            <path d="M96.9759942,23.627842 L97.3176706,23.9999459 L101.858744,19.0502619 C101.996704,18.9000161 102.037963,18.6739455 101.963181,18.4759581 C101.888399,18.2807791 101.713048,18.153 101.517067,18.153 L100.029163,18.153 C99.9015181,18.153 99.7764516,18.2077625 99.6874868,18.3060541 L95.1412562,23.254334 C95.0032963,23.4045797 94.9620372,23.6320545 95.0368192,23.8286377 C95.1116012,24.0252209 95.2882415,24.153 95.4829326,24.153 L96.9759942,24.153 C97.1036393,24.153 97.2261271,24.0982375 97.3176706,23.9999459 L96.9759942,23.627842 L96.9759942,23.1012799 L96.6510792,23.1012799 L100.229012,19.2047201 L100.351499,19.2047201 L96.6330284,23.2557381 L96.9759942,23.627842 L96.9759942,23.1012799 L96.9759942,23.627842" id="Fill-284" fill="#505D68"></path>
                            <polyline id="Fill-285" fill="#505D68" points="94.4801197 23.153 99 18.153 97.5185977 18.153 93 23.153 94.4801197 23.153"></polyline>
                            <path d="M94.2538584,23.627842 L94.6443458,23.9999459 L99.8385644,19.051666 C99.9962328,18.9000161 100.043386,18.6739455 99.9579209,18.4773623 C99.8724557,18.2807791 99.6705811,18.153 99.4466035,18.153 L97.744668,18.153 C97.5987878,18.153 97.4558547,18.2077625 97.3541807,18.3060541 L92.1614356,23.2557381 C92.0037672,23.4059839 91.956614,23.6320545 92.0420791,23.8286377 C92.1275443,24.0266251 92.3294189,24.153 92.5533965,24.153 L94.2538584,24.153 C94.4012122,24.153 94.5397246,24.0996417 94.6443458,23.9999459 L94.2538584,23.627842 L94.2538584,23.1012799 L93.8854741,23.1012799 L97.9730663,19.2047201 L98.1130523,19.2047201 L93.8633711,23.254334 L94.2538584,23.627842 L94.2538584,23.1012799 L94.2538584,23.627842" id="Fill-286" fill="#505D68"></path>
                            <polyline id="Fill-287" fill="#505D68" points="95.7283212 23.153 101 18.153 99.2686886 18.153 94 23.153 95.7283212 23.153"></polyline>
                            <path d="M95.9728936,23.627842 L96.3144303,23.9999459 L100.858802,19.051666 C100.996705,18.9000161 101.037947,18.6739455 100.963196,18.4773623 C100.888444,18.2807791 100.711876,18.153 100.517265,18.153 L99.024814,18.153 C98.8985098,18.153 98.7734945,18.2077625 98.6832773,18.3060541 L94.1414835,23.254334 C94.0022912,23.4045797 93.9623379,23.6320545 94.0370893,23.8286377 C94.1105519,24.0266251 94.28712,24.153 94.4830202,24.153 L95.9728936,24.153 C96.1017753,24.153 96.2229242,24.0982375 96.3144303,23.9999459 L95.9728936,23.627842 L95.9728936,23.1012799 L95.6494003,23.1012799 L99.2258695,19.2047201 L99.349596,19.2047201 L95.6313569,23.254334 L95.9728936,23.627842 L95.9728936,23.1012799 L95.9728936,23.627842" id="Fill-288" fill="#505D68"></path>
                            <path d="M117.944725,22.153 L121,20.1816025 L121,19.9665409 C121,19.6700167 120.866869,19.3930434 120.651163,19.153 L116,22.153 L117.944725,22.153" id="Fill-289" fill="#505D68"></path>
                            <path d="M118.057756,23.6204037 L118.414268,23.9977781 L120.853349,21.4131194 C120.947522,21.3120116 121,21.1795745 121,21.035745 L121,20.7537823 C121.001335,20.2624835 120.866802,19.8053621 120.652895,19.4180193 C120.573521,19.2741898 120.437643,19.1787782 120.281585,19.1574174 C120.126872,19.1360566 119.970814,19.1930187 119.860497,19.3097912 L116.14739,23.2430293 C116.003439,23.3954031 115.960389,23.6246758 116.038418,23.8240434 C116.116447,24.0248351 116.300757,24.153 116.505247,24.153 L118.057756,24.153 C118.192289,24.153 118.31875,24.0974619 118.414268,23.9977781 L118.057756,23.6204037 L118.057756,23.0863833 L117.721424,23.0863833 L120.574866,20.06454 L120.218354,19.6871656 L119.782468,19.9563119 C119.91431,20.1984011 119.990994,20.4675474 119.992339,20.7537823 L119.992339,20.8150166 L117.701244,23.2430293 L118.057756,23.6204037 L118.057756,23.0863833 L118.057756,23.6204037" id="Fill-290" fill="#505D68"></path>
                            <polyline id="Fill-291" fill="#505D68" points="113.295659 27.153 115 26.153 113.704341 26.153 112 27.153 113.295659 27.153"></polyline>
                            <path d="M113.234543,27.6580728 L113.621768,28.0087565 L115.839913,25.9999343 C115.996264,25.8583375 116.043024,25.6452805 115.958272,25.4600137 C115.873521,25.2734235 115.673333,25.153 115.452687,25.153 L113.76643,25.153 C113.621768,25.153 113.480029,25.2046101 113.377743,25.2972435 L111.16106,27.3060657 C111.003247,27.4476625 110.956488,27.6620428 111.0427,27.8473097 C111.12599,28.0325765 111.326179,28.153 111.548285,28.153 L113.234543,28.153 C113.380666,28.153 113.518021,28.1027133 113.621768,28.0087565 L113.234543,27.6580728 L113.234543,27.1618222 L112.870697,27.1618222 L113.99292,26.1455011 L114.128815,26.1455011 L112.847317,27.3060657 L113.234543,27.6580728 L113.234543,27.1618222 L113.234543,27.6580728" id="Fill-292" fill="#505D68"></path>
                            <polyline id="Fill-293" fill="#505D68" points="108 32.153 103 36.7043356 103 38.153 108 33.6004124 108 32.153"></polyline>
                            <path d="M107.488255,31.6951131 L107.124287,31.3111441 L102.150513,36.5582402 C102.054732,36.6592847 102,36.7993035 102,36.9422093 L102,38.6123304 C102,38.8302978 102.124515,39.0280563 102.316078,39.1117788 C102.50764,39.1955014 102.729304,39.1493097 102.875713,38.9948559 L107.850855,33.7463163 C107.948005,33.6438283 108,33.50814 108,33.3637907 L108,31.6951131 C108,31.4757022 107.875485,31.2779437 107.683922,31.1942212 C107.49236,31.1104986 107.272064,31.1566903 107.124287,31.3111441 L107.488255,31.6951131 L106.975143,31.6951131 L106.975143,33.1386059 L103.024857,37.3045259 L103.024857,37.1659506 L107.850855,32.0776387 L107.488255,31.6951131 L106.975143,31.6951131 L107.488255,31.6951131" id="Fill-294" fill="#505D68"></path>
                            <polyline id="Fill-295" fill="#505D68" points="117.510523 31.153 110 39.153 111.490766 39.153 119 31.153 117.510523 31.153"></polyline>
                            <path d="M118.021032,30.6661519 L117.677101,30.3021562 L110.141654,38.2772208 C110.003306,38.4236401 109.96193,38.6453217 110.036923,38.8368984 C110.111915,39.0298435 110.289053,39.153 110.484292,39.153 L111.980261,39.153 C112.109559,39.153 112.231098,39.1010006 112.322899,39.0038438 L119.858346,31.0287792 C119.996694,30.8809915 120.03807,30.6606783 119.963077,30.4691016 C119.888085,30.2775249 119.710947,30.153 119.515708,30.153 L118.021032,30.153 C117.893027,30.153 117.767609,30.2063678 117.677101,30.3021562 L118.021032,30.6661519 L118.021032,31.1779354 L118.344275,31.1779354 L111.777265,38.1266962 L111.655725,38.1266962 L118.363669,31.0287792 L118.021032,30.6661519 L118.021032,31.1779354 L118.021032,30.6661519" id="Fill-296" fill="#505D68"></path>
                            <polyline id="Fill-297" fill="#505D68" points="120.71027 31.153 113 39.153 114.525384 39.153 121 32.4364592 121 31.153 120.71027 31.153"></polyline>
                            <path d="M119.214749,30.6661519 L118.862512,30.3021562 L111.145075,38.2772208 C111.003385,38.4236401 110.961011,38.6453217 111.037815,38.8368984 C111.114618,39.0298435 111.296034,39.153 111.497312,39.153 L113.024115,39.153 C113.156535,39.153 113.281009,39.1010006 113.375028,39.0038438 L119.855662,32.308238 C119.948356,32.2110812 120,32.0824511 120,31.9456106 L120,30.6661519 C120,30.527943 119.948356,30.3993129 119.855662,30.3035246 C119.761644,30.2049994 119.637169,30.153 119.504749,30.153 L119.214749,30.153 C119.083654,30.153 118.955206,30.2063678 118.862512,30.3021562 L119.214749,30.6661519 L119.214749,31.1779354 L119.504749,31.1779354 L119.504749,30.6661519 L119.008174,30.6661519 L119.008174,31.7321394 L112.817539,38.1266962 L112.695713,38.1266962 L119.565662,31.0287792 L119.214749,30.6661519 L119.214749,31.1779354 L119.214749,30.6661519" id="Fill-298" fill="#505D68"></path>
                            <polyline id="Fill-299" fill="#505D68" points="115.293658 30.153 110 34.6888427 110 36.153 117 30.153 115.293658 30.153"></polyline>
                            <path d="M115.047696,29.7005451 L114.709224,29.3121531 L110.140498,34.5320828 C110.05109,34.6342912 110,34.7759229 110,34.9204748 L110,36.6054535 C110,36.8273918 110.11623,37.0259681 110.295045,37.1106551 C110.47386,37.1968022 110.680775,37.1486182 110.817441,36.9923854 L116.858838,30.0874769 C116.996781,29.9297839 117.037653,29.6947046 116.963572,29.4902878 C116.889492,29.2858709 116.714509,29.153 116.520366,29.153 L115.047696,29.153 C114.921248,29.153 114.798632,29.2099447 114.709224,29.3121531 L115.047696,29.7005451 L115.047696,30.24663 L115.364454,30.24663 L110.956661,35.2840447 L110.956661,35.1467934 L115.386167,30.0874769 L115.047696,29.7005451 L115.047696,30.24663 L115.047696,29.7005451" id="Fill-300" fill="#505D68"></path>
                            <polyline id="Fill-301" fill="#505D68" points="116.427722 31.153 110 37.6444207 110 39.153 110.078818 39.153 118 31.153 116.427722 31.153"></polyline>
                            <path d="M116.153794,30.6661519 L115.834351,30.3021562 L110.131393,36.774712 C110.047012,36.869132 110,37.0018673 110,37.1373394 L110,38.6412165 C110,38.778057 110.047012,38.9066871 110.132599,39.0038438 C110.21698,39.1010006 110.331497,39.153 110.452042,39.153 L110.521957,39.153 C110.642502,39.153 110.755814,39.1010006 110.842606,39.0038438 L117.867936,31.0287792 C117.996918,30.8809915 118.035492,30.6606783 117.965577,30.4691016 C117.895661,30.2775249 117.730515,30.153 117.548493,30.153 L116.153794,30.153 C116.034455,30.153 115.918732,30.2063678 115.834351,30.3021562 L116.153794,30.6661519 L116.153794,31.1779354 L116.45636,31.1779354 L110.202515,38.2772208 L110.521957,38.6412165 L110.521957,38.1280646 L110.452042,38.1280646 L110.452042,38.6412165 L110.904083,38.6412165 L110.904083,37.3508106 L116.473236,31.0287792 L116.153794,30.6661519 L116.153794,31.1779354 L116.153794,30.6661519" id="Fill-302" fill="#505D68"></path>
                            <path d="M117,39.153 L118.242542,39.153 C119.211933,39.153 120,37.8434301 120,36.2239028 L120,34.153 L117,39.153" id="Fill-303" fill="#505D68"></path>
                            <path d="M116.562472,38.5915262 L116.562472,39.153 L118.167791,39.153 C119.731062,39.153 121,37.887432 121,36.3216105 L121,34.7167561 C121,34.4885636 120.863345,34.28289 120.653107,34.1958165 C120.442869,34.108743 120.199593,34.1567836 120.038911,34.3189204 L116.164521,38.1936904 C116.003839,38.354326 115.955785,38.59603 116.042883,38.8062073 C116.129982,39.017886 116.335715,39.153 116.562472,39.153 L116.562472,38.5915262 L116.961925,38.9893619 L119.875226,36.0754027 L119.875226,36.3216105 C119.872222,37.2659074 119.109358,38.0255485 118.167791,38.0285511 L116.562472,38.0285511 L116.562472,38.5915262 L116.961925,38.9893619 L116.562472,38.5915262" id="Fill-304" fill="#505D68"></path>
                            <polyline id="Fill-305" fill="#505D68" points="121 32.153 114 39.153 115.653453 39.153 121 33.8067911 121 32.153"></polyline>
                            <path d="M120.469806,31.6844322 L120.092717,31.3086641 L113.156254,38.2454846 C113.00315,38.3972099 112.957786,38.6269247 113.041426,38.8254437 C113.122231,39.0253807 113.316446,39.153 113.531926,39.153 L115.170706,39.153 C115.312469,39.153 115.445726,39.0991163 115.546378,38.9984388 L120.845478,33.6993999 C120.944712,33.5973044 121,33.4654311 121,33.3236318 L121,31.6844322 C121,31.4688973 120.870996,31.2760503 120.672528,31.1938067 C120.474059,31.1115631 120.244403,31.1555209 120.092717,31.3086641 L120.469806,31.6844322 L119.938195,31.6844322 L119.938195,33.1010069 L114.949556,38.0909234 L114.814881,38.0909234 L120.845478,32.0602003 L120.469806,31.6844322 L119.938195,31.6844322 L120.469806,31.6844322" id="Fill-306" fill="#505D68"></path>
                            <polyline id="Fill-307" fill="#505D68" points="121 33.153 115 39.153 116.857143 39.153 121 35.0090343 121 33.153"></polyline>
                            <path d="M120.499864,33.6552425 L120.144152,33.2995131 L115.146802,38.2971097 C115.002377,38.4402039 114.960922,38.6568511 115.038483,38.8440771 C115.116045,39.0326404 115.29925,39.153 115.501176,39.153 L117.048389,39.153 C117.182115,39.153 117.309155,39.1008442 117.404101,39.0072312 L120.854238,35.5555863 C120.947847,35.4592986 121,35.3349271 121,35.2011942 L121,33.6552425 C121,33.4519685 120.878309,33.2687545 120.691092,33.1911895 C120.503876,33.1136244 120.287239,33.1564189 120.144152,33.2995131 L120.499864,33.6552425 L119.99839,33.6552425 L119.99839,34.9939083 L116.841113,38.1513409 L116.712736,38.1513409 L120.854238,34.0096345 L120.499864,33.6552425 L119.99839,33.6552425 L120.499864,33.6552425" id="Fill-308" fill="#505D68"></path>
                            <polyline id="Fill-309" fill="#505D68" points="111.481719 23.153 116 18.153 114.519564 18.153 110 23.153 111.481719 23.153"></polyline>
                            <path d="M111.255839,23.627842 L111.646414,23.9999459 L116.838851,19.0502619 C116.995081,18.9000161 117.043719,18.6739455 116.958235,18.4759581 C116.87275,18.2807791 116.67083,18.153 116.446802,18.153 L114.745958,18.153 C114.600046,18.153 114.45708,18.2077625 114.355383,18.3060541 L109.161472,23.2557381 C109.003768,23.4059839 108.956604,23.6320545 109.042089,23.8286377 C109.127573,24.0266251 109.329493,24.153 109.553521,24.153 L111.255839,24.153 C111.403225,24.153 111.541769,24.0982375 111.646414,23.9999459 L111.255839,23.627842 L111.255839,23.1012799 L110.885898,23.1012799 L114.975882,19.2047201 L115.114426,19.2047201 L110.865264,23.2557381 L111.255839,23.627842 L111.255839,23.1012799 L111.255839,23.627842" id="Fill-310" fill="#505D68"></path>
                            <path d="M109,26.153 L107.265009,26.153 L102,30.8725696 L102.064537,31.0998729 C102.202616,31.2854815 102.304674,31.5020249 102.304674,31.7844728 L102.304674,32.153 L109,26.153" id="Fill-311" fill="#505D68"></path>
                            <path d="M108.515706,25.656785 L108.515706,25.153 L107.021023,25.153 C106.893018,25.153 106.767599,25.2067371 106.67709,25.3007769 L102.14132,30.0148607 C102.021073,30.1384559 101.973233,30.3225054 102.014608,30.494464 L102.070206,30.7215031 L102.136148,30.8746537 C102.220192,31.0116832 102.260274,31.1110968 102.26286,31.2817119 L102.26286,31.6498108 C102.26286,31.8526682 102.380521,32.0367177 102.561538,32.1146364 C102.742555,32.1925551 102.952018,32.1495655 103.090367,32.0058188 L108.858346,26.012793 C108.996694,25.8690464 109.03807,25.6527547 108.963077,25.464675 C108.888084,25.2752518 108.710946,25.153 108.515706,25.153 L108.515706,25.656785 L108.171774,25.2994335 L102.405088,31.2924593 L102.747727,31.6498108 L103.232594,31.6498108 L103.232594,31.2817119 C103.23518,30.8867445 103.098125,30.5549182 102.94426,30.3198185 L102.540851,30.5979078 L103.010202,30.4729691 L102.954604,30.2459301 L102.485253,30.3708687 L102.827892,30.7268768 L107.221434,26.1592265 L108.515706,26.1605699 L108.515706,25.656785 L108.171774,25.2994335 L108.515706,25.656785" id="Fill-312" fill="#505D68"></path>
                            <polyline id="Fill-313" fill="#505D68" points="100 33.153 94 39.153 95.7183168 39.153 100 34.8704666 100 33.153"></polyline>
                            <path d="M100.452047,32.7016029 L100.063366,32.3144606 L94.1600849,38.2194758 C94.0037356,38.3757936 93.956977,38.6110008 94.041727,38.8155288 C94.1264771,39.0215177 94.3266626,39.153 94.5487663,39.153 L96.239384,39.153 C96.3855048,39.153 96.5228584,39.0960243 96.6266042,38.9937604 L100.839267,34.7790229 C100.941552,34.675298 101,34.537972 101,34.3918806 L101,32.7016029 C101,32.4795439 100.865569,32.2793987 100.661,32.1946656 C100.456431,32.1099326 100.221176,32.1566819 100.063366,32.3144606 L100.452047,32.7016029 L99.9040939,32.7016029 L99.9040939,34.1654389 L96.0114356,38.0587753 L95.8696984,38.0587753 L100.839267,33.0887451 L100.452047,32.7016029 L99.9040939,32.7016029 L100.452047,32.7016029" id="Fill-314" fill="#505D68"></path>
                            <path d="M113.803786,23.153 L119,18.4211612 C118.66637,18.2551566 118.287528,18.153 117.875947,18.153 L117.495546,18.153 L112,23.153 L113.803786,23.153" id="Fill-315" fill="#505D68"></path>
                            <path d="M114.04615,23.627843 L114.401473,23.9999462 L118.853696,19.3170625 C118.964567,19.1991128 119.016663,19.0334216 118.995291,18.8691345 C118.972582,18.7062516 118.876404,18.5616228 118.738817,18.4815855 C118.390173,18.2807902 117.980082,18.1516072 117.535261,18.153 L117.209325,18.153 C117.077081,18.153 116.947508,18.2077737 116.854002,18.3060651 L112.146641,23.2543357 C112.002375,23.4045811 111.960965,23.6320555 112.038441,23.8286383 C112.115918,24.0266253 112.298922,24.153 112.500628,24.153 L114.04615,24.153 C114.17973,24.153 114.306631,24.0982376 114.401473,23.9999462 L114.04615,23.627843 L114.04615,23.1012819 L113.710864,23.1012819 L117.416374,19.2047294 L117.535261,19.2047294 C117.795742,19.2061336 118.033514,19.2791501 118.259265,19.4069289 L118.498373,18.9449593 L118.144386,18.5728561 L113.692162,23.2557398 L114.04615,23.627843 L114.04615,23.1012819 L114.04615,23.627843" id="Fill-316" fill="#505D68"></path>
                            <path d="M109.233018,28.1701268 L109.985233,28.1701268 L112,26.153 L110.463674,26.153 L103,33.615572 L103,35.153 L107.914649,30.2390771 C107.95319,30.1154982 108.03293,30.0304546 108.100709,29.9347806 C107.820289,29.1853343 108.195068,28.1701268 109.233018,28.1701268" id="Fill-317" fill="#505D68"></path>
                            <path d="M108.733312,27.6694317 L108.733312,28.1666031 L109.485741,28.1666031 C109.618679,28.1666031 109.743641,28.1147591 109.838027,28.0203763 L111.853367,26.0037746 C111.995611,25.8602064 112.03948,25.6461834 111.962376,25.4600765 C111.885272,25.2739695 111.703147,25.153 111.501081,25.153 L109.964318,25.153 C109.832709,25.153 109.705089,25.2048441 109.612032,25.2978975 L102.146232,32.764774 C102.051846,32.8564981 102,32.9854436 102,33.1170478 L102,34.6550888 C102,34.8558184 102.120974,35.0379373 102.307087,35.1150388 C102.4932,35.1921402 102.70723,35.1496015 102.850803,35.0073626 L107.766852,30.0914807 L107.890484,29.8880924 L107.909096,29.8561883 L108.00747,29.7205961 C108.101856,29.5863332 108.124455,29.4135197 108.067292,29.2593168 L108.008799,28.9296416 C108.00747,28.7182773 108.079256,28.5162183 108.192254,28.3872728 C108.309239,28.2583273 108.452812,28.1719205 108.733312,28.1666031 L108.733312,27.170931 C108.197571,27.1656137 107.7283,27.39293 107.437166,27.7358985 C107.144702,28.078867 107.011764,28.5082423 107.011764,28.9296416 C107.011764,29.1596166 107.051645,29.3895916 107.132738,29.6089319 L107.600679,29.434789 L107.19256,29.1476526 C107.157996,29.204814 107.02107,29.3390769 106.938648,29.5903213 L107.414566,29.7392068 L107.06228,29.386933 L102.995706,33.450711 L102.995706,33.3244241 L110.171701,26.1500015 L110.297992,26.1500015 L109.278357,27.170931 L108.733312,27.170931 L108.733312,27.6694317" id="Fill-318" fill="#505D68"></path>
                            <path d="M116.476896,23.153 L120,19.0120705 C119.822568,18.6492519 119.567271,18.3553988 119.254532,18.153 L115,23.153 L116.476896,23.153" id="Fill-319" fill="#505D68"></path>
                            <path d="M116.297876,23.6035474 L116.695469,23.9928654 L120.836444,19.9351435 C121.014986,19.7588485 121.050995,19.4870605 120.926466,19.2725683 C120.666904,18.8288927 120.290316,18.4660189 119.835709,18.2206751 C119.616657,18.1031452 119.342093,18.1413424 119.165051,18.3146991 L114.164374,23.2142294 C114.003836,23.3714257 113.955824,23.6079548 114.042845,23.8136322 C114.129865,24.0207788 114.335414,24.153 114.561967,24.153 L116.297876,24.153 C116.447911,24.153 116.588944,24.0957041 116.695469,23.9928654 L116.297876,23.6035474 L116.297876,23.0526257 L115.919787,23.0526257 L119.961738,19.0933351 L119.562644,18.7040171 L119.291081,19.1858899 C119.568646,19.3372098 119.792199,19.5517019 119.949736,19.8190826 L120.438851,19.5458254 L120.039757,19.1565074 L115.898782,23.2142294 L116.297876,23.6035474 L116.297876,23.0526257 L116.297876,23.6035474" id="Fill-320" fill="#505D68"></path>
                            <path d="M107.916171,29.591582 C107.916171,29.4242284 107.958085,29.2900569 108,29.153 L103,34.4881195 L103,36.153 L107.916171,30.9087708 L107.916171,29.591582" id="Fill-321" fill="#505D68"></path>
                            <path d="M107.410892,30.0012638 L107.915423,30.0012638 C107.916772,29.9425277 107.930262,29.8912899 107.974779,29.7675692 C108.047626,29.5626179 107.958591,29.3364215 107.760286,29.2226985 C107.560632,29.1089755 107.302971,29.136469 107.137042,29.2901825 L102.148391,33.9103364 C102.053961,33.9965659 102,34.1177872 102,34.2427575 L102,35.6849154 C102,35.8736206 102.12276,36.04483 102.311622,36.1173128 C102.500484,36.1897956 102.717675,36.1498051 102.863368,36.0160868 L107.76838,31.4734145 C107.862811,31.3846856 107.915423,31.2672135 107.915423,31.1422431 L107.915423,30.0012638 L106.905012,30.0012638 L106.905012,30.9472894 L103.01176,34.552684 L103.01176,34.4364616 L107.852019,29.9525254 L107.494531,29.6213539 L107.014282,29.4751386 C106.973812,29.5888616 106.903663,29.7688189 106.905012,30.0012638 L107.410892,30.0012638" id="Fill-322" fill="#505D68"></path>
                            <polyline id="Fill-323" fill="#505D68" points="111.296933 27.153 113 26.153 111.700823 26.153 110 27.153 111.296933 27.153"></polyline>
                            <path d="M111.236428,27.6580728 L111.62339,28.0087565 L113.840022,25.9999343 C113.996267,25.8583375 114.042994,25.6452805 113.958301,25.4600137 C113.873607,25.2734235 113.673556,25.153 113.453061,25.153 L111.762112,25.153 C111.617549,25.153 111.477366,25.2059334 111.37515,25.2985668 L109.159978,27.3073891 C109.003733,27.4476625 108.957006,27.6620428 109.041699,27.8473097 C109.126393,28.0325765 109.326444,28.153 109.5484,28.153 L111.236428,28.153 C111.382451,28.153 111.519713,28.1027133 111.62339,28.0087565 L111.236428,27.6580728 L111.236428,27.1618222 L110.86845,27.1618222 L111.988448,26.1455011 L112.13009,26.1455011 L110.849467,27.3060657 L111.236428,27.6580728 L111.236428,27.1618222 L111.236428,27.6580728" id="Fill-324" fill="#505D68"></path>
                            <polyline id="Fill-325" fill="#505D68" points="112.726437 23.153 118 18.153 116.269075 18.153 111 23.153 112.726437 23.153"></polyline>
                            <path d="M112.971817,23.627842 L113.313514,23.9999459 L117.858735,19.051666 C117.996704,18.9000161 118.037965,18.6739455 117.963179,18.4773623 C117.888392,18.2807791 117.711741,18.153 117.517038,18.153 L116.025174,18.153 C115.89881,18.153 115.773736,18.2077625 115.683476,18.3060541 L111.142123,23.2557381 C111.002865,23.4059839 110.961604,23.6320545 111.03768,23.8286377 C111.112466,24.0266251 111.287828,24.153 111.483821,24.153 L112.971817,24.153 C113.100759,24.153 113.221965,24.0996417 113.313514,23.9999459 L112.971817,23.627842 L112.971817,23.1012799 L112.65075,23.1012799 L116.226324,19.2047201 L116.348819,19.2047201 L112.630119,23.254334 L112.971817,23.627842 L112.971817,23.1012799 L112.971817,23.627842" id="Fill-326" fill="#505D68"></path>
                            <polyline id="Fill-327" fill="#505D68" points="108.560363 26.153 103 31.7133632 103 33.153 110 26.153 108.560363 26.153"></polyline>
                            <path d="M108.8371,25.6831601 L108.461031,25.3070999 L102.155517,31.613885 C102.055138,31.7128482 102,31.849983 102,31.9899452 L102,33.6228385 C102,33.8377301 102.128655,34.0300015 102.326586,34.1119996 C102.524517,34.1954114 102.753551,34.1487573 102.904827,33.997485 L110.844685,26.0578066 C110.99596,25.9065343 111.041202,25.6789189 110.960616,25.4809924 C110.877202,25.2816522 110.684926,25.153 110.47003,25.153 L108.8371,25.153 C108.697134,25.153 108.559996,25.2081367 108.461031,25.3070999 L108.8371,25.6831601 L108.8371,26.2133203 L109.189134,26.2133203 L103.060344,32.3419716 L103.060344,32.2090781 L109.211755,26.0578066 L108.8371,25.6831601 L108.8371,26.2133203 L108.8371,25.6831601" id="Fill-328" fill="#505D68"></path>
                            <polyline id="Fill-329" fill="#505D68" points="100 34.153 97 39.153 98.2008325 39.153 100 36.153 100 34.153"></polyline>
                            <path d="M100.380715,34.6693325 L99.9414355,34.3047508 L95.1820239,38.2738765 C95.0036698,38.421085 94.9508242,38.6425856 95.0482584,38.8351948 C95.1440411,39.0291798 95.3686351,39.153 95.619652,39.153 L97.5253983,39.153 C97.690541,39.153 97.8474265,39.0993446 97.9630264,39.00304 L100.818343,36.6215645 C100.933943,36.5238841 101,36.3959366 101,36.2569828 L101,34.6693325 C101,34.4602139 100.848069,34.2731078 100.616869,34.1919368 C100.385669,34.1121415 100.11979,34.1575423 99.9414355,34.3047508 L100.380715,34.6693325 L99.76143,34.6693325 L99.76143,36.0437369 L97.2694272,38.1211649 L97.1141931,38.1211649 L100.818343,35.0339142 L100.380715,34.6693325 L99.76143,34.6693325 L100.380715,34.6693325" id="Fill-330" fill="#505D68"></path>
                            <polyline id="Fill-331" fill="#505D68" points="116.296144 27.153 118 26.153 116.702733 26.153 115 27.153 116.296144 27.153"></polyline>
                            <path d="M115.234813,27.6580728 L115.622001,28.0087565 L117.839929,25.9999343 C117.996265,25.8583375 118.043019,25.6452805 117.958276,25.4600137 C117.873533,25.2734235 117.673365,25.153 117.45128,25.153 L115.763726,25.153 C115.619078,25.153 115.477353,25.2059334 115.376538,25.2985668 L113.160071,27.3073891 C113.003735,27.4476625 112.956981,27.6620428 113.041724,27.8473097 C113.126467,28.0325765 113.326635,28.153 113.54872,28.153 L115.234813,28.153 C115.380922,28.153 115.518264,28.1027133 115.622001,28.0087565 L115.234813,27.6580728 L115.234813,27.1618222 L114.86808,27.1618222 L115.990194,26.1441778 L116.128997,26.1441778 L114.846164,27.3060657 L115.234813,27.6580728 L115.234813,27.1618222 L115.234813,27.6580728" id="Fill-332" fill="#505D68"></path>
                            <polyline id="Fill-333" fill="#505D68" points="108 34.153 105 39.153 106.306852 39.153 108 36.3289608 108 34.153"></polyline>
                            <path d="M107.450736,34.7047119 L107.060083,34.3139442 L103.160897,38.212807 C103.003755,38.3699955 102.956759,38.6079819 103.041939,38.8136491 C103.127119,39.0193163 103.32832,39.153 103.550081,39.153 L105.249275,39.153 C105.394668,39.153 105.534187,39.097176 105.638459,38.9928734 L107.83992,36.7907651 C107.944192,36.6864624 108,36.5483716 108,36.4014664 L108,34.7047119 C108,34.4814161 107.866356,34.280156 107.660749,34.194951 C107.455142,34.109746 107.218694,34.1567557 107.060083,34.3139442 L107.450736,34.7047119 L106.900004,34.7047119 L106.900004,36.1722944 L105.02017,38.0512113 L104.880651,38.0512113 L107.83992,35.0940106 L107.450736,34.7047119 L106.900004,34.7047119 L107.450736,34.7047119" id="Fill-334" fill="#505D68"></path>
                            <polyline id="Fill-335" fill="#505D68" points="114.163174 27.153 117 26.153 114.840569 26.153 112 27.153 114.163174 27.153"></polyline>
                            <path d="M114.237106,27.6580728 L114.624382,28.0074332 L116.839892,25.9999343 C116.996264,25.8570141 117.043029,25.6439572 116.958267,25.4586903 C116.874966,25.2734235 116.674752,25.153 116.452616,25.153 L114.76614,25.153 C114.621459,25.153 114.479702,25.2046101 114.377403,25.2972435 L112.160431,27.3060657 C112.002598,27.4476625 111.957294,27.6620428 112.042056,27.8473097 C112.126819,28.0325765 112.327033,28.153 112.547707,28.153 L114.237106,28.153 C114.381787,28.153 114.520622,28.1013899 114.624382,28.0074332 L114.237106,27.6580728 L114.237106,27.1618222 L113.87029,27.1618222 L114.99266,26.1455011 L115.131494,26.1455011 L113.848369,27.3073891 L114.237106,27.6580728 L114.237106,27.1618222 L114.237106,27.6580728" id="Fill-336" fill="#505D68"></path>
                            <polyline id="Fill-337" fill="#505D68" points="108 33.153 103 38.8804875 103 39.153 104.347635 39.153 108 34.9723752 108 33.153"></polyline>
                            <path d="M107.488255,33.6463691 L107.124287,33.2975149 L102.150513,38.0827416 C102.053364,38.1748918 102,38.3025856 102,38.4329122 L102,38.6606548 C102,38.7922979 102.053364,38.9160424 102.150513,39.009509 C102.247662,39.1029756 102.376283,39.153 102.513113,39.153 L103.854048,39.153 C103.990878,39.153 104.119498,39.1016592 104.216648,39.009509 L107.850855,35.5157011 C107.946636,35.4222345 108,35.29849 108,35.1668469 L108,33.6463691 C108,33.4462716 107.875485,33.267237 107.683922,33.190884 C107.49236,33.114531 107.270696,33.1553403 107.124287,33.2975149 L107.488255,33.6463691 L106.975143,33.6463691 L106.975143,34.9601672 L103.641961,38.1656767 L102.513113,38.1669932 L102.513113,38.6606548 L103.026226,38.6606548 L103.026226,38.636959 L107.850855,33.9952233 L107.488255,33.6463691 L106.975143,33.6463691 L107.488255,33.6463691" id="Fill-338" fill="#505D68"></path>
                            <polyline id="Fill-339" fill="#505D68" points="117.295327 27.153 119 26.153 117.701308 26.153 116 27.153 117.295327 27.153"></polyline>
                            <path d="M118.234315,27.6580728 L118.621164,28.0087565 L120.840069,25.9999343 C120.996268,25.8583375 121.042982,25.6452805 120.958313,25.4600137 C120.873644,25.2734235 120.673651,25.153 120.45322,25.153 L118.762765,25.153 C118.619704,25.153 118.478103,25.2046101 118.375917,25.2972435 L116.159931,27.3060657 C116.003732,27.4476625 115.957018,27.6620428 116.041687,27.8473097 C116.126356,28.0325765 116.326349,28.153 116.54824,28.153 L118.234315,28.153 C118.380296,28.153 118.517518,28.1013899 118.621164,28.0087565 L118.234315,27.6580728 L118.234315,27.1618222 L117.869364,27.1618222 L118.990495,26.1455011 L119.129176,26.1455011 L117.847467,27.3060657 L118.234315,27.6580728 L118.234315,27.1618222 L118.234315,27.6580728" id="Fill-340" fill="#505D68"></path>
                            <polyline id="Fill-341" fill="#505D68" points="113.384121 30.153 110 33.5348182 110 35.153 115 30.153 113.384121 30.153"></polyline>
                            <path d="M113.877448,29.6732846 L113.509951,29.3042294 L110.152546,32.6590242 C110.055471,32.7547566 110,32.8907243 110,33.0280794 L110,34.6333307 C110,34.842832 110.126197,35.0329093 110.320347,35.1133799 C110.514497,35.1938506 110.737769,35.149453 110.887542,35.0009985 L115.848069,30.0409523 C115.996455,29.8911104 116.040832,29.6677349 115.960398,29.4734953 C115.879965,29.2792557 115.691362,29.153 115.480571,29.153 L113.877448,29.153 C113.740157,29.153 113.605639,29.2071096 113.509951,29.3042294 L113.877448,29.6732846 L113.877448,30.1921817 L114.224145,30.1921817 L111.040088,33.3763232 L111.040088,33.2431304 L114.244946,30.0409523 L113.877448,29.6732846 L113.877448,30.1921817 L113.877448,29.6732846" id="Fill-342" fill="#505D68"></path>
                            <path d="M28.0523017,28.6536814 L28.5521346,28.6536814 C28.5521346,25.0041856 30.2169114,21.7689717 32.8120439,19.6634933 C32.9320038,19.5653739 33,19.4195576 33,19.264202 C33,19.1061207 32.9320038,18.9603044 32.8120439,18.8635478 C30.7274075,17.1709886 28.0922883,16.153 25.2252467,16.153 C18.4715043,16.153 13,21.7512557 13,28.6536814 C13,35.5588327 18.4715043,41.153 25.2252467,41.153 C28.0922883,41.153 30.7274075,40.1363742 32.8107111,38.4465405 C32.930671,38.3484211 33,38.2039676 33,38.0472491 C33.001314,37.8905307 32.9320038,37.7433516 32.8120439,37.646595 C30.2169114,35.5397539 28.5521346,32.3018144 28.5521346,28.6536814 L27.5524688,28.6536814 C27.5524688,32.6247907 29.3678619,36.1584511 32.1909182,38.4465405 L32.5014811,38.0472491 L32.1909182,37.646595 C30.2728927,39.198789 27.8603658,40.1309231 25.2252467,40.1309231 C22.122284,40.1309231 19.319221,38.8471946 17.2865671,36.7689717 C15.2552461,34.6907487 13.9996658,31.8248452 13.9996658,28.6536814 C13.9996658,25.4838803 15.2552461,22.6166141 17.2865671,20.5383911 C19.319221,18.4601682 22.122284,17.1750769 25.2252467,17.1750769 C27.8603658,17.1750769 30.2728927,18.107211 32.1909182,19.6634933 L32.5014811,19.264202 L32.1909182,18.8635478 C29.3678619,21.1516372 27.5524688,24.6825721 27.5524688,28.6536814 L28.0523017,28.6536814" id="Fill-343" fill="#505D68"></path>
                            <path d="M39.7739383,16.6640384 L39.7739383,16.153 C36.9067055,16.153 34.2727437,17.1709886 32.1893012,18.8635478 C32.0693333,18.9589417 32,19.1074835 32,19.264202 C32,19.4181949 32.0693333,19.5667367 32.1893012,19.6634933 C34.7832738,21.7689717 36.4468286,25.0041856 36.4481616,28.6536814 C36.4468286,32.3018144 34.7819408,35.5397539 32.1893012,37.646595 C32.0693333,37.7419888 31.9986856,37.8918934 32,38.0472491 C32,38.2026048 32.0706663,38.3497839 32.1893012,38.4465405 C34.2727437,40.1363742 36.9067055,41.153 39.7739383,41.153 C46.5267979,41.153 52,35.5588327 52,28.6536814 C52,21.7512557 46.5267979,16.153 39.7739383,16.153 L39.7739383,17.1750769 C42.8757749,17.1750769 45.6790248,18.4601682 47.7131471,20.5383911 C49.7446035,22.6166141 51.0002675,25.4838803 51.0016005,28.6536814 C51.0002675,31.8248452 49.7446035,34.6907487 47.7131471,36.7689717 C45.6790248,38.8471946 42.8757749,40.1309231 39.7739383,40.1309231 C37.1386435,40.1309231 34.7272887,39.198789 32.8091354,37.646595 L32.4998848,38.0472491 L32.8104683,38.4465405 C35.6310469,36.1584511 37.447894,32.6247907 37.4465611,28.6536814 C37.447894,24.6825721 35.6310469,21.1516372 32.8104683,18.8635478 L32.4998848,19.264202 L32.8104683,19.6634933 C34.7272887,18.107211 37.1399764,17.1750769 39.7739383,17.1750769 L39.7739383,16.6640384" id="Fill-344" fill="#505D68"></path>
                            <path d="M32.5696447,18.6973039 L32.2416262,18.2714214 C30.3087104,19.8474762 28.8347389,21.9812343 28.0280668,24.4351285 C27.9492298,24.6741441 28.0407371,24.9377856 28.2490922,25.071055 C28.4588551,25.2043243 28.7277457,25.1724556 28.9023135,24.9942803 L33.8451157,19.906868 C33.9450698,19.8040188 34.001382,19.6635066 34,19.5186486 C33.9985664,19.3737906 33.9408464,19.2332784 33.8408923,19.1333264 C33.5410299,18.8349189 33.2313129,18.545203 32.8976632,18.2714214 C32.7062017,18.1135262 32.4330876,18.1135262 32.2416262,18.2714214 L32.5696447,18.6973039 L32.2402184,19.1217377 C32.538673,19.3650991 32.8230495,19.6301893 33.1046105,19.9112137 L33.4720475,19.5229943 L33.0989792,19.1376721 L28.1547692,24.2250844 L28.5292453,24.6104066 L29.0290159,24.7842362 C29.7695212,22.530246 31.1238293,20.5703175 32.8976632,19.1217377 L32.5696447,18.6973039 L32.2402184,19.1217377 L32.5696447,18.6973039" id="Fill-345" fill="#505D68"></path>
                            <path d="M33.5954966,20.6614926 L33.2620093,20.3015721 L27.1724066,26.8505025 C27.0906079,26.9384531 27.0415286,27.0548183 27.0352364,27.1793021 C27.0239104,27.3782056 27,27.6014646 27,27.8599038 C27,28.5039722 27.0591468,29.1223319 27.1434624,29.7231016 C27.1698897,29.9111804 27.2944755,30.0694913 27.4631068,30.1276739 C27.6317381,30.1872097 27.8179876,30.1398517 27.9438318,30.0058963 L34.8614896,22.5679891 C35.0099858,22.406972 35.0427053,22.1620637 34.9420299,21.9645133 C34.6563635,21.40163 34.3316854,20.8617492 33.9705124,20.3529893 C33.8874552,20.2352709 33.7628694,20.1649105 33.6269576,20.1540858 C33.4910459,20.1446142 33.357651,20.1973845 33.2620093,20.3015721 L33.5954966,20.6614926 L33.2204807,20.9686429 C33.5514511,21.4354571 33.8497019,21.9306862 34.1139748,22.4516238 L34.5280024,22.2080686 L34.1945152,21.8495011 L27.2768573,29.2874083 L27.6103446,29.6473288 L28.0772267,29.570203 C27.9966864,29.0019074 27.9438318,28.4363179 27.9438318,27.8599038 C27.9425734,27.6745312 27.9627084,27.4742746 27.9765513,27.240191 L27.5058938,27.2104231 L27.8393811,27.5689906 L33.9289838,21.0200601 L33.5954966,20.6614926 L33.2204807,20.9686429 L33.5954966,20.6614926" id="Fill-346" fill="#505D68"></path>
                            <path d="M33.1935168,19.6658655 L32.8141726,19.3025777 L27.7867893,24.0990683 L27.6579554,24.297101 C27.2843372,25.3487234 27.0667512,26.4631699 27.0009028,27.6131258 C26.9880194,27.824816 27.1139903,28.0228488 27.3172615,28.1088906 C27.5191012,28.1949324 27.7581595,28.1525944 27.9156231,28.0037284 L34.8425901,21.3935308 C35.0329779,21.2118869 35.0530188,20.9237151 34.8898292,20.7202193 C34.4875813,20.2176258 34.0495462,19.7368841 33.564272,19.2943833 C33.3538433,19.1031792 33.0203068,19.1059107 32.8141726,19.3025777 L33.1935168,19.6658655 L32.8227616,20.0359819 C33.2607967,20.4334132 33.6616131,20.8731826 34.0366628,21.3416325 L34.463246,21.0316088 L34.0839019,20.6683211 L27.1569349,27.2785187 L27.536279,27.6418064 L28.0716553,27.6691213 C28.1346407,26.6052072 28.3336174,25.5822655 28.6757429,24.6262452 L28.1675649,24.462356 L28.546909,24.8242779 L33.5728609,20.0277874 L33.1935168,19.6658655 L32.8227616,20.0359819 L33.1935168,19.6658655" id="Fill-347" fill="#505D68"></path>
                            <path d="M34.7392409,22.6838727 L34.3899716,22.3086325 L27.1449414,30.0923887 C27.0329116,30.2113327 26.9828277,30.3798368 27.0052337,30.5469249 C27.1133095,31.3143973 27.2767411,32.0691257 27.5126626,32.7969501 C27.5680185,32.9697022 27.7037722,33.0985583 27.8698398,33.1396223 C28.0359075,33.1806863 28.2085651,33.1254623 28.3285028,32.9980222 L35.8542664,24.9055779 C35.9887021,24.7611458 36.034832,24.5487457 35.9728862,24.3575856 C35.7567346,23.6835692 35.4825912,23.0421209 35.1741799,22.4304086 C35.0990541,22.2845605 34.9646184,22.1826084 34.8104127,22.1585364 C34.657525,22.1344644 34.4993654,22.1896884 34.3899716,22.3086325 L34.7392409,22.6838727 L34.3056198,22.9373368 C34.5929432,23.5065691 34.8420446,24.0942094 35.0384262,24.7030898 L35.5049972,24.5303377 L35.155728,24.1550975 L27.6299643,32.2475418 L27.9792336,32.622782 L28.4458046,32.4471979 C28.233607,31.7930056 28.0833554,31.1005812 27.9831876,30.3883328 L27.4942106,30.4690449 L27.8434799,30.8442851 L35.0885101,23.0605289 L34.7392409,22.6838727 L34.3056198,22.9373368 L34.7392409,22.6838727" id="Fill-348" fill="#505D68"></path>
                            <path d="M36.4771343,32.6128375 L36.1073423,32.2878653 L31.1521293,36.6437188 C31.053053,36.7307869 30.9986307,36.8485126 31,36.9711436 C31,37.0937746 31.0572393,37.2115004 31.1563156,37.2973421 C31.4633128,37.5597725 31.7814735,37.8136187 32.1233566,38.0527491 C32.3145321,38.186417 32.5838523,38.186417 32.7750278,38.0527491 C34.7132961,36.6989028 36.1826961,34.8618902 36.9739115,32.7563158 C37.0492653,32.5552009 36.9571662,32.3320125 36.7520363,32.2204183 C36.5455109,32.1100504 36.2775861,32.1370292 36.1073423,32.2878653 L36.4771343,32.6128375 L35.9803571,32.4693592 C35.2547275,34.402024 33.9025446,36.090653 32.1233566,37.3329051 L32.44989,37.6934403 L32.7750278,37.3329051 C32.4680307,37.1195272 32.1763834,36.8865282 31.8889225,36.6388136 L31.5233168,36.968691 L31.8931088,37.2936632 L36.8483217,32.9378097 L36.4771343,32.6128375 L35.9803571,32.4693592 L36.4771343,32.6128375" id="Fill-349" fill="#505D68"></path>
                            <path d="M37.4644951,28.6640009 L37.0864597,28.3034119 L30.1562867,34.9151158 C29.9665557,35.0960906 29.9480106,35.3804796 30.1092106,35.5845865 C30.5100707,36.0853289 30.9394618,36.5629391 31.4202087,37.0092529 C31.6299114,37.2038349 31.9651503,37.1997527 32.1719998,37.0038101 L37.2376739,32.1705579 L37.3660632,31.9691724 C37.72698,30.9268664 37.9423889,29.8274104 37.9994508,28.687133 C38.0094367,28.4762225 37.8824738,28.2816405 37.6813305,28.1959156 C37.4787606,28.1115514 37.2419535,28.1537335 37.0864597,28.3034119 L37.4644951,28.6640009 L36.9309659,28.639508 C36.8781836,29.6886176 36.6813199,30.6941845 36.3503606,31.6507656 L36.8582119,31.809969 L36.4801766,31.4493801 L31.4145025,36.2826322 L31.7939644,36.6432212 L32.1662936,36.2758287 C31.7311963,35.8744184 31.3360423,35.4362688 30.9608601,34.9668229 L30.5357486,35.2757047 L30.913784,35.6362936 L37.8425305,29.0232291 L37.4644951,28.6640009 L36.9309659,28.639508 L37.4644951,28.6640009" id="Fill-350" fill="#505D68"></path>
                            <path d="M36.4716342,28.4909918 L37,28.4909918 C37,27.8317534 36.9307756,27.1981819 36.8304709,26.5821722 C36.7993905,26.3930464 36.6609417,26.2376931 36.4716342,26.1782535 C36.2823266,26.118814 36.0732406,26.1660954 35.9319664,26.3011853 L28.1548166,33.7378818 C27.9895257,33.8959369 27.9527944,34.1390987 28.0629883,34.3363298 C28.3822682,34.9037072 28.7453432,35.4413649 29.1508004,35.9520045 C29.2426287,36.0695327 29.383903,36.1424812 29.5364792,36.1519375 C29.6890554,36.1613938 29.8388062,36.1073578 29.9475874,36.0046896 L36.8092797,29.4393226 C36.901108,29.3515142 36.956205,29.2353369 36.9646814,29.1124052 C36.9745706,28.9354375 37,28.7273991 37,28.4909918 L35.9418556,28.4909918 C35.9418556,28.6517488 35.9206644,28.8381728 35.906537,29.0516147 L36.4349028,29.0826854 L36.060526,28.7246973 L29.1974209,35.2887133 L29.5732105,35.6467014 L29.9956206,35.3413984 C29.6226565,34.8699348 29.2892492,34.3768568 28.9968114,33.85541 L28.5306062,34.0972208 L28.9049831,34.4552089 L36.6821328,27.0185124 L36.3063432,26.6605243 L35.7836284,26.7375255 C35.8782821,27.3197628 35.9418556,27.8992983 35.9418556,28.4909918 L36.4716342,28.4909918" id="Fill-351" fill="#505D68"></path>
                            <path d="M36.0179287,24.635664 L35.6687473,24.2947166 L28.1448777,31.6476007 C28.0117935,31.7762601 27.9656752,31.9692492 28.0262878,32.144226 C28.2397496,32.7553581 28.5111887,33.3420449 28.8168871,33.8978535 C28.8906764,34.0329458 29.0250782,34.1255806 29.1792451,34.1474527 C29.3347296,34.1706114 29.4902141,34.1204342 29.6022157,34.0123603 L36.8559639,26.9296609 C36.9666478,26.8203004 37.0180367,26.6659091 36.9943187,26.5153777 C36.8849525,25.8167572 36.717609,25.136149 36.4856999,24.4786995 C36.4303579,24.321735 36.2946384,24.2033684 36.1299302,24.1647706 C35.9639044,24.128746 35.7886549,24.1763499 35.6687473,24.2947166 L36.0179287,24.635664 L35.5514751,24.7926284 C35.7623016,25.3921812 35.9164684,26.0148926 36.0179287,26.6607628 L36.5054649,26.5887135 L36.1562835,26.2464795 L28.9025353,33.329179 L29.2530343,33.671413 L29.6878639,33.4423992 C29.4045659,32.9264751 29.1555271,32.3873922 28.9618303,31.8328703 L28.4940591,31.9885481 L28.8432404,32.3294955 L36.36711,24.9766113 L36.0179287,24.635664 L35.5514751,24.7926284 L36.0179287,24.635664" id="Fill-352" fill="#505D68"></path>
                        </g>
                    </g>
                </g>
            </g>
        </g>
    </g>
</svg>