<?xml version="1.0" encoding="UTF-8"?>
<svg width="112px" height="84px" viewBox="0 0 112 84" version="1.1" xmlns="http://www.w3.org/2000/svg" xmlns:xlink="http://www.w3.org/1999/xlink">
    <title>2305</title>
    <g id="Kosmos" stroke="none" stroke-width="1" fill="none" fill-rule="evenodd">
        <g id="Homepage" transform="translate(-1035.000000, -1027.000000)">
            <g id="Content-#6" transform="translate(139.000000, 881.000000)">
                <g id="Background" transform="translate(0.000000, 119.000000)">
                    <g id="Card" transform="translate(888.000000, 27.000000)">
                        <rect id="Rectangle-4" fill="#FFFFFF" x="0" y="47" width="263" height="195" rx="2"></rect>
                        <g id="2305" transform="translate(8.000000, 0.000000)" fill="#515251">
                            <path d="M101.254118,81.6092334 C102.783376,81.3523421 104.647548,80.8590061 106.405843,80.486776 C106.997884,80.3620002 107.751979,80.3913592 108.087433,80.1811278 C108.508236,79.9168968 108.376431,79.3548817 108.718907,78.5480336 C109.019789,77.8329323 109.426547,77.7480009 109.451935,77.3249167 C109.510275,76.4284188 108.862056,76.1641878 108.718907,75.4878823 C108.566575,74.7774994 108.802095,73.5779746 108.822622,72.5289147 C108.880962,69.7429555 108.533624,66.4741456 108.822622,63.6525362 C108.917154,62.7272035 109.276376,61.8055407 109.34822,60.7952766 C109.646401,56.5418917 108.818301,52.0515378 109.13971,48.040889 C109.472462,43.8425523 109.558892,39.7768553 109.558892,35.4909659 C109.558892,24.2663918 109.579959,13.3343592 109.34822,2.841663 C105.341683,1.18759802 97.4722965,3.28204797 94,1.10895785 C97.4393453,-0.163440154 104.087918,-0.196993295 109.033834,0.291624315 C109.73175,0.3603034 111.365264,1.00095868 111.661284,1.41408172 C112.189043,2.14124119 111.966487,5.01370459 111.871955,7.02532022 C111.420903,16.6582172 110.978493,26.1584744 111.346898,35.6959546 C111.497068,39.5970315 111.083288,43.3313912 111.02981,47.224604 C111.008743,48.8556012 111.418742,50.5343068 111.136226,51.7139094 C110.964988,52.4321563 110.37997,52.8264057 110.296242,53.9588242 C110.072066,56.9796554 110.550668,60.727646 110.609008,64.4682969 C110.668428,68.1601909 111.14811,72.0329573 110.609008,74.9777697 C110.460997,75.7930062 109.845189,76.6428443 109.873818,77.2211117 C109.914872,78.0237657 110.46748,78.0531247 110.504752,78.752498 C110.55769,79.7716747 109.507574,81.2742262 108.508236,81.6092334 C108.069067,81.7560284 107.298766,81.7109413 106.615975,81.8136978 C104.976519,82.0585309 102.729898,82.1277342 101.254118,81.6092334" id="Fill-3"></path>
                            <path d="M86,1.45419259 C85.5691599,2.13615756 84.6100404,2.09350183 83.9495593,2.17249391 C78.2975484,2.83918708 71.7517286,2.65065931 65.4971736,2.6843626 C51.1119604,2.76230146 37.0485605,3.34789609 22.4468738,2.8892154 C15.3148376,2.6654045 8.17384754,2.69226181 1.33096931,3.19728452 C1.23300323,4.30685996 1.8429211,5.15734137 1.94668088,6.27270956 C2.18580239,8.83731914 1.32622902,11.5672855 1.22931633,14.4710344 C1.13872404,17.1920483 1.74126812,20.0952706 1.74126812,22.7720489 C1.74126812,28.4457869 1.75338221,34.2380129 1.94668088,39.9896897 C2.42071031,54.1245327 1.79762495,68.2082942 3.07434423,81.3947057 C9.87245301,83.1040944 17.6133537,81.4615857 25.3179121,82.1109006 C26.2733447,82.1925258 26.9443597,82.5832733 27.9814308,82.6243491 C29.8433131,82.6964952 31.8816396,82.4084374 33.825687,82.3173332 C39.633601,82.0403343 45.6895903,82.1235393 51.6597277,82.2146435 C57.6209112,82.306801 63.469381,82.1651418 69.4964019,82.4200229 C71.3319492,82.4969086 73.2470281,82.2936356 74.9277258,83.0330015 C69.0339599,83.9250854 62.8157471,83.4174296 56.5812066,83.6491397 C50.317171,83.8834829 43.9462154,83.5938453 37.6168691,83.6491397 C28.4296519,83.729185 18.8674249,84.2463199 9.53062512,83.8555724 C6.53739259,83.7276052 3.38457016,84.3005611 0.819017522,83.0330015 C0.223320533,74.8278307 0.404505117,65.7937696 0.613604767,57.1051673 C0.681548986,54.2467071 0.409772111,51.3266332 0.409772111,48.3939205 C0.409772111,37.6457313 0.119560757,28.0376611 0.409772111,17.6475693 C0.446641067,16.2467764 0.654160619,14.8170197 0.613604767,13.4462438 C0.559354732,11.5909831 0,9.74309501 0,7.39861003 C0,6.60184323 0.162223406,5.30374003 0.202779258,4.11991203 C0.241755011,3.05667861 0.0252815698,1.81492309 0.305485635,1.25039302 C0.972287039,-0.0866796179 7.05513807,0.0892094171 8.91649365,0.0202229992 C12.046668,-0.0961586677 15.2216118,0.327765503 18.450279,0.327765503 C34.5114496,0.327765503 51.0887856,0.63425478 67.1399489,0.63425478 C70.3486015,0.63425478 73.6236182,0.693235534 76.7727537,0.841214033 C79.9103019,0.985506236 83.0726049,0.471004478 86,1.45419259" id="Fill-4"></path>
                            <path d="M16.8001513,12.1340182 C15.9163952,12.3720386 13.11458,14.017118 13,12.0329122 C13.2070661,12.0597685 13.0241491,12.4857829 13.3005798,12.441549 C14.2120818,12.9038985 15.7648207,11.0918889 16.7009857,11.0065807 C18.225465,10.8675599 18.5912989,12.9865737 16.8001513,12.1340182" id="Fill-5"></path>
                            <path d="M62.5435641,66.9820812 C63.4009247,66.9820812 64.2582854,66.9820812 65.113533,66.9820812 C64.977771,65.5852771 63.1024597,66.6497091 62.5435641,66.9820812 Z M58.9471924,65.6504894 C57.4759975,66.2542285 54.9266306,66.9705113 53.4971679,65.8555924 C52.8590338,66.2105783 52.0581966,66.4030596 51.3392392,66.6744267 C54.1326607,66.944216 57.7998188,67.3812432 60.6930808,66.877952 C59.8135334,66.7675119 59.6370957,65.9534107 58.9471924,65.6504894 Z M41.0577789,66.0606954 C41.6684436,65.9886464 42.1100662,66.3126039 42.6002885,66.0606954 C42.5981754,65.7877506 42.6388512,65.4758889 42.4962219,65.3428349 C41.9589848,65.5242721 41.2669685,65.5516192 41.0577789,66.0606954 Z M70.9745412,62.6833326 C70.1446499,63.9039584 68.2693386,64.0822403 67.3760565,65.2408093 C69.8255829,65.32548 70.3548961,63.4990115 72.0020005,62.78641 C71.7304766,62.6791254 71.3728468,62.6633482 70.9745412,62.6833326 Z M61.516633,64.9347325 C63.7696479,65.0551648 65.7014827,63.9907328 66.9661293,62.78641 C64.3533716,62.3083622 62.8536508,63.8040364 61.516633,64.9347325 Z M74.5719694,62.8873838 C74.8044024,62.9957203 74.6121169,63.5300399 74.6755077,63.8082437 C75.6644043,63.6757156 76.2201304,63.9775851 76.7320111,64.3199494 C76.779026,63.6778192 76.958105,62.7800991 76.5265192,62.3751522 C76.4810892,63.5484466 75.0643047,62.160057 74.5719694,62.8873838 Z M52.5716622,62.3751522 C52.1147201,64.0711963 49.9795065,64.0932843 49.2827359,65.5479379 C52.4903106,65.9060793 54.3254744,64.0238648 55.9651833,62.4787555 C54.9107829,62.3656859 53.7528442,62.359375 52.5716622,62.3751522 Z M67.6861432,22.5625557 C67.6671259,22.6808843 67.5223836,22.6740476 67.3760565,22.6640554 C67.8398659,23.5996406 68.8435536,24.5189228 69.7400053,25.2231098 C70.173704,25.5644222 70.7009042,25.9136232 71.1805613,26.2470471 C71.587319,26.529984 72.1668166,27.0711404 72.6190043,26.8607784 C70.8995288,25.5018395 69.9587036,23.3687683 67.6861432,22.5625557 Z M68.301034,21.3340413 C68.9043032,21.0852882 69.4996485,20.8959623 70.150989,20.6167067 C70.6940369,20.3858343 71.1604876,19.9445999 71.6940268,19.6958468 C72.2164727,19.4539304 72.8567199,19.3908218 73.4404435,19.0821155 C74.4383205,18.558314 75.4943056,18.1160278 76.6279445,17.5475243 C77.7679225,16.9742877 78.0077511,16.811783 79.713492,16.7276382 C83.6606261,16.5335792 88.3119265,16.5530377 92.2548346,16.4199837 C92.9315314,16.3989475 93.5469505,16.1091738 94.2072714,16.6261385 C93.8337939,17.9167097 91.4767124,17.2351367 89.9928393,17.3424213 C87.0066041,17.5585683 83.4075912,17.4076336 80.3283828,17.5475243 C79.6817966,17.5764491 79.0663775,17.4344547 78.4810691,17.5475243 C77.0626998,17.8162618 75.4900796,19.2646046 74.0579756,19.9004239 C72.3052199,20.6787635 70.7051303,21.169433 69.2260115,21.8452211 C69.5403242,22.8723138 70.5514076,23.3971671 71.2825149,24.0971469 C72.7753683,25.5276088 74.0986514,26.6435795 75.8070336,28.1902666 C76.4916543,28.8145159 77.6163128,30.2476074 78.2739924,30.3401667 C79.1334661,30.460599 80.2068838,30.4853166 81.2538886,30.5442179 C85.1085778,30.7635204 89.9949524,31.0159548 93.6932776,30.953898 C94.9647915,30.9333877 96.4983207,30.4227339 98.0117762,30.7503728 C98.36518,30.7819271 97.9642331,30.2760063 98.4238164,30.2386671 C99.2832901,29.8358237 100.330823,30.111398 101.301231,30.03409 C102.197154,29.962041 103.294343,29.2646907 103.975266,30.03409 C104.151704,30.8571315 103.339773,30.6946268 102.947807,30.953898 C103.204011,31.1779336 103.488742,31.3704149 103.357734,31.9773094 C101.82579,32.5789449 99.8759941,31.9478587 97.8062844,31.7732582 C92.2664562,31.3052027 85.890926,31.2815369 79.5074719,31.2626044 C80.8920327,31.96311 83.2448881,33.9094849 81.9754872,35.4577496 C81.3922918,36.1661438 79.7589221,35.9363233 78.9918933,36.7893414 C78.5164623,37.3168243 78.7203694,37.8453589 77.964434,38.1188296 C77.5217549,39.6197629 77.9153061,41.4136253 77.964434,43.0334131 C80.147719,43.1959178 84.3917334,43.1974955 87.0113585,43.1343869 C87.6896401,43.1175579 88.6014112,42.8425095 88.8613135,43.4404637 C88.2258206,44.0068635 87.1428944,43.7475923 86.2918728,43.7475923 C83.6791151,43.7475923 80.7266884,43.6445149 78.0690288,43.8506697 C77.6120868,46.2445899 77.665969,48.6532354 77.964434,51.2196525 C78.2930097,54.0200973 78.137174,56.6569857 77.964434,59.9186493 C77.9079105,60.9688819 77.8355394,61.533704 78.9918933,61.7614209 C80.6067741,62.0795935 83.2512272,61.8366253 84.9548551,61.7614209 C89.3024078,61.572095 94.3314117,61.2965208 98.116371,61.7614209 C99.0820243,61.8797496 100.488772,61.5394889 100.891832,62.3751522 C100.11371,63.6541535 98.5099223,62.7927209 97.2922906,62.6833326 C91.4017,62.1500648 82.9575164,63.2975898 77.964434,62.4787555 C77.729888,63.1293002 77.9871491,64.2726179 77.6569886,64.832181 C77.4536098,65.0351804 77.0690389,64.8973932 76.8339647,64.832181 C76.7383502,65.7441005 77.8651218,66.3073449 77.2454766,67.0841068 C76.5782884,67.0983062 76.7320111,66.2984045 76.5265192,65.8555924 C75.684478,66.1453661 74.9058277,66.4961448 73.8545968,66.5718752 C73.6549158,66.9005659 73.9380614,67.1792956 73.750002,67.5958125 C65.2672557,68.4788072 55.5061282,67.6999417 47.0207406,67.288158 C46.9753105,67.0683296 48.2420701,67.2792176 48.5621937,67.0841068 C48.7032383,66.700196 48.0180893,66.3594095 47.739698,66.0606954 C46.9969691,66.1032937 46.6673369,66.5608312 45.889743,66.5718752 C45.9077037,66.8953068 46.2965007,66.850079 46.6092286,66.877952 C45.0931319,67.637359 42.4999197,67.4927351 39.9267812,67.4927351 C38.4925643,67.4927351 36.959035,67.6436698 36.0208511,67.0841068 C35.8227549,65.7982687 37.0842319,66.4109482 37.7683243,66.1632469 C37.804774,65.7404192 37.4143923,65.6147278 37.4587659,65.1393096 C37.5263828,64.4277599 38.4788296,64.1979394 38.6938301,63.6036666 C39.1555265,63.9749556 38.1280671,64.4167159 38.2828464,65.1393096 C40.0678258,65.6462821 42.0963316,64.8216629 43.4217277,64.0133467 C44.4085112,63.4111853 45.3377147,62.3052068 46.5072751,62.6833326 C46.2695596,63.8503161 44.3107837,64.1769032 43.8337679,65.4459123 C47.2737756,66.3373215 48.7127469,63.4874416 50.927199,62.4787555 C50.7396679,61.8786977 49.1311262,62.1532202 48.9726492,61.8639724 C51.1400865,61.5126678 53.6799447,61.4642845 55.9651833,61.7614209 C56.2393485,61.8639724 56.419484,62.0575055 56.4786488,62.3751522 C56.985247,62.1958185 58.028554,61.8119078 58.5351522,62.2736525 C58.4987025,63.684656 56.6096565,64.0964397 55.5536713,64.832181 C58.324906,65.6383936 60.1273179,63.2039787 62.2361187,62.171101 C63.1790569,61.7083045 63.9688007,61.9113039 65.2175996,61.9649462 C68.2693386,62.1001038 71.7410417,61.5405407 75.2930398,61.6599212 C72.8250245,60.5339583 69.4182969,60.3425288 66.8620627,59.3064957 C70.1446499,58.9026006 73.0807007,60.275213 75.7024388,60.5339583 C76.2639757,55.3601036 75.5376227,48.9040921 76.2185456,43.8506697 C75.0262702,43.5461706 73.7325695,43.948488 72.4135125,43.8506697 C72.5899502,46.8220337 72.0336959,50.1567982 71.7954521,53.0613722 C71.7368156,53.8050021 72.0918042,54.9735633 71.3860532,55.4158495 C70.9639761,54.5396916 71.430955,53.5515158 71.4880067,52.4476409 C71.6417294,49.4615516 71.2302175,46.1699113 72.1055388,44.0552468 C71.3728468,43.6592402 70.1060872,43.7928201 69.0205196,43.7475923 C70.9386198,43.1333351 73.5645839,43.222213 76.114479,43.2358866 C77.1139407,40.7099642 75.5782984,36.9571052 76.5265192,34.8445442 C72.219114,33.7075373 65.6222442,34.851381 61.0031675,34.0246581 C64.0839607,33.3004868 69.1605077,33.4998048 73.5445101,33.3094271 C74.3110106,33.2757692 75.0579656,33.1306194 75.7024388,33.2058238 C76.6754876,33.321523 77.7816572,33.7874749 78.9918933,33.6155039 C79.3579752,34.003096 79.18682,34.9244818 80.2264293,34.6394412 C80.0616132,33.9405133 79.1139206,33.1621737 78.2739924,32.7971955 C77.7541878,32.462194 77.1794445,31.2263169 76.0119972,30.953898 C75.6480283,30.870805 74.9042429,30.9775638 74.365421,30.953898 C72.8250245,30.8913153 70.5836312,30.5710391 69.5334569,30.8523983 C68.9840699,31.0012295 68.8012931,31.7553775 68.1985522,31.5676293 C67.9254435,31.3961843 67.7627404,31.1158768 67.7870402,30.6472953 C67.4246561,30.5305444 66.9413012,30.5347516 66.5546173,30.4411405 C66.8821365,30.0530225 67.7627404,30.2144754 68.0950139,29.828987 C68.2191542,29.474001 68.2830733,29.0611655 68.301034,28.6004726 C68.5741427,29.0106786 68.735261,29.5329024 69.0205196,29.9315385 C70.8387792,30.1340119 73.0178382,29.9778181 74.7795743,30.2386671 C74.5349914,29.3761826 73.5397558,29.0285593 72.8250245,28.4979211 C71.3728468,27.4250746 70.1076719,26.2580911 68.6084794,24.9159812 C68.0178884,24.3869206 67.1150977,23.2288775 66.4505507,23.176287 C65.5974161,23.1073934 64.3016024,24.0319346 63.3671163,24.4048014 C62.3333179,24.817111 61.5277264,25.5859843 60.4870607,25.5307643 C60.8832532,24.6535545 61.9508601,24.2033797 62.8536508,23.7900183 C63.7585545,23.375605 64.8034463,23.0521734 65.6291115,22.5625557 C63.3422882,19.4791739 59.6344544,17.8173137 57.4041545,14.6813413 C60.2002173,16.0665755 62.5953333,18.0245203 64.7036058,20.2070266 C65.3258922,20.8544158 65.8372447,22.1108032 66.9661293,21.9488244 C63.8488864,18.907515 60.6909678,15.9119593 57.1981344,13.2477239 C56.8949151,13.3933996 56.5489069,13.558008 56.1685621,13.3502754 C55.9176402,12.6681765 56.4675554,11.8651193 57.1981344,12.0192095 C58.170655,12.2253643 59.1822666,13.5590598 60.0755487,14.2716612 C62.7200018,16.3784372 66.0501321,19.4234279 68.301034,21.3340413 L68.301034,21.3340413 Z" id="Fill-6"></path>
                            <path d="M20,12.0815656 C20.6932666,12.1374168 22.451365,11.740792 22.9205129,12.3171121 C24.6539475,11.8237594 26.7551941,12.3899616 28.5556499,12.3171121 C29.6939368,12.2717836 31.3313972,11.7051767 32,12.5534681 C30.91533,13.3370045 28.6950538,12.8671255 26.8854832,12.7902289 C26.1991868,12.7606844 25.4415799,12.8533651 24.8003217,12.7902289 C24.4266119,12.7538041 24.0979402,12.585441 23.7564005,12.5534681 C22.2637058,12.4130306 20.8996917,12.6971435 20,12.0815656" id="Fill-7"></path>
                            <path d="M82.8021936,12.0839723 C82.8021936,12.392393 82.8021936,12.6990379 82.8021936,13.0056827 C84.5483204,13.0921115 86.0240365,13.0867837 87.723446,13.1211185 C89.2623679,13.1536773 91.1387534,12.2118396 92,13.3513981 C91.4300493,14.4293907 89.9900581,13.6243001 88.8985228,13.6977054 C86.3136836,13.8699711 82.4235089,14.4376784 80.0200427,13.3513981 C79.9167151,12.777771 80.2415375,12.6647031 80.3426667,12.3148439 C80.5729553,12.4125203 80.5141465,12.8192095 80.6652907,13.0056827 C81.4671789,12.8346009 81.8112379,11.6837949 82.8021936,12.0839723" id="Fill-8"></path>
                            <path d="M39.9485921,22.9906084 C39.0314221,23.1084528 38.5221205,22.0886268 38.0779498,21.5381893 C36.6311916,19.7421817 34.9484677,17.792529 33.4029455,16.0233721 C27.584949,16.1451943 21.6382924,15.6753086 15.845921,15.9254171 C14.5005961,15.9850851 13.1408569,16.4122087 12,15.829451 C12.3704982,15.0895675 13.9982346,15.1959755 15.1172033,15.1527162 C20.2395815,14.9513366 25.4025329,14.9831595 30.4939473,15.0557556 C31.7501177,15.0726616 33.3073848,14.9712259 34.0259591,15.2496767 C34.4957551,15.429178 35.1652145,16.4629265 35.6894641,17.0869546 C36.9087983,18.5448434 37.7309413,19.4264384 38.9091684,20.8609572 C39.3720242,21.4253172 40.2165894,22.1269138 39.9485921,22.9906084" id="Fill-9"></path>
                            <path d="M59.1350412,22.505093 C59.4740305,23.8353833 58.8250342,25.549541 59.1350412,26.8517815 C60.6643747,26.985278 62.5280396,26.8393148 64.4739936,26.7515292 C65.7486969,26.6928323 67.3924069,25.9484723 68,26.9525531 C67.6263354,27.5514695 66.6507708,27.4278423 65.9857307,27.45797 C63.8182692,27.5571833 61.2802484,27.4818643 59.1350412,27.5587416 C58.8338324,28.5030867 59.5319951,29.7648107 59.2375143,30.6940919 C59.163506,31.0592595 58.7251488,31.0571817 58.3307826,31.0976982 C58.0668367,31.27275 58.0533807,31.6950562 57.7257772,31.8056972 C56.6192747,31.7786863 54.713689,32.3194251 54,31.705445 C54.5035673,30.3585326 57.1450963,31.1548368 58.228827,30.3896991 C58.1092751,29.4666511 58.0114598,28.5202283 57.8277328,27.6605522 C57.4131825,27.5036808 56.8366419,27.5067975 56.3159957,27.45797 C56.8081771,27.3130457 57.4178404,27.2844764 57.8277328,27.0543637 C57.9296884,25.8040675 58.2464234,24.2504173 58.1289416,23.1112815 C57.444235,22.9580462 55.9040331,23.0567402 55.5091494,22.3030302 C56.5266349,21.640742 58.1423977,22.2303084 59.1350412,22.505093" id="Fill-10"></path>
                            <path d="M53.9800758,24 C54.0677614,24.0501379 54.156002,24.1012785 54.3036247,24.0977689 C54.7026498,25.9388318 55.4535275,28.8373026 54.6293935,30.8297819 C53.3857003,30.4552519 53.9329031,28.4647781 53.4406426,27.4158937 C50.9060836,27.9874655 48.1728446,28.3800451 45.2320458,28.5861118 C45.0772085,29.4675357 45.5328408,31.0970168 45.1243812,32 C43.5854427,31.6344949 44.0344154,29.5482577 44.1515145,28.0977689 C46.9191619,27.6144397 49.9631855,26.9405866 53.331313,27.3176235 C53.6831655,26.3329155 53.654307,25.0092755 53.9800758,24" id="Fill-11"></path>
                            <path d="M98.474654,27.5167005 C96.1157624,27.8955074 95.7136452,25.7723103 94,25.3233772 C94.661879,24.4474253 95.7425077,25.5913596 96.8568907,25.9325988 C97.789783,26.2187389 100.039584,25.9426169 99.9994705,27.2725109 C99.9662054,28.3607198 98.9501502,28.0420211 98.474654,27.5167005" id="Fill-12"></path>
                            <path d="M85.3654301,25 C85.4626643,25.8278169 84.2477963,26.3373163 84.2785312,27.4179711 C86.0181283,28.3146135 87.9493995,26.2369459 89.4978811,26.6742741 C89.5431453,27.2387382 88.9541523,27.2635918 88.7373313,27.6043733 C89.2464135,27.8204087 90.2226667,27.6368742 90.9116879,27.6975744 C91.4168584,28.0708567 92.1248794,28.2725535 92.9770752,28.3480703 C93.0899562,28.7533756 92.7546661,28.7758394 92.6512849,29 C92.0701154,28.9469471 90.8999528,28.8241128 90.3690767,28.4412714 C89.183826,28.7189628 87.511287,29.0932011 86.8893238,28.162146 C85.8124836,28.3891743 83.9890641,28.9407337 83.299484,28.162146 C82.1991735,26.9237663 84.4148826,25.5730673 85.3654301,25" id="Fill-13"></path>
                            <path d="M36.5079842,36 C36.7897233,37.8565998 37.0278261,40.102068 36.693913,42.0625045 C37.1373913,42.5188667 38.1837154,42.3169044 39,42.3657076 C38.4597628,42.8179163 37.4826877,42.7919572 36.7859289,43.0723162 C36.2622925,46.310463 36.6052174,49.4452924 36.4164427,53.1761443 C36.8675099,53.5598208 37.9375494,53.2628479 38.5389723,53.4798665 C38.0148617,53.7830697 37.32,53.8967708 36.5079842,53.8843104 C36.2954941,53.9876279 36.3168379,54.3489796 36.3239526,54.692679 C36.1038735,54.5634023 36.2456917,54.0374695 35.955415,53.9860704 C36.0749407,55.8743404 36.1484585,57.8150479 36.2314625,59.7448526 C37.0135968,60.5054563 36.6,62.5198878 36.6,63.8868977 C36.1218972,64.0795147 36.1968379,64.9621265 35.6779447,64.9984694 C34.6083794,65.0742701 35.1225296,62.3184447 35.1244269,60.3507396 C35.1253755,58.1198086 35.0290909,56.0788986 35.1244269,53.8843104 C34.5699605,53.5478796 33.4486957,53.8318729 33,53.3796642 C33.3220553,52.7073217 34.3484585,53.390567 35.1244269,53.1761443 C35.9596838,50.2604103 35.2686166,46.8021297 35.4004743,43.2758361 C35.064664,42.867758 33.9078261,43.3599438 33.9244269,42.5676699 C34.0638735,42.114942 34.7065613,42.2120293 35.2159684,42.1642645 C35.4303557,40.2619765 35.0860079,38.233527 35.1244269,36.5062038 C35.4986561,35.8400915 36.4467984,36.72478 36.5079842,36" id="Fill-14"></path>
                            <path d="M94,38.1980433 C94.8260832,38.1651436 97.043005,37.4420208 96.9993648,38.9822656 C95.6860517,39.1306502 95.1207828,38.3021139 94,38.1980433" id="Fill-15"></path>
                            <path d="M83.0003049,39.0025144 C83.5919818,38.9537393 83.5111316,39.6303512 84.0235332,39.6638131 C86.8065672,39.8169441 89.8237519,38.8040113 91.8901586,39.9972983 C93.7092894,40.441378 96.0292719,39.0229318 97,40.3273805 C96.4361482,41.3244331 94.8060179,40.8151309 93.6279141,40.8786519 C93.1785127,40.9041737 92.7490613,41.03632 92.2996599,40.9903808 C91.5819826,40.9160839 91.1462312,40.3529024 90.5640043,40.216786 C88.4681975,39.7296027 85.8962143,40.7277896 84.4330346,40.6585971 C83.7515824,40.6262694 82.9824549,39.7057824 83.0003049,39.0025144" id="Fill-16"></path>
                            <path d="M64,40.5492084 C64.8761293,39.7814668 67.3563482,40.4191624 68.9105114,40.2436786 C69.5058713,40.1763053 70.9838027,39.4602688 70.999908,40.852388 C71.0095712,41.481466 70.2553055,41.8669036 70.0604311,41.9201755 C68.2024143,42.4340923 66.0759755,40.2883329 64,40.5492084" id="Fill-17"></path>
                            <path d="M72.8439751,41.3676805 C72.9780294,41.7595062 73.1149979,42.6376838 72.8439751,42.9997796 C71.6396721,43.0241734 72.3762422,41.0154947 71,41.2205552 C71.4801184,40.6694073 72.1358187,41.3188928 72.8439751,41.3676805" id="Fill-18"></path>
                            <path d="M53,41.6272745 C52.2978276,42.2862739 51.3502102,41.877661 50.4430624,41.8443502 C48.2419411,41.7610731 45.6019622,42.2540734 44,41.3036043 C46.3246321,41.3924331 49.5275053,41.1470433 51.7738262,41.0870838 C52.2752278,41.0726491 52.9726699,40.6967919 53,41.6272745" id="Fill-19"></path>
                            <path d="M32.5517696,41 C32.6954921,41 32.8407118,41 32.9874286,41 C33.1348939,43.3594208 31.9327147,46.5198522 32.1131164,49.4865175 C32.2089314,51.0747378 32.4140355,52.5514459 31.9686453,54 C31.4364228,53.4970912 32.0914083,52.1164381 31.0935846,51.9568984 C30.7118216,48.7688649 31.6482638,45.5090662 31.2410499,42.611958 C31.5255008,42.3977664 32.0726944,42.542401 32.4058014,42.611958 C32.4297551,42.0549493 32.3152262,41.3980211 32.5517696,41" id="Fill-20"></path>
                            <path d="M61.4526509,42 C61.5208203,42.8703492 62.5526909,44.8413265 61.5947304,45.8702541 C61.2653642,45.8362356 61.2811508,45.5551908 61.0350232,45.4625559 C60.935998,47.8998477 61.9628456,51.0274527 60.7551696,53 C59.7749643,52.6467314 60.3217552,52.0145114 60.3368243,51.3697307 C60.3956653,48.7461224 59.5503638,45.2181464 60.3368243,43.017937 C60.3770084,43.6349795 60.3683975,44.2844705 61.0350232,44.4446189 C61.3787408,43.7794272 61.4562387,42.9174517 61.4526509,42" id="Fill-21"></path>
                            <path d="M100,42.4168776 C99.4352746,43.2965805 97.875013,42.9197874 96.6682238,42.9197874 C94.3895983,42.9197874 91.7606146,43.0583601 90,42.5165254 C92.1338109,41.8631059 95.7764975,42.1942271 98.3862763,42.1122253 C98.9686494,42.0940604 99.7088135,41.7307613 100,42.4168776" id="Fill-22"></path>
                            <path d="M49.2086903,51.1041445 C48.9881927,51.4774858 49.1539763,52.2295173 49.1019979,52.7681345 C50.0813795,52.9392939 50.6017101,52.424746 51.3381613,52.6638342 C51.4722107,52.2733769 51.5351319,51.3785343 51.3381613,50.9998442 C50.757098,51.1576318 49.9424058,51.0902378 49.2086903,51.1041445 Z M45.0553465,50.9998442 C45.0236124,51.7315505 45.0941935,52.5627432 44.7358164,52.9772698 C45.5603572,53.2409622 46.6519026,53.2019165 47.5054418,52.9772698 C47.4490864,52.3717936 47.6247185,51.5416706 47.3992966,51.1041445 C46.7345208,50.9356595 45.6156184,50.9575893 45.0553465,50.9998442 Z M45.0553465,50.3745776 C45.0553465,50.478343 45.0553465,50.5831781 45.0553465,50.6869435 C45.3918379,50.7029897 45.6987838,50.6917574 45.8016462,50.478343 C45.6495411,50.3216252 45.2840513,50.149931 45.0553465,50.3745776 Z M49.2086903,47.7724203 C49.0587738,48.2516666 48.8782174,49.0143955 49.1019979,49.5423152 C50.0310426,49.5364316 50.593503,49.8873083 51.3381613,50.0632815 C51.5280191,49.5016649 51.4886249,48.3393857 51.3381613,47.7724203 C50.62852,47.7724203 49.9183316,47.7724203 49.2086903,47.7724203 Z M45.1620389,50.1654423 C46.1578347,50.2713472 46.6508083,49.8862386 47.3992966,49.7509157 C47.4627649,48.9924657 47.2121745,48.5431724 47.292057,47.7724203 C46.521136,47.693794 45.9329599,47.4343806 45.1620389,47.3557542 C44.9875011,48.0671354 44.9875011,49.4551309 45.1620389,50.1654423 Z M44.9492013,46.5240267 C44.9492013,46.661489 44.9492013,46.800556 44.9492013,46.9401579 C45.5133031,47.2113385 46.2940727,46.8930891 46.6529969,46.6272572 C46.314864,46.4063546 45.3940265,46.3052636 44.9492013,46.5240267 Z M48.8886131,44.4406962 C48.9695899,44.9916154 48.915423,45.3103997 49.1019979,45.8987601 C50.0102512,45.8212035 51.0405168,46.0223158 51.6571442,45.8987601 C51.8212864,45.5382557 51.753441,44.9504302 51.7649309,44.4406962 C51.1253236,44.5187876 49.7284738,44.1497253 48.8886131,44.4406962 Z M48.0367153,44.3369308 C48.1423134,44.7905031 48.2254788,45.2633309 48.6768697,45.3793984 C48.9416857,44.8402463 48.7304895,43.8913816 48.0367153,44.3369308 Z M53.0414098,43.0885371 C53.0676725,42.9574933 53.252606,42.9842369 53.2547946,43.0885371 C54,44.163632 54,46.3683786 54,48.5019871 C54,50.3906238 53.9086275,52.4477455 53.3603927,53.7046972 C52.7744052,53.7576496 52.8734376,53.1414759 52.6151873,52.8724347 C51.7835337,53.6560237 50.1355464,53.6399775 48.6768697,53.8089974 C49.5413518,54.3887998 51.8300406,53.5709789 52.5095892,54.3304986 C52.2989401,55.2504802 50.8982603,54.9546955 49.9538957,54.9546955 C48.1412191,54.9546955 46.0971021,54.964858 44.5229788,54.7471647 C45.4547591,54.5118206 46.384898,54.2775462 47.3992966,54.1218981 C46.5107403,53.6635119 44.8222646,54.1994547 44.0973034,53.8089974 C43.8220917,53.4656089 44.1837516,53.0478731 44.5229788,52.9772698 C44.2340886,50.8030109 43.5736899,46.8663454 44.8436031,44.8578972 C45.0870807,45.1044736 44.8808087,45.7928552 44.9492013,46.2105911 C45.7058966,46.4395167 46.6239984,46.0865005 47.3992966,46.0030603 C47.7932378,45.6607416 47.7932378,44.9311748 47.9316643,44.3369308 C47.303547,43.944334 46.4341407,43.788686 45.4821161,43.7121991 C47.3177726,43.2153021 49.9008231,43.198721 51.9777686,43.5041335 C52.9341702,45.5676737 52.6671657,48.2768056 52.8285721,50.9998442 C52.7672924,48.3597109 53.3675055,45.2938187 53.0414098,43.0885371 L53.0414098,43.0885371 Z" id="Fill-23"></path>
                            <path d="M42.4931807,44.0046391 C42.644383,43.9737159 42.6539831,44.1073482 42.7754249,44.1117658 C43.1920711,46.5337122 42.8143055,49.3626296 42.8675863,51.7426089 C42.8863065,52.5129271 43.252072,53.459949 42.6803835,54 C41.7390896,53.3981027 42.2262968,51.2914621 42.1192552,49.5940012 C41.9963734,47.6033224 41.8110906,45.5502451 42.4931807,44.0046391" id="Fill-24"></path>
                            <path d="M29.9371474,44.1218322 C30.1867607,45.4016983 29.6135259,47.1225428 29.5955713,48 C29.4944122,46.6905639 28.9986889,45.9583854 29,44.4978853 C29.1287505,44.0626923 29.5727995,43.8479885 29.9371474,44.1218322" id="Fill-25"></path>
                            <path d="M30,48.0867722 C29.8945946,49.0914689 29.9724324,49.5997864 30,50.6547494 C29.3783784,50.9236739 29.4956757,51.4225664 29.2637838,52 C28.3956757,51.557657 28.1854054,51.0405429 28,49.9202338 C28.1702703,49.7084872 28.3194595,49.4747491 28.7372973,49.5545468 C29.0183784,48.9312453 29.1459459,47.6569958 30,48.0867722" id="Fill-26"></path>
                            <path d="M69.6945149,53.0330665 C69.8284782,53.446663 70.0223861,53.7764129 69.997887,54.4027968 C68.1562829,55.4315037 64.9270904,54.9277191 63,54.4027968 C65.3665108,54.2132611 67.3269616,52.7646163 69.6945149,53.0330665" id="Fill-28"></path>
                            <path d="M20,54.1571489 C20.2661809,53.6751489 20.6022289,54.6901489 21,54.5451489 C20.7158165,55.6281489 20.2713245,54.3391489 20,54.1571489" id="Fill-29"></path>
                            <path d="M28,55.7097983 C26.5368486,56.6851818 24.8290677,54.8754258 23,55.0405119 C23.878302,54.1167178 27.9429541,52.9810632 28,55.7097983" id="Fill-30"></path>
                            <path d="M15.8098753,54 C15.5854223,54.4693939 15.2200457,54.7912797 15.1124312,55.3878926 C17.9011828,55.4186006 20.098055,56.2789734 22.9913464,56.2411368 C23.0999857,56.9276802 22.1565657,56.8317177 21.7958011,56.8821666 C21.2766895,56.9529047 20.5915441,57.0302231 20.1990076,56.9879996 C19.7383153,56.9386474 19.3211812,56.58057 18.8036069,56.5608291 C17.5019845,56.5125737 16.094285,56.5986658 14.5154272,56.6672105 C13.1881823,55.6483624 14.7173324,54.2977581 15.8098753,54" id="Fill-31"></path>
                            <path d="M86.3795904,57.0664574 C86.2250705,58.030587 84.4124336,58.4559249 84.9057085,59.5684175 C85.2579706,60.3630551 86.6529717,59.8656028 87.5363283,59.6584458 C87.885889,59.3327822 87.9534239,58.7604594 88.3759223,58.4968051 C89.1328535,58.4191786 89.6531425,58.5436565 89.8481833,58.9441906 C91.3863584,58.8390045 93.3065109,58.5928046 94.3686999,59.3010886 C95.2898761,59.1439983 95.9744099,59.2528591 96.5784421,59.5684175 C97.2446065,59.375959 98.9173111,58.9584298 98.9956516,59.7475555 C99.0561629,60.3575432 98.4775238,60.0837836 97.7346398,60.28451 C97.2678385,60.4094473 96.839397,60.7392448 96.4714668,60.7309769 C96.1062381,60.7245463 95.786933,60.2780794 95.2109953,60.194941 C94.3335818,60.0681665 93.2859803,60.463648 93.0012531,59.7475555 C91.6781092,59.4260258 91.0578686,59.8697367 89.8481833,60.0162624 C89.4899781,60.0603579 89.1052993,59.9492005 88.7973401,60.0162624 C87.8140318,60.2303093 86.7637289,61.018057 85.6421092,60.9996839 C84.6328675,60.9826887 83.8791779,60.5697528 83.6446967,59.3010886 C82.9947408,59.2537778 82.8240125,59.5766854 82.2777902,59.3915762 C81.7250845,59.0186018 82.1454217,58.5450345 82.2777902,58.0503381 C82.6711135,58.0420702 82.3053444,58.6823736 82.6986677,58.674565 C84.3114013,58.5652449 84.8046763,56.6199904 86.3795904,57.0664574" id="Fill-32"></path>
                            <path d="M30,56.1032535 C30,56.3256248 30,56.5485692 30,56.7709405 C29.0542183,57.3560979 27.9499883,56.6471461 27,56.5485692 C27.463426,56.0190046 29.0619304,55.8780166 30,56.1032535" id="Fill-33"></path>
                            <path d="M33.9277559,62.929259 C32.2727205,63.4083526 31.765671,61.3117037 30.3703439,60.9090903 C29.7224174,60.7233528 28.7653144,60.822777 27.9641439,60.6965848 C23.7985951,60.0415869 17.8720844,60.0028005 13,59.7405828 C13.7033094,58.6507406 15.3825412,59.1019735 16.6617255,59.1019735 C19.5367983,59.1019735 21.9935419,58.8725331 24.8250612,59.1019735 C26.4032058,59.2298047 28.1932034,59.7935727 29.6379988,59.9525421 C30.1423598,60.0082634 30.735441,59.8449236 31.102689,59.9525421 C31.6479151,60.1115116 32.29853,60.967543 32.7765438,61.3341015 C33.3776905,61.7935287 34.2589781,62.1278562 33.9277559,62.929259" id="Fill-34"></path>
                            <path d="M43,61.3395173 C42.4299897,62.5338698 40.7795276,61.8406121 40,61.3395173 C41.1400205,61.5362775 42.0843889,60.4853577 43,61.3395173" id="Fill-35"></path>
                            <path d="M44.9537016,68.528629 C45.1104753,69.19563 44.8514579,69.7240057 44.4424829,70.0860311 C44.0439946,70.1462797 43.8515666,69.9953914 43.6266304,69.8791594 C40.0113971,71.8407076 36.4506938,73.8566395 33.0153046,76 C32.8941851,75.5078802 33.5223286,75.3282004 33.8301084,75.0664119 C36.3862016,72.8942599 40.075365,71.193434 43.0136924,69.3603809 C42.7903292,69.1391136 42.1448829,69.3449188 42.0950718,68.944505 C42.1527478,67.6990099 44.3952935,67.8211068 44.9537016,68.528629" id="Fill-36"></path>
                            <path d="M18.3035081,73.0177712 C18.6397324,72.9047616 18.4595573,73.3596253 18.5037027,73.5669979 C18.8265807,73.8410462 19.2038705,73.2443555 19.6027198,73.5669979 C19.779815,73.9229781 19.7387494,74.5179737 20.0025957,74.7773307 C21.0030554,74.7072647 21.9526964,73.9664868 22.7996736,74.6677114 C23.7749807,74.0455935 24.9936012,74.4722048 26.0962114,74.4467776 C27.1002644,74.4241757 28.1253634,73.7941472 29.0945106,73.6777473 C29.8034049,73.591295 30.884969,73.6065512 30.9917395,74.2269739 C31.1939874,75.3943631 27.6305234,76.1690439 25.9971408,75.7672948 C25.6521901,75.6825376 25.2548808,75.1429167 24.998221,75.1067537 C24.2672541,75.00448 23.5701662,75.7774656 22.7996736,75.7672948 C22.44035,75.7610792 22.1020724,75.4226155 21.8007539,75.4373067 C21.0215349,75.4751649 20.2926212,76.3069156 19.4040651,75.8769141 C19.1807712,75.5005921 18.8373604,75.2514059 18.9035786,74.556962 C18.6002068,74.2687875 18.1762049,74.1122692 18.0047562,73.6777473 C17.9518843,73.2878642 18.3584333,73.4076544 18.3035081,73.0177712" id="Fill-37"></path>
                            <path d="M30,77.0595767 C30,77.3101459 30,77.5589988 30,77.8108552 C26.8855705,78.0155153 23.0485977,78.1665433 20,77.6426649 C22.5085635,76.8862377 27.1167844,76.963897 30,77.0595767" id="Fill-38"></path>
                            <path d="M80,82.8724446 C82.4140851,82.0326165 86.1646436,82.3851217 89.5559982,82.0705469 C91.2660864,81.9118164 93.2110181,82.0705469 95.4756573,82.0705469 C96.8703079,82.0705469 100.806073,81.8272976 100.982205,82.391306 C101.247472,83.241029 98.4768514,82.9528406 97.3474673,82.9528406 C91.1038308,82.9528406 85.5198913,83.1008515 80,82.8724446" id="Fill-39"></path>
                            <path d="M35.1343137,31.8902126 C38.0219107,29.6229763 40.6883411,27.1344084 43.09683,24.3931836 C43.085435,24.2725039 43.0657527,24.1569596 42.8948277,24.1944473 C40.2843365,26.7343683 37.5562695,29.1623396 35.1343137,31.8902126 Z M53.7811978,14.2997452 C54.623392,14.6150528 54.9326109,13.5890193 55.9990795,13.8005938 C56.0415517,15.1583679 54.6042277,15.913771 53.7811978,16.6979318 C51.1417011,19.216798 48.3535514,21.6504182 45.516714,24.0943089 C41.7573994,27.3326311 38.4476694,31.0557259 34.629308,34.0881224 C38.8340635,34.6689252 43.7722428,33.4189924 48.0365632,34.2883992 C47.1912612,34.9811516 45.3261067,35.0011793 43.8022842,35.0879659 C42.0231101,35.1875908 40.0911394,35.2558903 38.6610667,35.2877292 C37.8333752,35.3051892 36.9885912,34.8656073 36.3427018,35.0879659 C35.9371434,35.2276462 35.5668058,35.9034521 35.233761,35.9856169 C34.8836237,36.0749712 34.3169813,35.7201217 33.7213335,35.6867423 C32.71184,35.6317945 31.6028992,35.9255339 31,35.0879659 C31.6603921,33.9130086 32.71184,32.9665722 33.6218863,31.9903511 C38.0949423,27.1831938 43.3381969,22.6322881 48.4390139,18.2975787 C50.4730217,16.5690357 52.237693,14.4907785 54.486652,13 C54.9015336,13.3076047 53.7501205,13.7148342 53.7811978,14.2997452 L53.7811978,14.2997452 Z" id="Fill-42"></path>
                        </g>
                    </g>
                </g>
            </g>
        </g>
    </g>
</svg>