<?xml version="1.0" encoding="UTF-8"?>
<svg width="586px" height="88px" viewBox="0 0 586 88" version="1.1" xmlns="http://www.w3.org/2000/svg" xmlns:xlink="http://www.w3.org/1999/xlink">
    <title>Group 12</title>
    <g id="Kosmos" stroke="none" stroke-width="1" fill="none" fill-rule="evenodd">
        <g id="Group-12">
            <g id="vector" transform="translate(0.000000, -0.000000)" fill-rule="nonzero">
                <g id="Group">
                    <path d="M3.3,40.7 L33.7,71.1999 L33.8,71.0999 L33.8,87.6999 C33.7,87.6999 33.6,87.6999 33.5,87.6999 C15,87.7999 0,72.6999 0,54.0999 C0,50.1999 1.1,45.7 3.3,40.7 Z" id="Path" fill="#0DACB2"></path>
                    <path d="M63.8,41 C65.9,45.9 67,50.3 67,54.1 C67,72.6 52.2,87.6 33.8,87.8 L33.8,71.2 L63.8,41 Z" id="Path" fill="#029298"></path>
                    <path d="M14.9,21.8999 L33.7,40.7999 L33.8,40.6999 L33.8,61.7999 L33.7,61.8999 L6.5,34.4999 C8.7,30.5999 11.5,26.3999 14.9,21.8999 Z" id="Path" fill="#16B76F"></path>
                    <path d="M52.3,22.1001 C55.7,26.6001 58.4,30.9001 60.7,34.8001 L33.9,61.8001 L33.9,40.7001 L52.3,22.1001 Z" id="Path" fill="#109B5D"></path>
                    <path d="M33.3,0 L33.8,0.5 L33.8,31.1 L33.6,31.3 L18.8,16.6 C23,11.4 27.8,5.9 33.3,0 Z" id="Path" fill="#FDC500"></path>
                    <path d="M33.8,0.5 L33.3,0 C38.9,6 43.8,11.6 48,16.8 L33.8,31.1 L33.8,0.5 Z" id="Path" fill="#D9A800"></path>
                </g>
            </g>
            <text id="WorthrightFinance" font-family="PTSerif-Bold, PT Serif" font-size="55" font-weight="bold" letter-spacing="-0.1">
                <tspan x="83" y="62" fill="#3A3A3A">Worthright</tspan>
                <tspan x="378.23" y="62" fill="#DAAA00">Finance</tspan>
            </text>
        </g>
    </g>
</svg>